{
.appVersion = "1172";
classes = (
{
automatic = 1;

glyphs = (
{
glyphname = A;
lastChange = "2018-10-16 09:45:43 +0000";
layers = (
{
anchors = (
{
name = bottom;
position = "{277, 0}";
},
{
name = ogonek;
position = "{532, 0}";
},
{
name = top;
position = "{282, 587}";
}
);
background = {
anchors = (
{
name = bottom;
position = "{277, 0}";
},
{
name = ogonek;
position = "{532, 0}";
},
{
name = top;
position = "{282, 587}";
}
);
paths = (
{
closed = 1;
nodes = (
"162 0 LINE",
"163 32 LINE",
"104 45 LINE",
"160 201 LINE",
"171 231 LINE",
"286 544 LINE",
"265 521 LINE",
"379 232 LINE",
"390 203 LINE",
"451 45 LINE",
"392 32 LINE",
"393 0 LINE",
"565 0 LINE",
"566 32 LINE",
"517 45 LINE",
"305 605 LINE",
"259 576 LINE",
"53 45 LINE",
"4 32 LINE",
"6 0 LINE"
);
},
{
closed = 1;
nodes = (
"199 193 OFFCURVE",
"247 194 OFFCURVE",
"282 194 CURVE SMOOTH",
"318 194 OFFCURVE",
"369 193 OFFCURVE",
"425 192 CURVE",
"425 238 LINE",
"401 237 OFFCURVE",
"350 235 OFFCURVE",
"282 235 CURVE SMOOTH",
"213 235 OFFCURVE",
"162 237 OFFCURVE",
"137 238 CURVE",
"137 192 LINE"
);
}
);
};
color = -1;
layerId = "1F9E295B-DEDB-4635-AE01-A776835412CD";
paths = (
{
closed = 1;
nodes = (
"161 0 LINE",
"163 32 LINE",
"104 45 LINE",
"160 201 LINE",
"171 231 LINE",
"286 544 LINE",
"265 521 LINE",
"379 232 LINE",
"390 203 LINE",
"451 45 LINE",
"392 32 LINE",
"394 0 LINE",
"564 0 LINE",
"566 32 LINE",
"517 45 LINE",
"305 605 LINE",
"259 576 LINE",
"53 45 LINE",
"4 32 LINE",
"6 0 LINE"
);
},
{
closed = 1;
nodes = (
"199 193 OFFCURVE",
"247 194 OFFCURVE",
"282 194 CURVE SMOOTH",
"318 194 OFFCURVE",
"369 193 OFFCURVE",
"425 192 CURVE",
"425 238 LINE",
"401 237 OFFCURVE",
"350 235 OFFCURVE",
"282 235 CURVE SMOOTH",
"213 235 OFFCURVE",
"162 237 OFFCURVE",
"137 238 CURVE",
"137 192 LINE"
);
}
);
width = 571;
},
{
anchors = (
{
name = bottom;
position = "{271, 0}";
},
{
name = ogonek;
position = "{589, 0}";
},
{
name = top;
position = "{302, 587}";
}
);
background = {
anchors = (
{
name = bottom;
position = "{271, 0}";
},
{
name = ogonek;
position = "{589, 0}";
},
{
name = top;
position = "{302, 587}";
}
);
paths = (
{
closed = 1;
nodes = (
"210 0 LINE",
"214 57 LINE",
"148 76 LINE",
"190 203 LINE",
"201 233 LINE",
"272 420 LINE",
"237 442 LINE",
"332 228 LINE",
"343 191 LINE",
"392 76 LINE",
"326 57 LINE",
"330 0 LINE",
"640 0 LINE",
"643 57 LINE",
"590 76 LINE",
"352 605 LINE",
"253 550 LINE",
"51 76 LINE",
"-2 57 LINE",
"2 0 LINE"
);
},
{
closed = 1;
nodes = (
"182 161 OFFCURVE",
"206 163 OFFCURVE",
"265 163 CURVE SMOOTH",
"322 163 OFFCURVE",
"348 161 OFFCURVE",
"358 161 CURVE",
"358 238 LINE",
"334 237 OFFCURVE",
"309 233 OFFCURVE",
"265 233 CURVE SMOOTH",
"219 233 OFFCURVE",
"198 237 OFFCURVE",
"173 238 CURVE",
"173 160 LINE"
);
}
);
};
color = -1;
layerId = "722FC537-28B1-4F35-B842-D78FAAB5B143";
paths = (
{
closed = 1;
nodes = (
"211 0 LINE",
"214 57 LINE",
"148 76 LINE",
"192 203 LINE",
"201 233 LINE",
"271 420 LINE",
"237 442 LINE",
"332 228 LINE",
"343 191 LINE",
"392 76 LINE",
"326 57 LINE",
"331 0 LINE",
"640 0 LINE",
"643 57 LINE",
"590 76 LINE",
"352 605 LINE",
"253 550 LINE",
"51 76 LINE",
"-2 57 LINE",
"1 0 LINE"
);
},
{
closed = 1;
nodes = (
"173 161 OFFCURVE",
"200 163 OFFCURVE",
"265 163 CURVE SMOOTH",
"328 163 OFFCURVE",
"357 161 OFFCURVE",
"368 161 CURVE",
"368 238 LINE",
"341 237 OFFCURVE",
"314 233 OFFCURVE",
"265 233 CURVE SMOOTH",
"214 233 OFFCURVE",
"191 237 OFFCURVE",
"163 238 CURVE",
"163 160 LINE"
);
}
);
width = 634;
},
{
anchors = (
{
name = bottom;
position = "{271, 0}";
},
{
name = ogonek;
position = "{560, 0}";
},
{
name = top;
position = "{290, 587}";
}
);
color = -1;
layerId = "76B56D5A-2442-4808-93A9-707A1715678A";
paths = (
{
closed = 1;
nodes = (
"184 0 LINE",
"187 46 LINE",
"125 61 LINE",
"174 202 LINE",
"184 232 LINE",
"274 477 LINE",
"247 478 LINE",
"350 230 LINE",
"361 197 LINE",
"417 61 LINE",
"355 46 LINE",
"358 0 LINE",
"602 0 LINE",
"605 46 LINE",
"554 61 LINE",
"328 605 LINE",
"253 562 LINE",
"49 61 LINE",
"-2 46 LINE",
"1 0 LINE"
);
},
{
closed = 1;
nodes = (
"186 176 OFFCURVE",
"222 178 OFFCURVE",
"270 178 CURVE SMOOTH",
"318 178 OFFCURVE",
"355 176 OFFCURVE",
"387 176 CURVE",
"387 238 LINE",
"363 237 OFFCURVE",
"326 234 OFFCURVE",
"270 234 CURVE SMOOTH",
"213 234 OFFCURVE",
"178 237 OFFCURVE",
"153 238 CURVE",
"153 175 LINE"
);
}
);
width = 599;
}
);
leftKerningGroup = A;
note = A;
rightKerningGroup = A;
unicode = 0041;
},
{
glyphname = Aogonek;
lastChange = "2018-10-16 09:45:43 +0000";
layers = (
{
anchors = (
{
name = bottom;
position = "{277, 0}";
},
{
name = top;
position = "{282, 587}";
}
);
background = {
anchors = (
{
name = bottom;
position = "{777, 0}";
},
{
name = top;
position = "{782, 587}";
}
);
paths = (
{
closed = 1;
nodes = (
"1122 -223 OFFCURVE",
"1156 -204 OFFCURVE",
"1181 -173 CURVE",
"1161 -152 LINE",
"1142 -172 OFFCURVE",
"1120 -187 OFFCURVE",
"1092 -187 CURVE SMOOTH",
"1056 -187 OFFCURVE",
"1031 -164 OFFCURVE",
"1031 -126 CURVE SMOOTH",
"1031 -72 OFFCURVE",
"1085 -22 OFFCURVE",
"1165 0 CURVE",
"1165 0 LINE",
"1166 32 LINE",
"1117 45 LINE",
"905 605 LINE",
"859 576 LINE",
"653 45 LINE",
"604 32 LINE",
"606 0 LINE",
"763 0 LINE",
"764 32 LINE",
"704 45 LINE",
"760 201 LINE",
"771 231 LINE",
"888 541 LINE",
"865 522 LINE",
"979 232 LINE",
"990 203 LINE",
"1051 45 LINE",
"991 32 LINE",
"992 0 LINE",
"1139 0 LINE",
"1133 17 LINE",
"1029 -22 OFFCURVE",
"974 -75 OFFCURVE",
"974 -137 CURVE SMOOTH",
"974 -185 OFFCURVE",
"1012 -223 OFFCURVE",
"1080 -223 CURVE SMOOTH"
);
},
{
closed = 1;
nodes = (
"799 193 OFFCURVE",
"847 194 OFFCURVE",
"882 194 CURVE SMOOTH",
"918 194 OFFCURVE",
"969 193 OFFCURVE",
"1025 192 CURVE",
"1025 238 LINE",
"1001 237 OFFCURVE",
"950 235 OFFCURVE",
"882 235 CURVE SMOOTH",
"813 235 OFFCURVE",
"762 237 OFFCURVE",
"737 238 CURVE",
"737 192 LINE"
);
},
{
closed = 1;
nodes = (
"161 0 LINE",
"163 32 LINE",
"104 45 LINE",
"160 201 LINE",
"171 231 LINE",
"286 544 LINE",
"265 521 LINE",
"379 232 LINE",
"390 203 LINE",
"451 45 LINE",
"392 32 LINE",
"394 0 LINE",
"564 0 LINE",
"566 32 LINE",
"517 45 LINE",
"305 605 LINE",
"259 576 LINE",
"53 45 LINE",
"4 32 LINE",
"6 0 LINE"
);
},
{
closed = 1;
nodes = (
"199 193 OFFCURVE",
"247 194 OFFCURVE",
"282 194 CURVE SMOOTH",
"318 194 OFFCURVE",
"369 193 OFFCURVE",
"425 192 CURVE",
"425 238 LINE",
"401 237 OFFCURVE",
"350 235 OFFCURVE",
"282 235 CURVE SMOOTH",
"213 235 OFFCURVE",
"162 237 OFFCURVE",
"137 238 CURVE",
"137 192 LINE"
);
}
);
};
color = -1;
layerId = "1F9E295B-DEDB-4635-AE01-A776835412CD";
paths = (
{
closed = 1;
nodes = (
"522 -223 OFFCURVE",
"556 -204 OFFCURVE",
"581 -173 CURVE",
"561 -152 LINE",
"542 -172 OFFCURVE",
"520 -187 OFFCURVE",
"492 -187 CURVE SMOOTH",
"456 -187 OFFCURVE",
"431 -164 OFFCURVE",
"431 -126 CURVE SMOOTH",
"431 -72 OFFCURVE",
"485 -22 OFFCURVE",
"564 0 CURVE",
"566 32 LINE",
"517 45 LINE",
"305 605 LINE",
"259 576 LINE",
"53 45 LINE",
"4 32 LINE",
"6 0 LINE",
"161 0 LINE",
"163 32 LINE",
"104 45 LINE",
"160 201 LINE",
"171 231 LINE",
"286 544 LINE",
"265 521 LINE",
"379 232 LINE",
"390 203 LINE",
"451 45 LINE",
"392 32 LINE",
"394 0 LINE",
"539 0 LINE",
"533 17 LINE",
"429 -22 OFFCURVE",
"374 -75 OFFCURVE",
"374 -137 CURVE SMOOTH",
"374 -185 OFFCURVE",
"412 -223 OFFCURVE",
"480 -223 CURVE SMOOTH"
);
},
{
closed = 1;
nodes = (
"199 193 OFFCURVE",
"247 194 OFFCURVE",
"282 194 CURVE SMOOTH",
"318 194 OFFCURVE",
"369 193 OFFCURVE",
"425 192 CURVE",
"425 238 LINE",
"401 237 OFFCURVE",
"350 235 OFFCURVE",
"282 235 CURVE SMOOTH",
"213 235 OFFCURVE",
"162 237 OFFCURVE",
"137 238 CURVE",
"137 192 LINE"
);
}
);
width = 571;
},
{
anchors = (
{
name = bottom;
position = "{271, 0}";
},
{
name = top;
position = "{302, 587}";
}
);
background = {
anchors = (
{
name = bottom;
position = "{271, 0}";
},
{
name = top;
position = "{302, 587}";
}
);
paths = (
{
closed = 1;
nodes = (
"579 -223 OFFCURVE",
"623 -206 OFFCURVE",
"652 -173 CURVE",
"620 -127 LINE",
"595 -151 OFFCURVE",
"573 -161 OFFCURVE",
"553 -161 CURVE SMOOTH",
"523 -161 OFFCURVE",
"504 -139 OFFCURVE",
"504 -108 CURVE SMOOTH",
"504 -60 OFFCURVE",
"558 -16 OFFCURVE",
"640 0 CURVE",
"643 57 LINE",
"590 76 LINE",
"352 605 LINE",
"253 550 LINE",
"51 76 LINE",
"-2 57 LINE",
"2 0 LINE",
"207 0 LINE",
"211 57 LINE",
"148 76 LINE",
"190 203 LINE",
"201 233 LINE",
"275 433 LINE",
"237 439 LINE",
"332 228 LINE",
"343 191 LINE",
"392 76 LINE",
"330 57 LINE",
"333 0 LINE",
"549 0 LINE",
"537 9 LINE",
"462 -4 OFFCURVE",
"392 -61 OFFCURVE",
"392 -116 CURVE SMOOTH",
"392 -177 OFFCURVE",
"455 -223 OFFCURVE",
"531 -223 CURVE SMOOTH"
);
},
{
closed = 1;
nodes = (
"182 161 OFFCURVE",
"206 163 OFFCURVE",
"265 163 CURVE SMOOTH",
"322 163 OFFCURVE",
"348 161 OFFCURVE",
"358 161 CURVE",
"358 238 LINE",
"334 237 OFFCURVE",
"309 233 OFFCURVE",
"265 233 CURVE SMOOTH",
"219 233 OFFCURVE",
"198 237 OFFCURVE",
"173 238 CURVE",
"173 160 LINE"
);
}
);
};
color = -1;
layerId = "722FC537-28B1-4F35-B842-D78FAAB5B143";
paths = (
{
closed = 1;
nodes = (
"579 -223 OFFCURVE",
"623 -206 OFFCURVE",
"652 -173 CURVE",
"620 -127 LINE",
"595 -151 OFFCURVE",
"573 -161 OFFCURVE",
"553 -161 CURVE SMOOTH",
"523 -161 OFFCURVE",
"504 -139 OFFCURVE",
"504 -108 CURVE SMOOTH",
"504 -60 OFFCURVE",
"558 -16 OFFCURVE",
"640 0 CURVE",
"643 57 LINE",
"590 76 LINE",
"352 605 LINE",
"253 550 LINE",
"51 76 LINE",
"-2 57 LINE",
"1 0 LINE",
"211 0 LINE",
"214 57 LINE",
"148 76 LINE",
"192 203 LINE",
"201 233 LINE",
"275 433 LINE",
"237 439 LINE",
"332 228 LINE",
"343 191 LINE",
"392 76 LINE",
"326 57 LINE",
"331 0 LINE",
"549 0 LINE",
"537 9 LINE",
"462 -4 OFFCURVE",
"392 -61 OFFCURVE",
"392 -116 CURVE SMOOTH",
"392 -177 OFFCURVE",
"455 -223 OFFCURVE",
"531 -223 CURVE SMOOTH"
);
},
{
closed = 1;
nodes = (
"173 161 OFFCURVE",
"200 163 OFFCURVE",
"265 163 CURVE SMOOTH",
"328 163 OFFCURVE",
"357 161 OFFCURVE",
"368 161 CURVE",
"368 238 LINE",
"341 237 OFFCURVE",
"314 233 OFFCURVE",
"265 233 CURVE SMOOTH",
"214 233 OFFCURVE",
"191 237 OFFCURVE",
"163 238 CURVE",
"163 160 LINE"
);
}
);
width = 634;
},
{
anchors = (
{
name = bottom;
position = "{271, 0}";
},
{
name = top;
position = "{290, 587}";
}
);
color = -1;
layerId = "76B56D5A-2442-4808-93A9-707A1715678A";
paths = (
{
closed = 1;
nodes = (
"550 -223 OFFCURVE",
"589 -205 OFFCURVE",
"616 -173 CURVE",
"591 -138 LINE",
"567 -160 OFFCURVE",
"545 -173 OFFCURVE",
"522 -173 CURVE SMOOTH",
"489 -173 OFFCURVE",
"468 -150 OFFCURVE",
"468 -116 CURVE SMOOTH",
"468 -66 OFFCURVE",
"522 -19 OFFCURVE",
"603 0 CURVE",
"605 46 LINE",
"554 61 LINE",
"328 605 LINE",
"253 562 LINE",
"49 61 LINE",
"-2 46 LINE",
"1 0 LINE",
"184 0 LINE",
"187 46 LINE",
"125 61 LINE",
"174 202 LINE",
"184 232 LINE",
"274 478 LINE",
"247 477 LINE",
"350 230 LINE",
"361 197 LINE",
"417 61 LINE",
"355 46 LINE",
"358 0 LINE",
"542 0 LINE",
"532 13 LINE",
"445 -12 OFFCURVE",
"381 -67 OFFCURVE",
"381 -125 CURVE SMOOTH",
"381 -181 OFFCURVE",
"432 -223 OFFCURVE",
"505 -223 CURVE SMOOTH"
);
},
{
closed = 1;
nodes = (
"186 176 OFFCURVE",
"222 178 OFFCURVE",
"270 178 CURVE SMOOTH",
"318 178 OFFCURVE",
"355 176 OFFCURVE",
"387 176 CURVE",
"387 238 LINE",
"363 237 OFFCURVE",
"326 234 OFFCURVE",
"270 234 CURVE SMOOTH",
"213 234 OFFCURVE",
"178 237 OFFCURVE",
"153 238 CURVE",
"153 175 LINE"
);
}
);
width = 599;
}
);
leftKerningGroup = A;
leftMetricsKey = A;
widthMetricsKey = A;
note = Aogonek;
rightKerningGroup = A;
unicode = 0104;
},
{
glyphname = AE;
lastChange = "2018-10-16 09:45:46 +0000";
layers = (
{
anchors = (
{
name = bottom;
position = "{406, 0}";
},
{
name = top;
position = "{406, 587}";
}
);
background = {
anchors = (
{
name = bottom;
position = "{405.714, 0}";
},
{
name = top;
position = "{405.714, 587}";
}
);
paths = (
{
closed = 1;
nodes = (
"755.036 133.571 LINE",
"715.607 141.643 LINE",
"666.464 48.964 LINE",
"656.321 46.429 OFFCURVE",
"633.286 44.964 OFFCURVE",
"593.536 44.964 CURVE SMOOTH",
"489.5 44.964 LINE SMOOTH",
"451.107 44.964 OFFCURVE",
"448.071 44.5 OFFCURVE",
"436.643 46.5 CURVE",
"436.107 59.964 OFFCURVE",
"434.643 122.821 OFFCURVE",
"434.643 133.964 CURVE SMOOTH",
"434.643 432.75 LINE SMOOTH",
"434.643 457.536 OFFCURVE",
"436.107 533.5 OFFCURVE",
"436.643 542.571 CURVE",
"461.893 543.107 OFFCURVE",
"477.643 544.107 OFFCURVE",
"495.321 544.107 CURVE SMOOTH",
"617.893 544.107 LINE SMOOTH",
"632.429 544.107 OFFCURVE",
"645.893 543.107 OFFCURVE",
"650.714 541.571 CURVE",
"682.857 459.893 LINE",
"721.821 466.429 LINE",
"705.071 590.536 LINE",
"673 586.607 OFFCURVE",
"663.357 587 OFFCURVE",
"630.143 587 CURVE SMOOTH",
"296.571 587 LINE",
"295.036 555.036 LINE",
"382.714 541.964 LINE",
"371.25 575.107 LINE",
"40.25 45.036 LINE",
"-8.893 31.964 LINE",
"-7.357 0 LINE",
"159.75 0 LINE",
"161.286 31.964 LINE",
"100.75 45.036 LINE",
"401 551.071 LINE",
"374.786 528.357 LINE",
"374.786 143.143 LINE SMOOTH",
"374.786 76.964 OFFCURVE",
"373.321 56.929 OFFCURVE",
"372.786 45.036 CURVE",
"312.25 32.429 LINE",
"313.786 0 LINE",
"644.714 0 LINE SMOOTH",
"663.286 0 OFFCURVE",
"669.179 0.393 OFFCURVE",
"718.821 -4.536 CURVE"
);
},
{
closed = 1;
nodes = (
"206.286 190.821 OFFCURVE",
"244.214 190.357 OFFCURVE",
"297.214 190.357 CURVE SMOOTH",
"383.929 190.357 OFFCURVE",
"402.75 190.821 OFFCURVE",
"406.357 188.357 CURVE",
"406.357 235.857 LINE",
"390.929 234.321 OFFCURVE",
"353 233.321 OFFCURVE",
"297.214 233.321 CURVE SMOOTH",
"247.071 233.321 OFFCURVE",
"200.464 233.857 OFFCURVE",
"181.786 235.857 CURVE",
"173.5 188.821 LINE"
);
},
{
closed = 1;
nodes = (
"649.75 207.786 LINE",
"649.75 397.607 LINE",
"615.714 397.607 LINE",
"601.321 327.214 LINE",
"593.786 324.286 OFFCURVE",
"580.571 323.75 OFFCURVE",
"560.429 323.75 CURVE SMOOTH",
"481.821 323.75 LINE SMOOTH",
"466.607 323.75 OFFCURVE",
"451.464 324.286 OFFCURVE",
"422.893 325.286 CURVE",
"422.893 279.179 LINE",
"451.464 280.179 OFFCURVE",
"466.607 280.714 OFFCURVE",
"481.821 280.714 CURVE SMOOTH",
"560.429 280.714 LINE SMOOTH",
"580.571 280.714 OFFCURVE",
"593.786 280.179 OFFCURVE",
"601.321 277.25 CURVE",
"615.714 207.786 LINE"
);
}
);
};
color = -1;
layerId = "1F9E295B-DEDB-4635-AE01-A776835412CD";
paths = (
{
closed = 1;
nodes = (
"755 134 LINE",
"716 142 LINE",
"666 49 LINE",
"656 46 OFFCURVE",
"633 45 OFFCURVE",
"594 45 CURVE SMOOTH",
"490 45 LINE SMOOTH",
"451 45 OFFCURVE",
"448 45 OFFCURVE",
"437 47 CURVE",
"436 60 OFFCURVE",
"435 123 OFFCURVE",
"435 134 CURVE SMOOTH",
"435 433 LINE SMOOTH",
"435 458 OFFCURVE",
"436 534 OFFCURVE",
"437 543 CURVE",
"462 543 OFFCURVE",
"478 544 OFFCURVE",
"495 544 CURVE SMOOTH",
"618 544 LINE SMOOTH",
"632 544 OFFCURVE",
"646 543 OFFCURVE",
"651 542 CURVE",
"683 460 LINE",
"722 466 LINE",
"705 591 LINE",
"673 587 OFFCURVE",
"663 587 OFFCURVE",
"630 587 CURVE SMOOTH",
"297 587 LINE",
"295 555 LINE",
"383 542 LINE",
"371 575 LINE",
"40 45 LINE",
"-9 32 LINE",
"-7 0 LINE",
"160 0 LINE",
"162 32 LINE",
"101 45 LINE",
"402 551 LINE",
"375 528 LINE",
"375 143 LINE SMOOTH",
"375 77 OFFCURVE",
"374 58 OFFCURVE",
"373 45 CURVE",
"312 32 LINE",
"314 0 LINE",
"645 0 LINE SMOOTH",
"663 0 OFFCURVE",
"669 0 OFFCURVE",
"719 -5 CURVE"
);
},
{
closed = 1;
nodes = (
"206 191 OFFCURVE",
"244 190 OFFCURVE",
"297 190 CURVE SMOOTH",
"384 190 OFFCURVE",
"403 191 OFFCURVE",
"406 188 CURVE",
"406 236 LINE",
"391 234 OFFCURVE",
"353 233 OFFCURVE",
"297 233 CURVE SMOOTH",
"247 233 OFFCURVE",
"200 234 OFFCURVE",
"182 236 CURVE",
"174 189 LINE"
);
},
{
closed = 1;
nodes = (
"650 208 LINE",
"650 398 LINE",
"616 398 LINE",
"601 327 LINE",
"594 324 OFFCURVE",
"581 324 OFFCURVE",
"560 324 CURVE SMOOTH",
"482 324 LINE SMOOTH",
"467 324 OFFCURVE",
"451 324 OFFCURVE",
"423 325 CURVE",
"423 279 LINE",
"451 280 OFFCURVE",
"467 281 OFFCURVE",
"482 281 CURVE SMOOTH",
"560 281 LINE SMOOTH",
"581 281 OFFCURVE",
"594 280 OFFCURVE",
"601 277 CURVE",
"616 208 LINE"
);
}
);
width = 792;
},
{
anchors = (
{
name = bottom;
position = "{451, 0}";
},
{
name = top;
position = "{451, 587}";
}
);
background = {
anchors = (
{
name = bottom;
position = "{451, 0}";
},
{
name = top;
position = "{451, 587}";
}
);
paths = (
{
closed = 1;
nodes = (
"848 166 LINE",
"784 178 LINE",
"726 75 LINE",
"708 71 OFFCURVE",
"712 71 OFFCURVE",
"658 71 CURVE SMOOTH",
"637 71 LINE SMOOTH",
"605 71 OFFCURVE",
"571 73 OFFCURVE",
"535 75 CURVE",
"533 86 OFFCURVE",
"533 84 OFFCURVE",
"533 217 CURVE SMOOTH",
"533 390 LINE SMOOTH",
"533 517 OFFCURVE",
"533 505 OFFCURVE",
"535 518 CURVE",
"546 521 OFFCURVE",
"576 522 OFFCURVE",
"604 522 CURVE SMOOTH",
"645 522 LINE SMOOTH",
"662 522 OFFCURVE",
"673 521 OFFCURVE",
"696 517 CURVE",
"737 425 LINE",
"802 434 LINE",
"771 593 LINE",
"735 593 OFFCURVE",
"632 587 OFFCURVE",
"586 587 CURVE SMOOTH",
"277 587 LINE",
"274 529 LINE",
"371 511 LINE",
"362 553 LINE",
"31 76 LINE",
"-26 58 LINE",
"-23 0 LINE",
"179 0 LINE",
"183 58 LINE",
"120 76 LINE",
"406 498 LINE",
"368 492 LINE",
"368 208 LINE SMOOTH",
"368 160 OFFCURVE",
"368 110 OFFCURVE",
"366 76 CURVE",
"303 57 LINE",
"307 0 LINE",
"633 0 LINE SMOOTH",
"685 0 OFFCURVE",
"770 -6 OFFCURVE",
"799 -7 CURVE"
);
},
{
closed = 1;
nodes = (
"171 152 OFFCURVE",
"204 154 OFFCURVE",
"257 154 CURVE SMOOTH",
"271 154 OFFCURVE",
"308 152 OFFCURVE",
"375 152 CURVE",
"375 228 LINE",
"335 224 OFFCURVE",
"301 223 OFFCURVE",
"257 223 CURVE SMOOTH",
"199 223 OFFCURVE",
"203 226 OFFCURVE",
"175 228 CURVE",
"150 150 LINE"
);
},
{
closed = 1;
nodes = (
"726 196 LINE",
"726 404 LINE",
"661 404 LINE",
"653 339 LINE",
"644 341 OFFCURVE",
"618 338 OFFCURVE",
"590 338 CURVE SMOOTH",
"562 338 LINE SMOOTH",
"535 338 OFFCURVE",
"511 341 OFFCURVE",
"507 342 CURVE",
"507 261 LINE",
"511 262 OFFCURVE",
"535 264 OFFCURVE",
"562 264 CURVE SMOOTH",
"590 264 LINE SMOOTH",
"618 264 OFFCURVE",
"644 262 OFFCURVE",
"653 263 CURVE",
"661 196 LINE"
);
}
);
};
color = -1;
layerId = "722FC537-28B1-4F35-B842-D78FAAB5B143";
paths = (
{
closed = 1;
nodes = (
"848 166 LINE",
"784 178 LINE",
"726 75 LINE",
"708 71 OFFCURVE",
"712 71 OFFCURVE",
"658 71 CURVE SMOOTH",
"637 71 LINE SMOOTH",
"605 71 OFFCURVE",
"571 73 OFFCURVE",
"535 75 CURVE",
"533 96 OFFCURVE",
"533 84 OFFCURVE",
"533 217 CURVE SMOOTH",
"533 390 LINE SMOOTH",
"533 487 OFFCURVE",
"534 505 OFFCURVE",
"535 518 CURVE",
"546 521 OFFCURVE",
"576 522 OFFCURVE",
"604 522 CURVE SMOOTH",
"645 522 LINE SMOOTH",
"662 522 OFFCURVE",
"673 521 OFFCURVE",
"696 517 CURVE",
"737 425 LINE",
"802 434 LINE",
"771 593 LINE",
"735 593 OFFCURVE",
"632 587 OFFCURVE",
"586 587 CURVE SMOOTH",
"277 587 LINE",
"274 529 LINE",
"371 511 LINE",
"362 553 LINE",
"31 76 LINE",
"-26 58 LINE",
"-23 0 LINE",
"180 0 LINE",
"183 58 LINE",
"120 76 LINE",
"406 498 LINE",
"368 492 LINE",
"368 208 LINE SMOOTH",
"368 160 OFFCURVE",
"368 110 OFFCURVE",
"366 76 CURVE",
"303 57 LINE",
"306 0 LINE",
"633 0 LINE SMOOTH",
"685 0 OFFCURVE",
"770 -6 OFFCURVE",
"799 -7 CURVE"
);
},
{
closed = 1;
nodes = (
"173 152 OFFCURVE",
"209 154 OFFCURVE",
"267 154 CURVE SMOOTH",
"282 154 OFFCURVE",
"332 154 OFFCURVE",
"395 152 CURVE",
"395 228 LINE",
"351 224 OFFCURVE",
"314 223 OFFCURVE",
"267 223 CURVE SMOOTH",
"203 223 OFFCURVE",
"208 226 OFFCURVE",
"177 228 CURVE",
"150 150 LINE"
);
},
{
closed = 1;
nodes = (
"726 196 LINE",
"726 404 LINE",
"661 404 LINE",
"653 340 LINE",
"644 339 OFFCURVE",
"618 338 OFFCURVE",
"590 338 CURVE SMOOTH",
"562 338 LINE SMOOTH",
"535 338 OFFCURVE",
"511 341 OFFCURVE",
"507 342 CURVE",
"507 261 LINE",
"511 262 OFFCURVE",
"535 264 OFFCURVE",
"562 264 CURVE SMOOTH",
"590 264 LINE SMOOTH",
"618 264 OFFCURVE",
"644 263 OFFCURVE",
"653 263 CURVE",
"661 196 LINE"
);
}
);
width = 858;
},
{
anchors = (
{
name = bottom;
position = "{427, 0}";
},
{
name = top;
position = "{427, 587}";
}
);
color = -1;
layerId = "76B56D5A-2442-4808-93A9-707A1715678A";
paths = (
{
closed = 1;
nodes = (
"802 151 LINE",
"749 161 LINE",
"696 63 LINE",
"681 60 OFFCURVE",
"672 59 OFFCURVE",
"625 59 CURVE SMOOTH",
"566 59 LINE SMOOTH",
"530 59 OFFCURVE",
"511 60 OFFCURVE",
"486 62 CURVE",
"485 75 OFFCURVE",
"484 101 OFFCURVE",
"484 179 CURVE SMOOTH",
"484 409 LINE SMOOTH",
"484 487 OFFCURVE",
"485 518 OFFCURVE",
"486 529 CURVE",
"505 531 OFFCURVE",
"527 532 OFFCURVE",
"551 532 CURVE SMOOTH",
"629 532 LINE SMOOTH",
"645 532 OFFCURVE",
"657 531 OFFCURVE",
"672 528 CURVE",
"708 442 LINE",
"762 449 LINE",
"738 592 LINE",
"704 590 OFFCURVE",
"643 587 OFFCURVE",
"603 587 CURVE SMOOTH",
"283 587 LINE",
"280 541 LINE",
"374 526 LINE",
"363 563 LINE",
"32 61 LINE",
"-21 46 LINE",
"-18 0 LINE",
"167 0 LINE",
"170 46 LINE",
"108 61 LINE",
"400 523 LINE",
"368 509 LINE",
"368 179 LINE SMOOTH",
"368 122 OFFCURVE",
"367 85 OFFCURVE",
"366 61 CURVE",
"304 46 LINE",
"307 0 LINE",
"636 0 LINE SMOOTH",
"671 0 OFFCURVE",
"720 -3 OFFCURVE",
"759 -6 CURVE"
);
},
{
closed = 1;
nodes = (
"184 169 OFFCURVE",
"220 171 OFFCURVE",
"273 171 CURVE SMOOTH",
"321 171 OFFCURVE",
"350 170 OFFCURVE",
"388 169 CURVE",
"388 232 LINE",
"358 229 OFFCURVE",
"323 228 OFFCURVE",
"273 228 CURVE SMOOTH",
"219 228 OFFCURVE",
"199 230 OFFCURVE",
"175 232 CURVE",
"157 167 LINE"
);
},
{
closed = 1;
nodes = (
"687 202 LINE",
"687 401 LINE",
"637 401 LINE",
"626 334 LINE",
"617 333 OFFCURVE",
"598 332 OFFCURVE",
"573 332 CURVE SMOOTH",
"522 332 LINE SMOOTH",
"500 332 OFFCURVE",
"481 333 OFFCURVE",
"466 334 CURVE",
"466 269 LINE",
"481 270 OFFCURVE",
"500 272 OFFCURVE",
"522 272 CURVE SMOOTH",
"573 272 LINE SMOOTH",
"598 272 OFFCURVE",
"617 270 OFFCURVE",
"626 269 CURVE",
"637 202 LINE"
);
}
);
width = 824;
}
);
leftKerningGroup = AE;
note = AE;
rightKerningGroup = E;
rightMetricsKey = "=E+1";
unicode = 00C6;
},
{
glyphname = B;
lastChange = "2018-10-16 09:45:43 +0000";
layers = (
{
anchors = (
{
name = bottom;
position = "{266, 0}";
},
{
name = top;
position = "{266, 587}";
}
);
background = {
anchors = (
{
name = bottom;
position = "{266.464, 0}";
},
{
name = top;
position = "{266.464, 587}";
}
);
paths = (
{
closed = 1;
nodes = (
"49.107 32.429 LINE",
"50.643 0 LINE",
"249.75 0 LINE SMOOTH",
"397.179 0 OFFCURVE",
"493.179 65.929 OFFCURVE",
"493.179 167.607 CURVE SMOOTH",
"493.179 260 OFFCURVE",
"423.643 312.536 OFFCURVE",
"295.25 315.607 CURVE",
"314.607 309.071 LINE",
"401.964 316.536 OFFCURVE",
"463.179 373 OFFCURVE",
"463.179 446 CURVE SMOOTH",
"463.179 535.607 OFFCURVE",
"392.714 587 OFFCURVE",
"268.821 587 CURVE SMOOTH",
"50.643 587 LINE",
"49.107 553.107 LINE",
"108.714 546.357 LINE",
"114.179 537.893 OFFCURVE",
"117.179 486.071 OFFCURVE",
"117.179 396.75 CURVE SMOOTH",
"117.179 188.786 LINE SMOOTH",
"117.179 109.25 OFFCURVE",
"114.179 55.964 OFFCURVE",
"108.714 45.036 CURVE"
);
},
{
closed = 1;
nodes = (
"177.036 414.857 LINE SMOOTH",
"177.036 477.786 OFFCURVE",
"178.036 539.5 OFFCURVE",
"179.036 548.571 CURVE",
"260.429 548.571 LINE SMOOTH",
"346.607 548.571 OFFCURVE",
"398.179 510.571 OFFCURVE",
"398.179 437.857 CURVE SMOOTH",
"398.179 364.071 OFFCURVE",
"341.679 322.214 OFFCURVE",
"245.857 322.214 CURVE SMOOTH",
"214.607 322.214 OFFCURVE",
"191.357 323.679 OFFCURVE",
"161.714 324.679 CURVE",
"161.714 280.643 LINE",
"174.393 282.643 OFFCURVE",
"184.536 282.643 OFFCURVE",
"249.929 282.643 CURVE SMOOTH",
"366.679 282.643 OFFCURVE",
"428.179 240.321 OFFCURVE",
"428.179 159.464 CURVE SMOOTH",
"428.179 77.429 OFFCURVE",
"372.071 39.964 OFFCURVE",
"252.821 39.964 CURVE SMOOTH",
"237.143 39.964 OFFCURVE",
"196.964 44.429 OFFCURVE",
"180.036 46.5 CURVE",
"178.036 57.107 OFFCURVE",
"177.036 115.214 OFFCURVE",
"177.036 177 CURVE SMOOTH"
);
}
);
};
color = -1;
layerId = "1F9E295B-DEDB-4635-AE01-A776835412CD";
paths = (
{
closed = 1;
nodes = (
"51 32 LINE",
"53 0 LINE",
"250 0 LINE SMOOTH",
"397 0 OFFCURVE",
"493 66 OFFCURVE",
"493 168 CURVE SMOOTH",
"493 260 OFFCURVE",
"424 313 OFFCURVE",
"295 316 CURVE",
"315 309 LINE",
"402 317 OFFCURVE",
"463 373 OFFCURVE",
"463 446 CURVE SMOOTH",
"463 536 OFFCURVE",
"393 587 OFFCURVE",
"269 587 CURVE SMOOTH",
"53 587 LINE",
"51 553 LINE",
"111 546 LINE",
"114 538 OFFCURVE",
"117 486 OFFCURVE",
"117 397 CURVE SMOOTH",
"117 189 LINE SMOOTH",
"117 109 OFFCURVE",
"114 56 OFFCURVE",
"111 45 CURVE"
);
},
{
closed = 1;
nodes = (
"177 415 LINE SMOOTH",
"177 478 OFFCURVE",
"178 540 OFFCURVE",
"179 549 CURVE",
"260 549 LINE SMOOTH",
"347 549 OFFCURVE",
"398 511 OFFCURVE",
"398 438 CURVE SMOOTH",
"398 364 OFFCURVE",
"342 322 OFFCURVE",
"246 322 CURVE SMOOTH",
"215 322 OFFCURVE",
"191 323 OFFCURVE",
"162 325 CURVE",
"162 280 LINE",
"174 282 OFFCURVE",
"185 282 OFFCURVE",
"250 282 CURVE SMOOTH",
"367 282 OFFCURVE",
"428 240 OFFCURVE",
"428 159 CURVE SMOOTH",
"428 77 OFFCURVE",
"372 40 OFFCURVE",
"253 40 CURVE SMOOTH",
"237 40 OFFCURVE",
"197 44 OFFCURVE",
"180 47 CURVE",
"178 57 OFFCURVE",
"177 115 OFFCURVE",
"177 177 CURVE SMOOTH"
);
}
);
width = 542;
},
{
anchors = (
{
name = bottom;
position = "{326, 0}";
},
{
name = top;
position = "{326, 587}";
}
);
background = {
anchors = (
{
name = bottom;
position = "{326, 0}";
},
{
name = top;
position = "{326, 587}";
}
);
paths = (
{
closed = 1;
nodes = (
"32 57 LINE",
"35 0 LINE",
"326 0 LINE SMOOTH",
"498 0 OFFCURVE",
"594 62 OFFCURVE",
"594 174 CURVE SMOOTH",
"594 260 OFFCURVE",
"522 315 OFFCURVE",
"400 322 CURVE",
"383 313 LINE",
"490 319 OFFCURVE",
"564 373 OFFCURVE",
"564 446 CURVE SMOOTH",
"564 542 OFFCURVE",
"495 587 OFFCURVE",
"349 587 CURVE SMOOTH",
"35 587 LINE",
"32 531 LINE",
"97 510 LINE",
"101 503 OFFCURVE",
"104 433 OFFCURVE",
"104 354 CURVE SMOOTH",
"104 234 LINE SMOOTH",
"104 152 OFFCURVE",
"101 82 OFFCURVE",
"97 76 CURVE"
);
},
{
closed = 1;
nodes = (
"270 407 LINE SMOOTH",
"270 466 OFFCURVE",
"271 511 OFFCURVE",
"272 524 CURVE",
"290 524 LINE SMOOTH",
"358 524 OFFCURVE",
"385 486 OFFCURVE",
"385 430 CURVE SMOOTH",
"385 368 OFFCURVE",
"357 334 OFFCURVE",
"300 334 CURVE SMOOTH",
"283 334 OFFCURVE",
"274 334 OFFCURVE",
"264 335 CURVE",
"264 260 LINE",
"287 262 OFFCURVE",
"306 262 OFFCURVE",
"308 262 CURVE SMOOTH",
"382 262 OFFCURVE",
"415 230 OFFCURVE",
"415 157 CURVE SMOOTH",
"415 102 OFFCURVE",
"381 66 OFFCURVE",
"333 66 CURVE SMOOTH",
"307 66 OFFCURVE",
"285 69 OFFCURVE",
"273 75 CURVE",
"271 92 OFFCURVE",
"270 127 OFFCURVE",
"270 177 CURVE SMOOTH"
);
}
);
};
color = -1;
layerId = "722FC537-28B1-4F35-B842-D78FAAB5B143";
paths = (
{
closed = 1;
nodes = (
"32 57 LINE",
"35 0 LINE",
"326 0 LINE SMOOTH",
"498 0 OFFCURVE",
"594 62 OFFCURVE",
"594 174 CURVE SMOOTH",
"594 260 OFFCURVE",
"522 315 OFFCURVE",
"395 322 CURVE",
"378 313 LINE",
"490 319 OFFCURVE",
"564 373 OFFCURVE",
"564 446 CURVE SMOOTH",
"564 542 OFFCURVE",
"495 587 OFFCURVE",
"349 587 CURVE SMOOTH",
"35 587 LINE",
"32 531 LINE",
"97 510 LINE",
"101 503 OFFCURVE",
"104 433 OFFCURVE",
"104 354 CURVE SMOOTH",
"104 234 LINE SMOOTH",
"104 152 OFFCURVE",
"101 82 OFFCURVE",
"97 76 CURVE"
);
},
{
closed = 1;
nodes = (
"270 407 LINE SMOOTH",
"270 466 OFFCURVE",
"271 511 OFFCURVE",
"272 524 CURVE",
"290 524 LINE SMOOTH",
"358 524 OFFCURVE",
"385 486 OFFCURVE",
"385 430 CURVE SMOOTH",
"385 368 OFFCURVE",
"357 334 OFFCURVE",
"293 334 CURVE SMOOTH",
"283 334 OFFCURVE",
"274 334 OFFCURVE",
"254 336 CURVE",
"254 259 LINE",
"272 261 OFFCURVE",
"287 262 OFFCURVE",
"298 262 CURVE SMOOTH",
"382 262 OFFCURVE",
"415 230 OFFCURVE",
"415 157 CURVE SMOOTH",
"415 102 OFFCURVE",
"380 66 OFFCURVE",
"326 66 CURVE SMOOTH",
"306 66 OFFCURVE",
"285 69 OFFCURVE",
"273 75 CURVE",
"271 92 OFFCURVE",
"270 127 OFFCURVE",
"270 177 CURVE SMOOTH"
);
}
);
width = 644;
},
{
anchors = (
{
name = bottom;
position = "{297, 0}";
},
{
name = top;
position = "{297, 587}";
}
);
color = -1;
layerId = "76B56D5A-2442-4808-93A9-707A1715678A";
paths = (
{
closed = 1;
nodes = (
"38 46 LINE",
"41 0 LINE",
"288 0 LINE SMOOTH",
"449 0 OFFCURVE",
"545 64 OFFCURVE",
"545 171 CURVE SMOOTH",
"545 260 OFFCURVE",
"474 314 OFFCURVE",
"349 319 CURVE",
"349 311 LINE",
"448 318 OFFCURVE",
"515 373 OFFCURVE",
"515 446 CURVE SMOOTH",
"515 539 OFFCURVE",
"446 587 OFFCURVE",
"309 587 CURVE SMOOTH",
"41 587 LINE",
"38 541 LINE",
"101 527 LINE",
"105 520 OFFCURVE",
"108 458 OFFCURVE",
"108 373 CURVE SMOOTH",
"108 213 LINE SMOOTH",
"108 133 OFFCURVE",
"105 70 OFFCURVE",
"101 61 CURVE"
);
},
{
closed = 1;
nodes = (
"225 411 LINE SMOOTH",
"225 472 OFFCURVE",
"226 524 OFFCURVE",
"227 535 CURVE",
"274 535 LINE SMOOTH",
"351 535 OFFCURVE",
"389 497 OFFCURVE",
"389 434 CURVE SMOOTH",
"389 366 OFFCURVE",
"348 328 OFFCURVE",
"272 328 CURVE SMOOTH",
"249 328 OFFCURVE",
"234 329 OFFCURVE",
"214 330 CURVE",
"214 269 LINE",
"232 271 OFFCURVE",
"247 271 OFFCURVE",
"278 271 CURVE SMOOTH",
"373 271 OFFCURVE",
"419 235 OFFCURVE",
"419 158 CURVE SMOOTH",
"419 91 OFFCURVE",
"374 54 OFFCURVE",
"293 54 CURVE SMOOTH",
"273 54 OFFCURVE",
"243 58 OFFCURVE",
"228 62 CURVE",
"226 75 OFFCURVE",
"225 121 OFFCURVE",
"225 177 CURVE SMOOTH"
);
}
);
width = 592;
}
);
leftKerningGroup = H;
note = B;
rightKerningGroup = B;
unicode = 0042;
},
{
glyphname = C;
lastChange = "2018-10-16 09:45:43 +0000";
layers = (
{
anchors = (
{
name = bottom;
position = "{348, 0}";
},
{
name = top;
position = "{348, 587}";
}
);
background = {
anchors = (
{
name = bottom;
position = "{348.071, 0}";
},
{
name = top;
position = "{348.071, 587}";
}
);
paths = (
{
closed = 1;
nodes = (
"430.5 -9 OFFCURVE",
"489 8.679 OFFCURVE",
"537.786 31.75 CURVE",
"565.321 154.036 LINE",
"529.536 158.107 LINE",
"481.357 61.786 LINE",
"445.25 44.179 OFFCURVE",
"415.821 36.107 OFFCURVE",
"368.714 36.107 CURVE SMOOTH",
"239.286 36.107 OFFCURVE",
"134.786 127.643 OFFCURVE",
"134.786 306.536 CURVE SMOOTH",
"134.786 432.286 OFFCURVE",
"198.786 552.429 OFFCURVE",
"365.5 552.429 CURVE SMOOTH",
"405.821 552.429 OFFCURVE",
"459.714 542.5 OFFCURVE",
"485.714 523.179 CURVE",
"512.929 433.286 LINE",
"550.036 437.286 LINE",
"543.036 566.393 LINE",
"492.25 586.393 OFFCURVE",
"424.786 596 OFFCURVE",
"374.5 596 CURVE SMOOTH",
"163.714 596 OFFCURVE",
"55.714 445.786 OFFCURVE",
"55.714 291.786 CURVE SMOOTH",
"55.714 89.214 OFFCURVE",
"201.893 -9 OFFCURVE",
"365.679 -9 CURVE SMOOTH"
);
}
);
};
color = -1;
layerId = "1F9E295B-DEDB-4635-AE01-A776835412CD";
paths = (
{
closed = 1;
nodes = (
"431 -9 OFFCURVE",
"489 9 OFFCURVE",
"538 32 CURVE",
"565 154 LINE",
"530 158 LINE",
"481 62 LINE",
"445 44 OFFCURVE",
"416 36 OFFCURVE",
"369 36 CURVE SMOOTH",
"239 36 OFFCURVE",
"134 128 OFFCURVE",
"134 306 CURVE SMOOTH",
"134 432 OFFCURVE",
"199 552 OFFCURVE",
"366 552 CURVE SMOOTH",
"406 552 OFFCURVE",
"460 543 OFFCURVE",
"486 523 CURVE",
"513 433 LINE",
"550 437 LINE",
"543 566 LINE",
"492 586 OFFCURVE",
"425 596 OFFCURVE",
"375 596 CURVE SMOOTH",
"164 596 OFFCURVE",
"56 447 OFFCURVE",
"56 292 CURVE SMOOTH",
"56 89 OFFCURVE",
"202 -9 OFFCURVE",
"365 -9 CURVE SMOOTH"
);
}
);
width = 596;
},
{
anchors = (
{
name = bottom;
position = "{357, 0}";
},
{
name = top;
position = "{357, 587}";
}
);
background = {
anchors = (
{
name = bottom;
position = "{357, 0}";
},
{
name = top;
position = "{357, 587}";
}
);
paths = (
{
closed = 1;
nodes = (
"464 -9 OFFCURVE",
"551 19 OFFCURVE",
"588 46 CURVE",
"617 185 LINE",
"537 193 LINE",
"507 107 LINE",
"493 83 OFFCURVE",
"439 71 OFFCURVE",
"414 71 CURVE SMOOTH",
"318 71 OFFCURVE",
"242 164 OFFCURVE",
"242 309 CURVE SMOOTH",
"242 449 OFFCURVE",
"306 520 OFFCURVE",
"399 520 CURVE SMOOTH",
"429 520 OFFCURVE",
"448 514 OFFCURVE",
"474 505 CURVE",
"514 393 LINE",
"586 397 LINE",
"579 560 LINE",
"540 580 OFFCURVE",
"475 596 OFFCURVE",
"408 596 CURVE SMOOTH",
"209 596 OFFCURVE",
"44 491 OFFCURVE",
"44 280 CURVE SMOOTH",
"44 101 OFFCURVE",
"172 -9 OFFCURVE",
"381 -9 CURVE SMOOTH"
);
}
);
};
color = -1;
layerId = "722FC537-28B1-4F35-B842-D78FAAB5B143";
paths = (
{
closed = 1;
nodes = (
"464 -9 OFFCURVE",
"546 15 OFFCURVE",
"588 46 CURVE",
"617 185 LINE",
"537 193 LINE",
"504 99 LINE",
"481 80 OFFCURVE",
"449 71 OFFCURVE",
"412 71 CURVE SMOOTH",
"318 71 OFFCURVE",
"242 164 OFFCURVE",
"242 309 CURVE SMOOTH",
"242 449 OFFCURVE",
"306 520 OFFCURVE",
"399 520 CURVE SMOOTH",
"425 520 OFFCURVE",
"448 516 OFFCURVE",
"474 505 CURVE",
"514 393 LINE",
"586 397 LINE",
"579 560 LINE",
"540 580 OFFCURVE",
"473 596 OFFCURVE",
"408 596 CURVE SMOOTH",
"209 596 OFFCURVE",
"44 491 OFFCURVE",
"44 280 CURVE SMOOTH",
"44 101 OFFCURVE",
"172 -9 OFFCURVE",
"381 -9 CURVE SMOOTH"
);
}
);
width = 639;
},
{
anchors = (
{
name = bottom;
position = "{351, 0}";
},
{
name = top;
position = "{351, 587}";
}
);
color = -1;
layerId = "76B56D5A-2442-4808-93A9-707A1715678A";
paths = (
{
closed = 1;
nodes = (
"447 -9 OFFCURVE",
"520 14 OFFCURVE",
"562 40 CURVE",
"591 170 LINE",
"531 176 LINE",
"493 85 LINE",
"468 65 OFFCURVE",
"427 54 OFFCURVE",
"391 54 CURVE SMOOTH",
"279 54 OFFCURVE",
"190 147 OFFCURVE",
"190 308 CURVE SMOOTH",
"190 441 OFFCURVE",
"254 535 OFFCURVE",
"382 535 CURVE SMOOTH",
"416 535 OFFCURVE",
"452 527 OFFCURVE",
"478 513 CURVE",
"511 411 LINE",
"567 415 LINE",
"560 563 LINE",
"516 583 OFFCURVE",
"449 596 OFFCURVE",
"391 596 CURVE SMOOTH",
"186 596 OFFCURVE",
"48 470 OFFCURVE",
"48 286 CURVE SMOOTH",
"48 95 OFFCURVE",
"184 -9 OFFCURVE",
"372 -9 CURVE SMOOTH"
);
}
);
width = 616;
}
);
leftKerningGroup = O;
note = C;
rightKerningGroup = C;
unicode = 0043;
},
{
glyphname = D;
lastChange = "2018-10-16 09:45:43 +0000";
layers = (
{
anchors = (
{
name = bottom;
position = "{318, 0}";
},
{
name = center;
position = "{338, 294}";
},
{
name = stroke;
position = "{195, 294}";
},
{
name = top;
position = "{328, 587}";
}
);
background = {
anchors = (
{
name = bottom;
position = "{317.5, 0}";
},
{
name = center;
position = "{337.5, 294}";
},
{
name = stroke;
position = "{194.964, 294}";
},
{
name = top;
position = "{327.5, 587}";
}
);
paths = (
{
closed = 1;
nodes = (
"51.571 554.571 LINE",
"111.179 541.5 LINE",
"115.179 531.571 OFFCURVE",
"118.179 474.357 OFFCURVE",
"118.179 396.75 CURVE SMOOTH",
"118.179 188.786 LINE SMOOTH",
"118.179 120.964 OFFCURVE",
"115.179 58.893 OFFCURVE",
"111.179 45.036 CURVE",
"51.571 32.429 LINE",
"53.107 0 LINE",
"295.714 0 LINE SMOOTH",
"483.857 0 OFFCURVE",
"614.071 123.071 OFFCURVE",
"614.071 299.536 CURVE SMOOTH",
"614.071 481 OFFCURVE",
"491.464 587 OFFCURVE",
"281.321 587 CURVE SMOOTH",
"53.107 587 LINE"
);
},
{
closed = 1;
nodes = (
"213.286 544.5 OFFCURVE",
"241.607 546.964 OFFCURVE",
"268.929 546.964 CURVE SMOOTH",
"452 546.964 OFFCURVE",
"535.75 438.964 OFFCURVE",
"535.75 271.464 CURVE SMOOTH",
"535.75 127.536 OFFCURVE",
"452.857 45.036 OFFCURVE",
"299.857 45.036 CURVE SMOOTH",
"264.071 45.036 OFFCURVE",
"232.071 48.036 OFFCURVE",
"184.036 54.036 CURVE",
"181.036 82.036 OFFCURVE",
"179.036 125.071 OFFCURVE",
"179.036 188.786 CURVE SMOOTH",
"179.036 396.75 LINE SMOOTH",
"179.036 497.464 OFFCURVE",
"181.036 517.25 OFFCURVE",
"181.036 538.571 CURVE"
);
}
);
};
color = -1;
layerId = "1F9E295B-DEDB-4635-AE01-A776835412CD";
paths = (
{
closed = 1;
nodes = (
"54 555 LINE",
"113 542 LINE",
"115 532 OFFCURVE",
"118 474 OFFCURVE",
"118 397 CURVE SMOOTH",
"118 189 LINE SMOOTH",
"118 121 OFFCURVE",
"115 59 OFFCURVE",
"113 45 CURVE",
"54 32 LINE",
"56 0 LINE",
"294 0 LINE SMOOTH",
"482 0 OFFCURVE",
"612 123 OFFCURVE",
"612 300 CURVE SMOOTH",
"612 481 OFFCURVE",
"489 587 OFFCURVE",
"281 587 CURVE SMOOTH",
"56 587 LINE"
);
},
{
closed = 1;
nodes = (
"213 545 OFFCURVE",
"242 547 OFFCURVE",
"269 547 CURVE SMOOTH",
"453 547 OFFCURVE",
"537 439 OFFCURVE",
"537 271 CURVE SMOOTH",
"537 128 OFFCURVE",
"454 44 OFFCURVE",
"300 44 CURVE SMOOTH",
"264 44 OFFCURVE",
"232 47 OFFCURVE",
"183 53 CURVE",
"181 81 OFFCURVE",
"179 124 OFFCURVE",
"179 189 CURVE SMOOTH",
"179 397 LINE SMOOTH",
"179 497 OFFCURVE",
"180 517 OFFCURVE",
"181 539 CURVE"
);
}
);
width = 671;
},
{
anchors = (
{
name = bottom;
position = "{351, 0}";
},
{
name = center;
position = "{371, 294}";
},
{
name = stroke;
position = "{226, 294}";
},
{
name = top;
position = "{361, 587}";
}
);
background = {
anchors = (
{
name = bottom;
position = "{351, 0}";
},
{
name = center;
position = "{371, 294}";
},
{
name = stroke;
position = "{226, 294}";
},
{
name = top;
position = "{361, 587}";
}
);
paths = (
{
closed = 1;
nodes = (
"32 530 LINE",
"98 513 LINE",
"102 507 OFFCURVE",
"105 438 OFFCURVE",
"105 354 CURVE SMOOTH",
"105 234 LINE SMOOTH",
"105 147 OFFCURVE",
"102 81 OFFCURVE",
"98 76 CURVE",
"32 57 LINE",
"36 0 LINE",
"341 0 LINE SMOOTH",
"538 0 OFFCURVE",
"680 127 OFFCURVE",
"680 302 CURVE SMOOTH",
"680 481 OFFCURVE",
"551 587 OFFCURVE",
"333 587 CURVE SMOOTH",
"36 587 LINE"
);
},
{
closed = 1;
nodes = (
"292 516 OFFCURVE",
"310 516 OFFCURVE",
"327 516 CURVE SMOOTH",
"400 516 OFFCURVE",
"498 465 OFFCURVE",
"498 269 CURVE SMOOTH",
"498 130 OFFCURVE",
"450 76 OFFCURVE",
"354 76 CURVE SMOOTH",
"330 76 OFFCURVE",
"298 79 OFFCURVE",
"277 85 CURVE",
"274 113 OFFCURVE",
"272 186 OFFCURVE",
"272 234 CURVE SMOOTH",
"272 354 LINE SMOOTH",
"272 438 OFFCURVE",
"274 503 OFFCURVE",
"274 514 CURVE"
);
}
);
};
color = -1;
layerId = "722FC537-28B1-4F35-B842-D78FAAB5B143";
paths = (
{
closed = 1;
nodes = (
"33 530 LINE",
"98 513 LINE",
"102 507 OFFCURVE",
"105 438 OFFCURVE",
"105 354 CURVE SMOOTH",
"105 234 LINE SMOOTH",
"105 147 OFFCURVE",
"102 81 OFFCURVE",
"98 76 CURVE",
"33 57 LINE",
"36 0 LINE",
"341 0 LINE SMOOTH",
"538 0 OFFCURVE",
"680 127 OFFCURVE",
"680 302 CURVE SMOOTH",
"680 481 OFFCURVE",
"551 587 OFFCURVE",
"333 587 CURVE SMOOTH",
"36 587 LINE"
);
},
{
closed = 1;
nodes = (
"290 515 OFFCURVE",
"310 516 OFFCURVE",
"326 516 CURVE SMOOTH",
"400 516 OFFCURVE",
"498 465 OFFCURVE",
"498 269 CURVE SMOOTH",
"498 130 OFFCURVE",
"450 76 OFFCURVE",
"354 76 CURVE SMOOTH",
"330 76 OFFCURVE",
"298 79 OFFCURVE",
"277 85 CURVE",
"274 113 OFFCURVE",
"272 186 OFFCURVE",
"272 234 CURVE SMOOTH",
"272 354 LINE SMOOTH",
"272 438 OFFCURVE",
"273 501 OFFCURVE",
"274 512 CURVE"
);
}
);
width = 728;
},
{
anchors = (
{
name = bottom;
position = "{334, 0}";
},
{
name = center;
position = "{354, 294}";
},
{
name = stroke;
position = "{209, 294}";
},
{
name = top;
position = "{344, 587}";
}
);
color = -1;
layerId = "76B56D5A-2442-4808-93A9-707A1715678A";
paths = (
{
closed = 1;
nodes = (
"39 541 LINE",
"102 526 LINE",
"106 518 OFFCURVE",
"109 455 OFFCURVE",
"109 373 CURVE SMOOTH",
"109 213 LINE SMOOTH",
"109 135 OFFCURVE",
"106 71 OFFCURVE",
"102 61 CURVE",
"39 46 LINE",
"42 0 LINE",
"318 0 LINE SMOOTH",
"510 0 OFFCURVE",
"648 125 OFFCURVE",
"648 301 CURVE SMOOTH",
"648 481 OFFCURVE",
"522 587 OFFCURVE",
"307 587 CURVE SMOOTH",
"42 587 LINE"
);
},
{
closed = 1;
nodes = (
"253 529 OFFCURVE",
"276 531 OFFCURVE",
"297 531 CURVE SMOOTH",
"422 531 OFFCURVE",
"513 453 OFFCURVE",
"513 270 CURVE SMOOTH",
"513 129 OFFCURVE",
"449 61 OFFCURVE",
"326 61 CURVE SMOOTH",
"298 61 OFFCURVE",
"266 64 OFFCURVE",
"232 70 CURVE",
"229 98 OFFCURVE",
"227 158 OFFCURVE",
"227 213 CURVE SMOOTH",
"227 373 LINE SMOOTH",
"227 466 OFFCURVE",
"229 509 OFFCURVE",
"229 525 CURVE"
);
}
);
width = 699;
}
);
leftKerningGroup = H;
note = D;
rightKerningGroup = O;
unicode = 0044;
},
{
glyphname = E;
lastChange = "2018-10-16 09:45:43 +0000";
layers = (
{
anchors = (
{
name = bottom;
position = "{275, 0}";
},
{
name = ogonek;
position = "{473, 0}";
},
{
name = top;
position = "{275, 587}";
},
{
name = topleft;
position = "{25, 587}";
}
);
background = {
anchors = (
{
name = bottom;
position = "{275.429, 0}";
},
{
name = ogonek;
position = "{473.214, 0}";
},
{
name = top;
position = "{275.429, 587}";
},
{
name = topleft;
position = "{25.071, 587}";
}
);
paths = (
{
closed = 1;
nodes = (
"508.893 133.571 LINE",
"470.929 141.643 LINE",
"420.321 48.964 LINE",
"411.643 46.429 OFFCURVE",
"388.607 44.964 OFFCURVE",
"349.321 44.964 CURVE SMOOTH",
"231.429 44.964 LINE SMOOTH",
"212.393 44.964 OFFCURVE",
"195.25 45.964 OFFCURVE",
"178.571 47.5 CURVE",
"178.036 56.714 OFFCURVE",
"177.036 106.036 OFFCURVE",
"177.036 133.964 CURVE SMOOTH",
"177.036 432.75 LINE SMOOTH",
"177.036 470.464 OFFCURVE",
"178.036 535.357 OFFCURVE",
"178.571 541.107 CURVE",
"198.429 543.107 OFFCURVE",
"213.179 544.107 OFFCURVE",
"237.714 544.107 CURVE SMOOTH",
"370.286 544.107 LINE SMOOTH",
"384.821 544.107 OFFCURVE",
"398.286 543.107 OFFCURVE",
"404.571 541.571 CURVE",
"436.714 459.893 LINE",
"475.679 466.429 LINE",
"458.929 590.536 LINE",
"416.607 586.607 OFFCURVE",
"405.5 587 OFFCURVE",
"384 587 CURVE SMOOTH",
"53.571 587 LINE",
"52.036 554.571 LINE",
"111.643 541.964 LINE",
"115.643 533.5 OFFCURVE",
"117.179 489 OFFCURVE",
"117.179 396.75 CURVE SMOOTH",
"117.179 188.786 LINE SMOOTH",
"117.179 97.536 OFFCURVE",
"115.643 54.5 OFFCURVE",
"111.643 45.036 CURVE",
"52.036 32.429 LINE",
"53.571 0 LINE",
"398.571 0 LINE",
"417.143 0 OFFCURVE",
"428.893 0.393 OFFCURVE",
"471.214 -4.536 CURVE"
);
},
{
closed = 1;
nodes = (
"403.607 207.786 LINE",
"403.607 397.607 LINE",
"368.107 397.607 LINE",
"355.179 327.214 LINE",
"347.643 324.286 OFFCURVE",
"334.429 323.75 OFFCURVE",
"314.286 323.75 CURVE SMOOTH",
"227.143 323.75 LINE SMOOTH",
"211.929 323.75 OFFCURVE",
"192.393 324.286 OFFCURVE",
"165.286 325.286 CURVE",
"165.286 279.179 LINE",
"192.393 280.179 OFFCURVE",
"211.929 280.714 OFFCURVE",
"227.143 280.714 CURVE SMOOTH",
"314.286 280.714 LINE SMOOTH",
"334.429 280.714 OFFCURVE",
"347.643 280.179 OFFCURVE",
"355.179 277.25 CURVE",
"368.107 207.786 LINE"
);
}
);
};
color = -1;
layerId = "1F9E295B-DEDB-4635-AE01-A776835412CD";
paths = (
{
closed = 1;
nodes = (
"509 134 LINE",
"471 142 LINE",
"420 49 LINE",
"412 46 OFFCURVE",
"389 45 OFFCURVE",
"349 45 CURVE SMOOTH",
"231 45 LINE SMOOTH",
"212 45 OFFCURVE",
"195 46 OFFCURVE",
"179 48 CURVE",
"178 57 OFFCURVE",
"177 106 OFFCURVE",
"177 134 CURVE SMOOTH",
"177 433 LINE SMOOTH",
"177 470 OFFCURVE",
"178 535 OFFCURVE",
"179 541 CURVE",
"198 543 OFFCURVE",
"213 544 OFFCURVE",
"238 544 CURVE SMOOTH",
"370 544 LINE SMOOTH",
"385 544 OFFCURVE",
"398 543 OFFCURVE",
"405 542 CURVE",
"437 460 LINE",
"476 466 LINE",
"459 591 LINE",
"417 587 OFFCURVE",
"406 587 OFFCURVE",
"384 587 CURVE SMOOTH",
"56 587 LINE",
"54 555 LINE",
"114 542 LINE",
"116 534 OFFCURVE",
"117 489 OFFCURVE",
"117 397 CURVE SMOOTH",
"117 189 LINE SMOOTH",
"117 98 OFFCURVE",
"116 55 OFFCURVE",
"114 45 CURVE",
"54 32 LINE",
"56 0 LINE",
"399 0 LINE",
"417 0 OFFCURVE",
"429 0 OFFCURVE",
"471 -5 CURVE"
);
},
{
closed = 1;
nodes = (
"404 207 LINE",
"404 398 LINE",
"368 398 LINE",
"355 327 LINE",
"348 324 OFFCURVE",
"334 324 OFFCURVE",
"314 324 CURVE SMOOTH",
"227 324 LINE SMOOTH",
"212 324 OFFCURVE",
"192 324 OFFCURVE",
"165 325 CURVE",
"165 278 LINE",
"192 279 OFFCURVE",
"212 280 OFFCURVE",
"227 280 CURVE SMOOTH",
"314 280 LINE SMOOTH",
"334 280 OFFCURVE",
"348 279 OFFCURVE",
"355 276 CURVE",
"368 207 LINE"
);
}
);
width = 545;
},
{
anchors = (
{
name = bottom;
position = "{305, 0}";
},
{
name = ogonek;
position = "{547, 0}";
},
{
name = top;
position = "{305, 587}";
},
{
name = topleft;
position = "{34, 587}";
}
);
background = {
anchors = (
{
name = bottom;
position = "{305, 0}";
},
{
name = ogonek;
position = "{547, 0}";
},
{
name = top;
position = "{305, 587}";
},
{
name = topleft;
position = "{34, 587}";
}
);
paths = (
{
closed = 1;
nodes = (
"593 166 LINE",
"529 178 LINE",
"472 75 LINE",
"453 71 OFFCURVE",
"457 71 OFFCURVE",
"401 71 CURVE SMOOTH",
"375 71 LINE SMOOTH",
"325 71 OFFCURVE",
"300 72 OFFCURVE",
"273 76 CURVE",
"271 97 OFFCURVE",
"270 137 OFFCURVE",
"270 217 CURVE SMOOTH",
"270 390 LINE SMOOTH",
"270 468 OFFCURVE",
"271 499 OFFCURVE",
"273 519 CURVE",
"285 521 OFFCURVE",
"314 522 OFFCURVE",
"340 522 CURVE SMOOTH",
"392 522 LINE SMOOTH",
"408 522 OFFCURVE",
"420 521 OFFCURVE",
"442 517 CURVE",
"482 425 LINE",
"548 434 LINE",
"517 593 LINE",
"485 593 OFFCURVE",
"382 587 OFFCURVE",
"332 587 CURVE SMOOTH",
"34 587 LINE",
"31 530 LINE",
"96 511 LINE",
"100 505 OFFCURVE",
"104 432 OFFCURVE",
"104 354 CURVE SMOOTH",
"104 234 LINE SMOOTH",
"104 157 OFFCURVE",
"100 83 OFFCURVE",
"96 76 CURVE",
"31 57 LINE",
"34 0 LINE",
"379 0 LINE",
"430 0 OFFCURVE",
"513 -6 OFFCURVE",
"545 -7 CURVE"
);
},
{
closed = 1;
nodes = (
"472 196 LINE",
"472 404 LINE",
"408 404 LINE",
"399 339 LINE",
"389 341 OFFCURVE",
"364 338 OFFCURVE",
"336 338 CURVE SMOOTH",
"297 338 LINE SMOOTH",
"270 338 OFFCURVE",
"248 341 OFFCURVE",
"244 342 CURVE",
"244 261 LINE",
"248 262 OFFCURVE",
"270 264 OFFCURVE",
"297 264 CURVE SMOOTH",
"336 264 LINE SMOOTH",
"364 264 OFFCURVE",
"389 262 OFFCURVE",
"399 263 CURVE",
"408 196 LINE"
);
}
);
};
color = -1;
layerId = "722FC537-28B1-4F35-B842-D78FAAB5B143";
paths = (
{
closed = 1;
nodes = (
"593 166 LINE",
"529 178 LINE",
"472 75 LINE",
"453 71 OFFCURVE",
"457 71 OFFCURVE",
"401 71 CURVE SMOOTH",
"375 71 LINE SMOOTH",
"325 71 OFFCURVE",
"300 72 OFFCURVE",
"273 76 CURVE",
"271 97 OFFCURVE",
"270 137 OFFCURVE",
"270 217 CURVE SMOOTH",
"270 390 LINE SMOOTH",
"270 468 OFFCURVE",
"271 499 OFFCURVE",
"273 519 CURVE",
"285 521 OFFCURVE",
"314 522 OFFCURVE",
"340 522 CURVE SMOOTH",
"392 522 LINE SMOOTH",
"408 522 OFFCURVE",
"420 521 OFFCURVE",
"442 517 CURVE",
"482 425 LINE",
"548 434 LINE",
"517 593 LINE",
"485 591 OFFCURVE",
"382 587 OFFCURVE",
"332 587 CURVE SMOOTH",
"34 587 LINE",
"31 530 LINE",
"96 511 LINE",
"100 505 OFFCURVE",
"104 432 OFFCURVE",
"104 354 CURVE SMOOTH",
"104 234 LINE SMOOTH",
"104 157 OFFCURVE",
"100 83 OFFCURVE",
"96 76 CURVE",
"31 57 LINE",
"34 0 LINE",
"379 0 LINE",
"430 0 OFFCURVE",
"513 -6 OFFCURVE",
"545 -7 CURVE"
);
},
{
closed = 1;
nodes = (
"472 196 LINE",
"472 404 LINE",
"408 404 LINE",
"399 339 LINE",
"389 339 OFFCURVE",
"364 338 OFFCURVE",
"336 338 CURVE SMOOTH",
"297 338 LINE SMOOTH",
"270 338 OFFCURVE",
"248 341 OFFCURVE",
"244 342 CURVE",
"244 261 LINE",
"248 262 OFFCURVE",
"270 264 OFFCURVE",
"297 264 CURVE SMOOTH",
"336 264 LINE SMOOTH",
"364 264 OFFCURVE",
"389 263 OFFCURVE",
"399 263 CURVE",
"408 196 LINE"
);
}
);
width = 602;
},
{
anchors = (
{
name = bottom;
position = "{289, 0}";
},
{
name = ogonek;
position = "{511, 0}";
},
{
name = top;
position = "{289, 587}";
},
{
name = topleft;
position = "{28, 587}";
}
);
color = -1;
layerId = "76B56D5A-2442-4808-93A9-707A1715678A";
paths = (
{
closed = 1;
nodes = (
"553 151 LINE",
"500 161 LINE",
"446 63 LINE",
"432 60 OFFCURVE",
"423 59 OFFCURVE",
"375 59 CURVE SMOOTH",
"307 59 LINE SMOOTH",
"271 59 OFFCURVE",
"249 60 OFFCURVE",
"227 63 CURVE",
"226 79 OFFCURVE",
"225 122 OFFCURVE",
"225 179 CURVE SMOOTH",
"225 409 LINE SMOOTH",
"225 469 OFFCURVE",
"226 516 OFFCURVE",
"227 529 CURVE",
"243 531 OFFCURVE",
"265 532 OFFCURVE",
"291 532 CURVE SMOOTH",
"379 532 LINE SMOOTH",
"395 532 OFFCURVE",
"407 531 OFFCURVE",
"423 528 CURVE",
"459 442 LINE",
"512 449 LINE",
"488 592 LINE",
"451 590 OFFCURVE",
"390 587 OFFCURVE",
"354 587 CURVE SMOOTH",
"40 587 LINE",
"38 541 LINE",
"101 526 LINE",
"105 518 OFFCURVE",
"108 459 OFFCURVE",
"108 373 CURVE SMOOTH",
"108 213 LINE SMOOTH",
"108 129 OFFCURVE",
"105 70 OFFCURVE",
"101 61 CURVE",
"38 46 LINE",
"40 0 LINE",
"385 0 LINE",
"422 0 OFFCURVE",
"473 -3 OFFCURVE",
"509 -6 CURVE"
);
},
{
closed = 1;
nodes = (
"438 202 LINE",
"438 401 LINE",
"387 401 LINE",
"377 333 LINE",
"368 333 OFFCURVE",
"348 332 OFFCURVE",
"323 332 CURVE SMOOTH",
"263 332 LINE SMOOTH",
"241 332 OFFCURVE",
"220 333 OFFCURVE",
"205 334 CURVE",
"205 269 LINE",
"220 270 OFFCURVE",
"241 272 OFFCURVE",
"263 272 CURVE SMOOTH",
"323 272 LINE SMOOTH",
"348 272 OFFCURVE",
"368 270 OFFCURVE",
"377 269 CURVE",
"387 202 LINE"
);
}
);
width = 574;
}
);
leftKerningGroup = H;
note = E;
rightKerningGroup = E;
unicode = 0045;
},
{
glyphname = Eogonek;
lastChange = "2018-10-16 09:45:43 +0000";
layers = (
{
anchors = (
{
name = bottom;
position = "{275, 0}";
},
{
name = top;
position = "{275, 587}";
},
{
name = topleft;
position = "{25, 587}";
}
);
background = {
anchors = (
{
name = bottom;
position = "{275.429, 0}";
},
{
name = top;
position = "{275.429, 587}";
},
{
name = topleft;
position = "{25.071, 587}";
}
);
paths = (
{
closed = 1;
nodes = (
"460.821 -223 OFFCURVE",
"496.893 -204.536 OFFCURVE",
"523.964 -173 CURVE",
"504.75 -151.571 LINE",
"480.75 -176.036 OFFCURVE",
"458.75 -187.036 OFFCURVE",
"435.286 -187.036 CURVE SMOOTH",
"398.893 -187.036 OFFCURVE",
"374.5 -163.571 OFFCURVE",
"374.5 -126.179 CURVE SMOOTH",
"374.5 -80.857 OFFCURVE",
"407.893 -38.464 OFFCURVE",
"473.214 0 CURVE",
"508.893 133.571 LINE",
"470.929 141.643 LINE",
"420.321 48.964 LINE",
"411.643 46.429 OFFCURVE",
"388.607 44.964 OFFCURVE",
"349.321 44.964 CURVE SMOOTH",
"231.429 44.964 LINE SMOOTH",
"212.393 44.964 OFFCURVE",
"195.25 45.964 OFFCURVE",
"178.571 47.5 CURVE",
"178.036 56.714 OFFCURVE",
"177.036 106.036 OFFCURVE",
"177.036 133.964 CURVE SMOOTH",
"177.036 432.75 LINE SMOOTH",
"177.036 470.464 OFFCURVE",
"178.036 535.357 OFFCURVE",
"178.571 541.107 CURVE",
"198.429 543.107 OFFCURVE",
"213.179 544.107 OFFCURVE",
"237.714 544.107 CURVE SMOOTH",
"370.286 544.107 LINE SMOOTH",
"384.821 544.107 OFFCURVE",
"398.286 543.107 OFFCURVE",
"404.571 541.571 CURVE",
"436.714 459.893 LINE",
"475.679 466.429 LINE",
"458.929 590.536 LINE",
"416.607 586.607 OFFCURVE",
"405.5 587 OFFCURVE",
"384 587 CURVE SMOOTH",
"53.571 587 LINE",
"52.036 554.571 LINE",
"111.643 541.964 LINE",
"115.643 533.5 OFFCURVE",
"117.179 489 OFFCURVE",
"117.179 396.75 CURVE SMOOTH",
"117.179 188.786 LINE SMOOTH",
"117.179 97.536 OFFCURVE",
"115.643 54.5 OFFCURVE",
"111.643 45.036 CURVE",
"52.036 32.429 LINE",
"53.571 0 LINE",
"420.179 0 LINE",
"356.5 -38.393 OFFCURVE",
"317.036 -85.786 OFFCURVE",
"317.036 -136.643 CURVE SMOOTH",
"317.036 -187.786 OFFCURVE",
"359.857 -223 OFFCURVE",
"423.607 -223 CURVE SMOOTH"
);
},
{
closed = 1;
nodes = (
"403.607 207.786 LINE",
"403.607 397.607 LINE",
"368.107 397.607 LINE",
"355.179 327.214 LINE",
"347.643 324.286 OFFCURVE",
"334.429 323.75 OFFCURVE",
"314.286 323.75 CURVE SMOOTH",
"227.143 323.75 LINE SMOOTH",
"211.929 323.75 OFFCURVE",
"192.393 324.286 OFFCURVE",
"165.286 325.286 CURVE",
"165.286 279.179 LINE",
"192.393 280.179 OFFCURVE",
"211.929 280.714 OFFCURVE",
"227.143 280.714 CURVE SMOOTH",
"314.286 280.714 LINE SMOOTH",
"334.429 280.714 OFFCURVE",
"347.643 280.179 OFFCURVE",
"355.179 277.25 CURVE",
"368.107 207.786 LINE"
);
}
);
};
color = -1;
layerId = "1F9E295B-DEDB-4635-AE01-A776835412CD";
paths = (
{
closed = 1;
nodes = (
"461 -223 OFFCURVE",
"497 -205 OFFCURVE",
"524 -173 CURVE",
"505 -152 LINE",
"481 -176 OFFCURVE",
"459 -187 OFFCURVE",
"435 -187 CURVE SMOOTH",
"399 -187 OFFCURVE",
"375 -164 OFFCURVE",
"375 -126 CURVE SMOOTH",
"375 -81 OFFCURVE",
"408 -38 OFFCURVE",
"473 0 CURVE",
"509 134 LINE",
"471 142 LINE",
"420 49 LINE",
"412 46 OFFCURVE",
"389 45 OFFCURVE",
"349 45 CURVE SMOOTH",
"231 45 LINE SMOOTH",
"212 45 OFFCURVE",
"195 46 OFFCURVE",
"179 48 CURVE",
"178 57 OFFCURVE",
"177 106 OFFCURVE",
"177 134 CURVE SMOOTH",
"177 433 LINE SMOOTH",
"177 470 OFFCURVE",
"178 535 OFFCURVE",
"179 541 CURVE",
"198 543 OFFCURVE",
"213 544 OFFCURVE",
"238 544 CURVE SMOOTH",
"370 544 LINE SMOOTH",
"385 544 OFFCURVE",
"398 543 OFFCURVE",
"405 542 CURVE",
"437 460 LINE",
"476 466 LINE",
"459 591 LINE",
"417 587 OFFCURVE",
"406 587 OFFCURVE",
"384 587 CURVE SMOOTH",
"56 587 LINE",
"54 555 LINE",
"114 542 LINE",
"116 534 OFFCURVE",
"117 489 OFFCURVE",
"117 397 CURVE SMOOTH",
"117 189 LINE SMOOTH",
"117 98 OFFCURVE",
"116 55 OFFCURVE",
"114 45 CURVE",
"54 32 LINE",
"56 0 LINE",
"420 0 LINE",
"357 -38 OFFCURVE",
"317 -86 OFFCURVE",
"317 -137 CURVE SMOOTH",
"317 -188 OFFCURVE",
"360 -223 OFFCURVE",
"424 -223 CURVE SMOOTH"
);
},
{
closed = 1;
nodes = (
"404 207 LINE",
"404 398 LINE",
"368 398 LINE",
"355 327 LINE",
"348 324 OFFCURVE",
"334 324 OFFCURVE",
"314 324 CURVE SMOOTH",
"227 324 LINE SMOOTH",
"212 324 OFFCURVE",
"192 324 OFFCURVE",
"165 325 CURVE",
"165 278 LINE",
"192 279 OFFCURVE",
"212 280 OFFCURVE",
"227 280 CURVE SMOOTH",
"314 280 LINE SMOOTH",
"334 280 OFFCURVE",
"348 279 OFFCURVE",
"355 276 CURVE",
"368 207 LINE"
);
}
);
width = 545;
},
{
anchors = (
{
name = bottom;
position = "{305, 0}";
},
{
name = top;
position = "{305, 587}";
},
{
name = topleft;
position = "{34, 587}";
}
);
background = {
anchors = (
{
name = bottom;
position = "{305, 0}";
},
{
name = top;
position = "{305, 587}";
},
{
name = topleft;
position = "{34, 587}";
}
);
paths = (
{
closed = 1;
nodes = (
"541 -223 OFFCURVE",
"581 -207 OFFCURVE",
"612 -173 CURVE",
"581 -127 LINE",
"557 -150 OFFCURVE",
"535 -161 OFFCURVE",
"514 -161 CURVE SMOOTH",
"483 -161 OFFCURVE",
"465 -139 OFFCURVE",
"465 -108 CURVE SMOOTH",
"465 -73 OFFCURVE",
"492 -36 OFFCURVE",
"547 0 CURVE",
"593 166 LINE",
"529 178 LINE",
"472 75 LINE",
"453 71 OFFCURVE",
"457 71 OFFCURVE",
"401 71 CURVE SMOOTH",
"375 71 LINE SMOOTH",
"325 71 OFFCURVE",
"300 72 OFFCURVE",
"273 76 CURVE",
"271 97 OFFCURVE",
"270 137 OFFCURVE",
"270 217 CURVE SMOOTH",
"270 390 LINE SMOOTH",
"270 468 OFFCURVE",
"271 499 OFFCURVE",
"273 519 CURVE",
"285 521 OFFCURVE",
"314 522 OFFCURVE",
"340 522 CURVE SMOOTH",
"392 522 LINE SMOOTH",
"408 522 OFFCURVE",
"420 521 OFFCURVE",
"442 517 CURVE",
"482 425 LINE",
"548 434 LINE",
"517 593 LINE",
"485 593 OFFCURVE",
"382 587 OFFCURVE",
"332 587 CURVE SMOOTH",
"34 587 LINE",
"31 530 LINE",
"96 511 LINE",
"100 505 OFFCURVE",
"104 432 OFFCURVE",
"104 354 CURVE SMOOTH",
"104 234 LINE SMOOTH",
"104 157 OFFCURVE",
"100 83 OFFCURVE",
"96 76 CURVE",
"31 57 LINE",
"34 0 LINE",
"464 0 LINE",
"390 -32 OFFCURVE",
"353 -74 OFFCURVE",
"353 -116 CURVE SMOOTH",
"353 -176 OFFCURVE",
"414 -223 OFFCURVE",
"492 -223 CURVE SMOOTH"
);
},
{
closed = 1;
nodes = (
"472 196 LINE",
"472 404 LINE",
"408 404 LINE",
"399 339 LINE",
"389 341 OFFCURVE",
"364 338 OFFCURVE",
"336 338 CURVE SMOOTH",
"297 338 LINE SMOOTH",
"270 338 OFFCURVE",
"248 341 OFFCURVE",
"244 342 CURVE",
"244 261 LINE",
"248 262 OFFCURVE",
"270 264 OFFCURVE",
"297 264 CURVE SMOOTH",
"336 264 LINE SMOOTH",
"364 264 OFFCURVE",
"389 262 OFFCURVE",
"399 263 CURVE",
"408 196 LINE"
);
}
);
};
color = -1;
layerId = "722FC537-28B1-4F35-B842-D78FAAB5B143";
paths = (
{
closed = 1;
nodes = (
"541 -223 OFFCURVE",
"581 -207 OFFCURVE",
"612 -173 CURVE",
"581 -127 LINE",
"557 -150 OFFCURVE",
"535 -161 OFFCURVE",
"514 -161 CURVE SMOOTH",
"483 -161 OFFCURVE",
"465 -139 OFFCURVE",
"465 -108 CURVE SMOOTH",
"465 -73 OFFCURVE",
"492 -36 OFFCURVE",
"547 0 CURVE",
"593 166 LINE",
"529 178 LINE",
"472 75 LINE",
"453 71 OFFCURVE",
"457 71 OFFCURVE",
"401 71 CURVE SMOOTH",
"375 71 LINE SMOOTH",
"325 71 OFFCURVE",
"300 72 OFFCURVE",
"273 76 CURVE",
"271 97 OFFCURVE",
"270 137 OFFCURVE",
"270 217 CURVE SMOOTH",
"270 390 LINE SMOOTH",
"270 468 OFFCURVE",
"271 499 OFFCURVE",
"273 519 CURVE",
"285 521 OFFCURVE",
"314 522 OFFCURVE",
"340 522 CURVE SMOOTH",
"392 522 LINE SMOOTH",
"408 522 OFFCURVE",
"420 521 OFFCURVE",
"442 517 CURVE",
"482 425 LINE",
"548 434 LINE",
"517 593 LINE",
"485 591 OFFCURVE",
"382 587 OFFCURVE",
"332 587 CURVE SMOOTH",
"34 587 LINE",
"31 530 LINE",
"96 511 LINE",
"100 505 OFFCURVE",
"104 432 OFFCURVE",
"104 354 CURVE SMOOTH",
"104 234 LINE SMOOTH",
"104 157 OFFCURVE",
"100 83 OFFCURVE",
"96 76 CURVE",
"31 57 LINE",
"34 0 LINE",
"464 0 LINE",
"390 -32 OFFCURVE",
"353 -74 OFFCURVE",
"353 -116 CURVE SMOOTH",
"353 -176 OFFCURVE",
"414 -223 OFFCURVE",
"492 -223 CURVE SMOOTH"
);
},
{
closed = 1;
nodes = (
"472 196 LINE",
"472 404 LINE",
"408 404 LINE",
"399 339 LINE",
"389 339 OFFCURVE",
"364 338 OFFCURVE",
"336 338 CURVE SMOOTH",
"297 338 LINE SMOOTH",
"270 338 OFFCURVE",
"248 341 OFFCURVE",
"244 342 CURVE",
"244 261 LINE",
"248 262 OFFCURVE",
"270 264 OFFCURVE",
"297 264 CURVE SMOOTH",
"336 264 LINE SMOOTH",
"364 264 OFFCURVE",
"389 263 OFFCURVE",
"399 263 CURVE",
"408 196 LINE"
);
}
);
width = 602;
},
{
anchors = (
{
name = bottom;
position = "{289, 0}";
},
{
name = top;
position = "{289, 587}";
},
{
name = topleft;
position = "{28, 587}";
}
);
color = -1;
layerId = "76B56D5A-2442-4808-93A9-707A1715678A";
paths = (
{
closed = 1;
nodes = (
"501 -223 OFFCURVE",
"541 -206 OFFCURVE",
"570 -173 CURVE",
"543 -138 LINE",
"519 -162 OFFCURVE",
"497 -173 OFFCURVE",
"475 -173 CURVE SMOOTH",
"443 -173 OFFCURVE",
"421 -150 OFFCURVE",
"421 -116 CURVE SMOOTH",
"421 -77 OFFCURVE",
"452 -37 OFFCURVE",
"511 0 CURVE",
"553 151 LINE",
"500 161 LINE",
"446 63 LINE",
"432 60 OFFCURVE",
"423 59 OFFCURVE",
"375 59 CURVE SMOOTH",
"307 59 LINE SMOOTH",
"271 59 OFFCURVE",
"249 60 OFFCURVE",
"227 63 CURVE",
"226 79 OFFCURVE",
"225 122 OFFCURVE",
"225 179 CURVE SMOOTH",
"225 409 LINE SMOOTH",
"225 469 OFFCURVE",
"226 516 OFFCURVE",
"227 529 CURVE",
"243 531 OFFCURVE",
"265 532 OFFCURVE",
"291 532 CURVE SMOOTH",
"379 532 LINE SMOOTH",
"395 532 OFFCURVE",
"407 531 OFFCURVE",
"423 528 CURVE",
"459 442 LINE",
"512 449 LINE",
"488 592 LINE",
"451 590 OFFCURVE",
"390 587 OFFCURVE",
"354 587 CURVE SMOOTH",
"40 587 LINE",
"38 541 LINE",
"101 526 LINE",
"105 518 OFFCURVE",
"108 459 OFFCURVE",
"108 373 CURVE SMOOTH",
"108 213 LINE SMOOTH",
"108 129 OFFCURVE",
"105 70 OFFCURVE",
"101 61 CURVE",
"38 46 LINE",
"40 0 LINE",
"442 0 LINE",
"373 -35 OFFCURVE",
"334 -80 OFFCURVE",
"334 -125 CURVE SMOOTH",
"334 -182 OFFCURVE",
"386 -223 OFFCURVE",
"458 -223 CURVE SMOOTH"
);
},
{
closed = 1;
nodes = (
"438 202 LINE",
"438 401 LINE",
"387 401 LINE",
"377 333 LINE",
"368 333 OFFCURVE",
"348 332 OFFCURVE",
"323 332 CURVE SMOOTH",
"263 332 LINE SMOOTH",
"241 332 OFFCURVE",
"220 333 OFFCURVE",
"205 334 CURVE",
"205 269 LINE",
"220 270 OFFCURVE",
"241 272 OFFCURVE",
"263 272 CURVE SMOOTH",
"323 272 LINE SMOOTH",
"348 272 OFFCURVE",
"368 270 OFFCURVE",
"377 269 CURVE",
"387 202 LINE"
);
}
);
width = 574;
}
);
leftKerningGroup = H;
leftMetricsKey = E;
widthMetricsKey = E;
note = Eogonek;
rightKerningGroup = E;
unicode = 0118;
},
{
glyphname = F;
lastChange = "2018-10-16 09:45:43 +0000";
layers = (
{
anchors = (
{
name = bottom;
position = "{150, 0}";
},
{
name = top;
position = "{260, 587}";
}
);
background = {
anchors = (
{
name = bottom;
position = "{150.036, 0}";
},
{
name = top;
position = "{260.071, 587}";
}
);
paths = (
{
closed = 1;
nodes = (
"264.5 0 LINE",
"266.036 34.429 LINE",
"185.036 45.036 LINE",
"179.107 53.036 OFFCURVE",
"178.036 82.75 OFFCURVE",
"178.036 205.143 CURVE",
"177.036 406.393 LINE",
"177.036 453.607 OFFCURVE",
"178.5 531.964 OFFCURVE",
"179.5 542.036 CURVE",
"193.5 542.107 OFFCURVE",
"221.893 544.107 OFFCURVE",
"240.5 544.107 CURVE SMOOTH",
"368.679 544.107 LINE SMOOTH",
"383.214 544.107 OFFCURVE",
"396.679 543.107 OFFCURVE",
"402.964 541.571 CURVE",
"435.107 459.893 LINE",
"474.071 466.429 LINE",
"457.321 590.536 LINE",
"415 586.607 OFFCURVE",
"403.893 587 OFFCURVE",
"382.857 587 CURVE SMOOTH",
"53.107 587 LINE",
"51.571 554.571 LINE",
"111.179 540.5 LINE",
"116.643 533.5 OFFCURVE",
"118.179 502.179 OFFCURVE",
"118.179 423.107 CURVE",
"117.179 181.464 LINE",
"117.179 85.821 OFFCURVE",
"115.643 53.036 OFFCURVE",
"110.179 45.036 CURVE",
"54.571 32.429 LINE",
"56.107 0 LINE"
);
},
{
closed = 1;
nodes = (
"402 202.179 LINE",
"402 394.536 LINE",
"366.964 394.536 LINE",
"353.036 325.143 LINE",
"345.5 320.75 OFFCURVE",
"334.75 320.679 OFFCURVE",
"307.75 320.679 CURVE SMOOTH",
"212.214 320.679 LINE SMOOTH",
"197 320.679 OFFCURVE",
"180.393 322.214 OFFCURVE",
"163.464 323.214 CURVE",
"163.464 277.571 LINE",
"189.179 278.571 OFFCURVE",
"202.857 279.107 OFFCURVE",
"212.214 279.107 CURVE SMOOTH",
"307.75 279.107 LINE SMOOTH",
"340.929 279.107 OFFCURVE",
"350.214 278.107 OFFCURVE",
"353.036 274.643 CURVE",
"366.964 202.179 LINE"
);
}
);
};
color = -1;
layerId = "1F9E295B-DEDB-4635-AE01-A776835412CD";
paths = (
{
closed = 1;
nodes = (
"262 0 LINE",
"264 34 LINE",
"183 45 LINE",
"179 53 OFFCURVE",
"178 81 OFFCURVE",
"178 203 CURVE",
"177 416 LINE",
"177 464 OFFCURVE",
"177 532 OFFCURVE",
"178 542 CURVE",
"192 543 OFFCURVE",
"222 544 OFFCURVE",
"241 544 CURVE SMOOTH",
"369 544 LINE SMOOTH",
"383 544 OFFCURVE",
"397 543 OFFCURVE",
"403 542 CURVE",
"435 460 LINE",
"474 466 LINE",
"457 591 LINE",
"415 587 OFFCURVE",
"404 587 OFFCURVE",
"383 587 CURVE SMOOTH",
"56 587 LINE",
"54 555 LINE",
"113 541 LINE",
"117 534 OFFCURVE",
"118 502 OFFCURVE",
"118 423 CURVE",
"117 181 LINE",
"117 86 OFFCURVE",
"116 53 OFFCURVE",
"112 45 CURVE",
"57 32 LINE",
"59 0 LINE"
);
},
{
closed = 1;
nodes = (
"402 200 LINE",
"402 395 LINE",
"367 395 LINE",
"353 325 LINE",
"346 322 OFFCURVE",
"335 321 OFFCURVE",
"308 321 CURVE SMOOTH",
"212 321 LINE SMOOTH",
"197 321 OFFCURVE",
"180 322 OFFCURVE",
"163 323 CURVE",
"163 276 LINE",
"189 277 OFFCURVE",
"203 277 OFFCURVE",
"212 277 CURVE SMOOTH",
"308 277 LINE SMOOTH",
"331 277 OFFCURVE",
"348 276 OFFCURVE",
"353 273 CURVE",
"367 200 LINE"
);
}
);
width = 492;
},
{
anchors = (
{
name = bottom;
position = "{186, 0}";
},
{
name = top;
position = "{269, 587}";
}
);
background = {
anchors = (
{
name = bottom;
position = "{186, 0}";
},
{
name = top;
position = "{269, 587}";
}
);
paths = (
{
closed = 1;
nodes = (
"355 0 LINE",
"359 59 LINE",
"278 76 LINE",
"276 84 OFFCURVE",
"271 154 OFFCURVE",
"271 156 CURVE",
"270 400 LINE",
"270 517 OFFCURVE",
"269 501 OFFCURVE",
"270 516 CURVE",
"284 520 OFFCURVE",
"306 522 OFFCURVE",
"331 522 CURVE SMOOTH",
"384 522 LINE SMOOTH",
"400 522 OFFCURVE",
"412 521 OFFCURVE",
"434 517 CURVE",
"475 425 LINE",
"540 434 LINE",
"509 593 LINE",
"477 593 OFFCURVE",
"374 587 OFFCURVE",
"323 587 CURVE SMOOTH",
"36 587 LINE",
"32 530 LINE",
"98 512 LINE",
"101 505 OFFCURVE",
"105 427 OFFCURVE",
"105 344 CURVE",
"104 236 LINE",
"104 161 OFFCURVE",
"100 84 OFFCURVE",
"97 76 CURVE",
"35 57 LINE",
"39 0 LINE"
);
},
{
closed = 1;
nodes = (
"464 184 LINE",
"464 397 LINE",
"398 397 LINE",
"389 333 LINE",
"379 335 OFFCURVE",
"354 331 OFFCURVE",
"327 331 CURVE SMOOTH",
"286 331 LINE SMOOTH",
"259 331 OFFCURVE",
"236 334 OFFCURVE",
"223 335 CURVE",
"223 253 LINE",
"233 254 OFFCURVE",
"257 257 OFFCURVE",
"286 257 CURVE SMOOTH",
"327 257 LINE SMOOTH",
"342 257 OFFCURVE",
"367 256 OFFCURVE",
"389 254 CURVE",
"398 184 LINE"
);
}
);
};
color = -1;
layerId = "722FC537-28B1-4F35-B842-D78FAAB5B143";
paths = (
{
closed = 1;
nodes = (
"356 0 LINE",
"359 59 LINE",
"278 76 LINE",
"276 84 OFFCURVE",
"271 154 OFFCURVE",
"271 156 CURVE",
"270 400 LINE",
"270 517 OFFCURVE",
"269 501 OFFCURVE",
"270 516 CURVE",
"284 520 OFFCURVE",
"306 522 OFFCURVE",
"331 522 CURVE SMOOTH",
"384 522 LINE SMOOTH",
"400 522 OFFCURVE",
"412 521 OFFCURVE",
"434 517 CURVE",
"475 425 LINE",
"540 434 LINE",
"509 593 LINE",
"477 591 OFFCURVE",
"374 587 OFFCURVE",
"323 587 CURVE SMOOTH",
"36 587 LINE",
"33 530 LINE",
"98 512 LINE",
"101 505 OFFCURVE",
"105 427 OFFCURVE",
"105 344 CURVE",
"104 236 LINE",
"104 161 OFFCURVE",
"100 84 OFFCURVE",
"97 76 CURVE",
"35 57 LINE",
"38 0 LINE"
);
},
{
closed = 1;
nodes = (
"464 184 LINE",
"464 397 LINE",
"398 397 LINE",
"389 333 LINE",
"379 333 OFFCURVE",
"354 331 OFFCURVE",
"327 331 CURVE SMOOTH",
"286 331 LINE SMOOTH",
"259 331 OFFCURVE",
"236 334 OFFCURVE",
"223 335 CURVE",
"223 253 LINE",
"233 254 OFFCURVE",
"257 257 OFFCURVE",
"286 257 CURVE SMOOTH",
"327 257 LINE SMOOTH",
"342 257 OFFCURVE",
"367 256 OFFCURVE",
"389 254 CURVE",
"398 184 LINE"
);
}
);
width = 567;
},
{
anchors = (
{
name = bottom;
position = "{167, 0}";
},
{
name = top;
position = "{263, 587}";
}
);
color = -1;
layerId = "76B56D5A-2442-4808-93A9-707A1715678A";
paths = (
{
closed = 1;
nodes = (
"311 0 LINE",
"314 48 LINE",
"233 61 LINE",
"229 69 OFFCURVE",
"226 121 OFFCURVE",
"226 179 CURVE",
"225 403 LINE",
"225 488 OFFCURVE",
"225 516 OFFCURVE",
"226 528 CURVE",
"240 530 OFFCURVE",
"266 532 OFFCURVE",
"287 532 CURVE SMOOTH",
"375 532 LINE SMOOTH",
"390 532 OFFCURVE",
"403 531 OFFCURVE",
"417 528 CURVE",
"454 442 LINE",
"508 449 LINE",
"483 592 LINE",
"447 590 OFFCURVE",
"386 587 OFFCURVE",
"348 587 CURVE SMOOTH",
"42 587 LINE",
"39 541 LINE",
"102 525 LINE",
"106 518 OFFCURVE",
"109 462 OFFCURVE",
"109 380 CURVE",
"108 211 LINE",
"108 126 OFFCURVE",
"105 69 OFFCURVE",
"101 61 CURVE",
"42 46 LINE",
"45 0 LINE"
);
},
{
closed = 1;
nodes = (
"434 192 LINE",
"434 396 LINE",
"381 396 LINE",
"370 329 LINE",
"362 328 OFFCURVE",
"343 326 OFFCURVE",
"316 326 CURVE SMOOTH",
"250 326 LINE SMOOTH",
"229 326 OFFCURVE",
"208 328 OFFCURVE",
"194 329 CURVE",
"194 264 LINE",
"211 265 OFFCURVE",
"229 267 OFFCURVE",
"250 267 CURVE SMOOTH",
"316 267 LINE SMOOTH",
"339 267 OFFCURVE",
"357 266 OFFCURVE",
"370 263 CURVE",
"381 192 LINE"
);
}
);
width = 527;
}
);
leftKerningGroup = H;
note = F;
rightKerningGroup = F;
unicode = 0046;
},
{
glyphname = G;
lastChange = "2018-10-16 09:45:43 +0000";
layers = (
{
anchors = (
{
name = bottom;
position = "{353, 0}";
},
{
name = top;
position = "{353, 587}";
}
);
background = {
anchors = (
{
name = bottom;
position = "{352.929, 0}";
},
{
name = top;
position = "{352.929, 587}";
}
);
paths = (
{
closed = 1;
nodes = (
"437.607 -9 OFFCURVE",
"518.536 13.393 OFFCURVE",
"567.75 46.464 CURVE",
"565.75 75.429 OFFCURVE",
"564.75 104.357 OFFCURVE",
"564.75 164.286 CURVE SMOOTH",
"564.75 203.071 OFFCURVE",
"565.214 225.893 OFFCURVE",
"565.286 231.964 CURVE",
"606.5 241.643 LINE",
"604.964 274.071 LINE",
"436.357 274.071 LINE",
"434.821 239.643 LINE",
"501.429 230.964 LINE",
"503.429 214.429 OFFCURVE",
"504.964 178.429 OFFCURVE",
"504.964 128 CURVE SMOOTH",
"504.964 23.464 LINE",
"532.214 80.393 LINE",
"489.25 48.429 OFFCURVE",
"427.643 35.107 OFFCURVE",
"381.357 35.107 CURVE SMOOTH",
"239.214 35.107 OFFCURVE",
"133.714 127.643 OFFCURVE",
"133.714 306.536 CURVE SMOOTH",
"133.714 432.286 OFFCURVE",
"198.25 552.429 OFFCURVE",
"369.893 552.429 CURVE SMOOTH",
"413.393 552.429 OFFCURVE",
"466.893 542.571 OFFCURVE",
"491.036 523.179 CURVE",
"518.643 436.036 LINE",
"555.286 440.5 LINE",
"547.357 566.393 LINE",
"498.571 586.393 OFFCURVE",
"429.643 596 OFFCURVE",
"377.964 596 CURVE SMOOTH",
"164.643 596 OFFCURVE",
"55.179 445.786 OFFCURVE",
"55.179 291.714 CURVE SMOOTH",
"55.179 89.214 OFFCURVE",
"200.429 -9 OFFCURVE",
"377.321 -9 CURVE SMOOTH"
);
}
);
};
color = -1;
layerId = "1F9E295B-DEDB-4635-AE01-A776835412CD";
paths = (
{
closed = 1;
nodes = (
"438 -9 OFFCURVE",
"519 13 OFFCURVE",
"568 46 CURVE",
"566 75 OFFCURVE",
"565 104 OFFCURVE",
"565 164 CURVE SMOOTH",
"565 203 OFFCURVE",
"565 226 OFFCURVE",
"565 232 CURVE",
"607 242 LINE",
"605 274 LINE",
"437 274 LINE",
"435 240 LINE",
"501 231 LINE",
"503 214 OFFCURVE",
"505 178 OFFCURVE",
"505 128 CURVE SMOOTH",
"505 23 LINE",
"532 80 LINE",
"489 48 OFFCURVE",
"428 35 OFFCURVE",
"381 35 CURVE SMOOTH",
"239 35 OFFCURVE",
"133 128 OFFCURVE",
"133 306 CURVE SMOOTH",
"133 432 OFFCURVE",
"198 552 OFFCURVE",
"370 552 CURVE SMOOTH",
"413 552 OFFCURVE",
"467 543 OFFCURVE",
"491 523 CURVE",
"519 436 LINE",
"555 441 LINE",
"547 566 LINE",
"499 586 OFFCURVE",
"430 596 OFFCURVE",
"378 596 CURVE SMOOTH",
"165 596 OFFCURVE",
"55 446 OFFCURVE",
"55 292 CURVE SMOOTH",
"55 89 OFFCURVE",
"200 -9 OFFCURVE",
"377 -9 CURVE SMOOTH"
);
}
);
width = 645;
},
{
anchors = (
{
name = bottom;
position = "{354, 0}";
},
{
name = top;
position = "{354, 587}";
}
);
background = {
anchors = (
{
name = bottom;
position = "{354, 0}";
},
{
name = top;
position = "{354, 587}";
}
);
paths = (
{
closed = 1;
nodes = (
"449 -9 OFFCURVE",
"526 7 OFFCURVE",
"587 44 CURVE",
"585 100 OFFCURVE",
"584 125 OFFCURVE",
"584 124 CURVE SMOOTH",
"584 150 OFFCURVE",
"582 191 OFFCURVE",
"587 201 CURVE",
"640 221 LINE",
"636 278 LINE",
"348 278 LINE",
"344 219 LINE",
"417 200 LINE",
"419 182 OFFCURVE",
"422 146 OFFCURVE",
"422 128 CURVE SMOOTH",
"422 21 LINE",
"435 74 LINE",
"423 73 OFFCURVE",
"412 70 OFFCURVE",
"407 70 CURVE SMOOTH",
"313 70 OFFCURVE",
"236 164 OFFCURVE",
"236 309 CURVE SMOOTH",
"236 449 OFFCURVE",
"303 520 OFFCURVE",
"397 520 CURVE SMOOTH",
"412 520 OFFCURVE",
"437 518 OFFCURVE",
"470 505 CURVE",
"503 410 LINE",
"577 412 LINE",
"573 560 LINE",
"536 580 OFFCURVE",
"471 596 OFFCURVE",
"409 596 CURVE SMOOTH",
"206 596 OFFCURVE",
"42 491 OFFCURVE",
"42 275 CURVE SMOOTH",
"42 101 OFFCURVE",
"173 -9 OFFCURVE",
"372 -9 CURVE SMOOTH"
);
}
);
};
color = -1;
layerId = "722FC537-28B1-4F35-B842-D78FAAB5B143";
paths = (
{
closed = 1;
nodes = (
"449 -9 OFFCURVE",
"526 7 OFFCURVE",
"587 44 CURVE",
"585 80 OFFCURVE",
"584 111 OFFCURVE",
"584 124 CURVE SMOOTH",
"584 149 OFFCURVE",
"583 181 OFFCURVE",
"585 201 CURVE",
"638 221 LINE",
"635 278 LINE",
"347 278 LINE",
"344 219 LINE",
"417 200 LINE",
"419 182 OFFCURVE",
"422 146 OFFCURVE",
"422 128 CURVE SMOOTH",
"422 21 LINE",
"445 74 LINE",
"433 72 OFFCURVE",
"415 70 OFFCURVE",
"407 70 CURVE SMOOTH",
"313 70 OFFCURVE",
"236 164 OFFCURVE",
"236 309 CURVE SMOOTH",
"236 449 OFFCURVE",
"303 520 OFFCURVE",
"397 520 CURVE SMOOTH",
"420 520 OFFCURVE",
"445 517 OFFCURVE",
"470 505 CURVE",
"503 410 LINE",
"577 412 LINE",
"573 560 LINE",
"536 580 OFFCURVE",
"471 596 OFFCURVE",
"407 596 CURVE SMOOTH",
"206 596 OFFCURVE",
"42 491 OFFCURVE",
"42 275 CURVE SMOOTH",
"42 101 OFFCURVE",
"173 -9 OFFCURVE",
"372 -9 CURVE SMOOTH"
);
}
);
width = 676;
},
{
anchors = (
{
name = bottom;
position = "{351, 0}";
},
{
name = top;
position = "{351, 587}";
}
);
color = -1;
layerId = "76B56D5A-2442-4808-93A9-707A1715678A";
paths = (
{
closed = 1;
nodes = (
"442 -9 OFFCURVE",
"520 10 OFFCURVE",
"576 45 CURVE",
"574 87 OFFCURVE",
"573 115 OFFCURVE",
"573 142 CURVE SMOOTH",
"573 175 OFFCURVE",
"572 207 OFFCURVE",
"574 216 CURVE",
"622 230 LINE",
"619 276 LINE",
"387 276 LINE",
"384 228 LINE",
"454 215 LINE",
"456 197 OFFCURVE",
"458 161 OFFCURVE",
"458 128 CURVE SMOOTH",
"458 22 LINE",
"478 77 LINE",
"452 60 OFFCURVE",
"417 53 OFFCURVE",
"392 53 CURVE SMOOTH",
"277 53 OFFCURVE",
"187 147 OFFCURVE",
"187 308 CURVE SMOOTH",
"187 441 OFFCURVE",
"252 535 OFFCURVE",
"382 535 CURVE SMOOTH",
"411 535 OFFCURVE",
"450 529 OFFCURVE",
"477 513 CURVE",
"508 422 LINE",
"564 425 LINE",
"559 563 LINE",
"517 583 OFFCURVE",
"450 596 OFFCURVE",
"392 596 CURVE SMOOTH",
"185 596 OFFCURVE",
"46 470 OFFCURVE",
"46 283 CURVE SMOOTH",
"46 95 OFFCURVE",
"183 -9 OFFCURVE",
"372 -9 CURVE SMOOTH"
);
}
);
width = 658;
}
);
leftKerningGroup = O;
note = G;
rightKerningGroup = G;
unicode = 0047;
},
{
glyphname = H;
lastChange = "2018-10-16 09:45:43 +0000";
layers = (
{
anchors = (
{
name = bottom;
position = "{330, 0}";
},
{
name = center;
position = "{330, 434}";
},
{
name = top;
position = "{330, 587}";
},
{
name = topleft;
position = "{25, 587}";
}
);
background = {
anchors = (
{
name = bottom;
position = "{330.5, 0}";
},
{
name = center;
position = "{330.5, 434}";
},
{
name = top;
position = "{330.5, 587}";
},
{
name = topleft;
position = "{25.071, 587}";
}
);
paths = (
{
closed = 1;
nodes = (
"606.964 0 LINE",
"608.5 32.429 LINE",
"548.893 45.036 LINE",
"543.429 52.107 OFFCURVE",
"542.357 79.786 OFFCURVE",
"542.357 188.786 CURVE SMOOTH",
"542.357 396.75 LINE SMOOTH",
"542.357 507.75 OFFCURVE",
"543.429 535.429 OFFCURVE",
"548.893 541.5 CURVE",
"608.5 554.571 LINE",
"606.964 587 LINE",
"415.5 587 LINE",
"413.964 554.571 LINE",
"474.5 541.5 LINE",
"479.964 535.429 OFFCURVE",
"481.5 503.571 OFFCURVE",
"481.5 396.75 CURVE SMOOTH",
"481.5 188.786 LINE SMOOTH",
"481.5 83.964 OFFCURVE",
"479.964 52.107 OFFCURVE",
"474.5 45.036 CURVE",
"413.964 32.429 LINE",
"415.5 0 LINE"
);
},
{
closed = 1;
nodes = (
"244.036 0 LINE",
"245.571 32.429 LINE",
"185.036 45.036 LINE",
"179.571 52.107 OFFCURVE",
"178.036 83.964 OFFCURVE",
"178.036 188.786 CURVE SMOOTH",
"178.036 396.75 LINE SMOOTH",
"178.036 503.571 OFFCURVE",
"179.571 535.429 OFFCURVE",
"185.036 541.5 CURVE",
"245.571 554.571 LINE",
"244.036 587 LINE",
"53.571 587 LINE",
"52.036 554.571 LINE",
"111.643 541.5 LINE",
"115.643 533.036 OFFCURVE",
"117.179 490.464 OFFCURVE",
"117.179 396.75 CURVE SMOOTH",
"117.179 188.786 LINE SMOOTH",
"117.179 97.071 OFFCURVE",
"115.643 54.5 OFFCURVE",
"111.643 45.036 CURVE",
"52.036 32.429 LINE",
"53.571 0 LINE"
);
},
{
closed = 1;
nodes = (
"203.536 281.036 OFFCURVE",
"249.857 281.107 OFFCURVE",
"330.5 281.107 CURVE SMOOTH",
"411.143 281.107 OFFCURVE",
"453.071 281.036 OFFCURVE",
"485.464 277.107 CURVE",
"485.464 327.75 LINE",
"462.714 326.214 OFFCURVE",
"408.607 325.214 OFFCURVE",
"330.5 325.214 CURVE SMOOTH",
"252.393 325.214 OFFCURVE",
"196.821 326.214 OFFCURVE",
"174.071 327.75 CURVE",
"174.071 277.107 LINE"
);
}
);
};
color = -1;
layerId = "1F9E295B-DEDB-4635-AE01-A776835412CD";
paths = (
{
closed = 1;
nodes = (
"606 0 LINE",
"608 32 LINE",
"547 45 LINE",
"543 52 OFFCURVE",
"542 80 OFFCURVE",
"542 189 CURVE SMOOTH",
"542 397 LINE SMOOTH",
"542 508 OFFCURVE",
"543 535 OFFCURVE",
"547 542 CURVE",
"608 555 LINE",
"606 587 LINE",
"417 587 LINE",
"415 555 LINE",
"476 542 LINE",
"479 535 OFFCURVE",
"481 504 OFFCURVE",
"481 397 CURVE SMOOTH",
"481 189 LINE SMOOTH",
"481 84 OFFCURVE",
"479 52 OFFCURVE",
"476 45 CURVE",
"415 32 LINE",
"417 0 LINE"
);
},
{
closed = 1;
nodes = (
"242 0 LINE",
"244 32 LINE",
"183 45 LINE",
"180 52 OFFCURVE",
"178 84 OFFCURVE",
"178 189 CURVE SMOOTH",
"178 397 LINE SMOOTH",
"178 504 OFFCURVE",
"180 535 OFFCURVE",
"183 542 CURVE",
"244 555 LINE",
"242 587 LINE",
"55 587 LINE",
"53 555 LINE",
"114 542 LINE",
"116 533 OFFCURVE",
"117 490 OFFCURVE",
"117 397 CURVE SMOOTH",
"117 189 LINE SMOOTH",
"117 97 OFFCURVE",
"116 55 OFFCURVE",
"114 45 CURVE",
"53 32 LINE",
"55 0 LINE"
);
},
{
closed = 1;
nodes = (
"200 281 OFFCURVE",
"250 281 OFFCURVE",
"331 281 CURVE SMOOTH",
"410 281 OFFCURVE",
"456 281 OFFCURVE",
"488 277 CURVE",
"488 328 LINE",
"466 326 OFFCURVE",
"408 325 OFFCURVE",
"331 325 CURVE SMOOTH",
"252 325 OFFCURVE",
"193 326 OFFCURVE",
"170 328 CURVE",
"170 277 LINE"
);
}
);
width = 659;
},
{
anchors = (
{
name = bottom;
position = "{364, 0}";
},
{
name = center;
position = "{364, 434}";
},
{
name = top;
position = "{364, 587}";
},
{
name = topleft;
position = "{34, 587}";
}
);
background = {
anchors = (
{
name = bottom;
position = "{364, 0}";
},
{
name = center;
position = "{364, 434}";
},
{
name = top;
position = "{364, 587}";
},
{
name = topleft;
position = "{34, 587}";
}
);
paths = (
{
closed = 1;
nodes = (
"695 0 LINE",
"699 57 LINE",
"633 76 LINE",
"630 87 OFFCURVE",
"625 182 OFFCURVE",
"625 234 CURVE SMOOTH",
"625 354 LINE SMOOTH",
"625 408 OFFCURVE",
"630 503 OFFCURVE",
"633 513 CURVE",
"699 530 LINE",
"695 587 LINE",
"392 587 LINE",
"388 530 LINE",
"451 513 LINE",
"454 503 OFFCURVE",
"458 422 OFFCURVE",
"458 354 CURVE SMOOTH",
"458 234 LINE SMOOTH",
"458 167 OFFCURVE",
"454 87 OFFCURVE",
"451 76 CURVE",
"388 57 LINE",
"392 0 LINE"
);
},
{
closed = 1;
nodes = (
"337 0 LINE",
"340 57 LINE",
"278 76 LINE",
"274 87 OFFCURVE",
"271 167 OFFCURVE",
"271 234 CURVE SMOOTH",
"271 354 LINE SMOOTH",
"271 422 OFFCURVE",
"274 503 OFFCURVE",
"278 513 CURVE",
"340 530 LINE",
"337 587 LINE",
"34 587 LINE",
"31 530 LINE",
"96 513 LINE",
"100 507 OFFCURVE",
"104 431 OFFCURVE",
"104 354 CURVE SMOOTH",
"104 234 LINE SMOOTH",
"104 158 OFFCURVE",
"100 83 OFFCURVE",
"96 76 CURVE",
"31 57 LINE",
"34 0 LINE"
);
},
{
closed = 1;
nodes = (
"268 255 OFFCURVE",
"304 259 OFFCURVE",
"364 259 CURVE SMOOTH",
"424 259 OFFCURVE",
"462 255 OFFCURVE",
"488 255 CURVE",
"488 342 LINE",
"451 338 OFFCURVE",
"420 337 OFFCURVE",
"364 337 CURVE SMOOTH",
"308 337 OFFCURVE",
"277 338 OFFCURVE",
"240 342 CURVE",
"240 255 LINE"
);
}
);
};
color = -1;
layerId = "722FC537-28B1-4F35-B842-D78FAAB5B143";
paths = (
{
closed = 1;
nodes = (
"695 0 LINE",
"698 57 LINE",
"633 76 LINE",
"630 87 OFFCURVE",
"625 182 OFFCURVE",
"625 234 CURVE SMOOTH",
"625 354 LINE SMOOTH",
"625 408 OFFCURVE",
"630 503 OFFCURVE",
"633 513 CURVE",
"698 530 LINE",
"695 587 LINE",
"392 587 LINE",
"389 530 LINE",
"451 513 LINE",
"454 503 OFFCURVE",
"458 422 OFFCURVE",
"458 354 CURVE SMOOTH",
"458 234 LINE SMOOTH",
"458 167 OFFCURVE",
"454 87 OFFCURVE",
"451 76 CURVE",
"389 57 LINE",
"392 0 LINE"
);
},
{
closed = 1;
nodes = (
"337 0 LINE",
"340 57 LINE",
"278 76 LINE",
"274 87 OFFCURVE",
"271 167 OFFCURVE",
"271 234 CURVE SMOOTH",
"271 354 LINE SMOOTH",
"271 422 OFFCURVE",
"274 503 OFFCURVE",
"278 513 CURVE",
"340 530 LINE",
"337 587 LINE",
"34 587 LINE",
"31 530 LINE",
"96 513 LINE",
"100 507 OFFCURVE",
"104 431 OFFCURVE",
"104 354 CURVE SMOOTH",
"104 234 LINE SMOOTH",
"104 158 OFFCURVE",
"100 83 OFFCURVE",
"96 76 CURVE",
"31 57 LINE",
"34 0 LINE"
);
},
{
closed = 1;
nodes = (
"268 255 OFFCURVE",
"304 259 OFFCURVE",
"364 259 CURVE SMOOTH",
"424 259 OFFCURVE",
"462 255 OFFCURVE",
"488 255 CURVE",
"488 342 LINE",
"451 338 OFFCURVE",
"420 337 OFFCURVE",
"364 337 CURVE SMOOTH",
"308 337 OFFCURVE",
"277 338 OFFCURVE",
"240 342 CURVE",
"240 255 LINE"
);
}
);
width = 729;
},
{
anchors = (
{
name = bottom;
position = "{347, 0}";
},
{
name = center;
position = "{347, 434}";
},
{
name = top;
position = "{347, 587}";
},
{
name = topleft;
position = "{28, 587}";
}
);
color = -1;
layerId = "76B56D5A-2442-4808-93A9-707A1715678A";
paths = (
{
closed = 1;
nodes = (
"652 0 LINE",
"655 46 LINE",
"593 61 LINE",
"588 70 OFFCURVE",
"585 135 OFFCURVE",
"585 213 CURVE SMOOTH",
"585 373 LINE SMOOTH",
"585 454 OFFCURVE",
"588 518 OFFCURVE",
"593 526 CURVE",
"655 541 LINE",
"652 587 LINE",
"400 587 LINE",
"397 541 LINE",
"459 526 LINE",
"464 518 OFFCURVE",
"466 460 OFFCURVE",
"466 373 CURVE SMOOTH",
"466 213 LINE SMOOTH",
"466 129 OFFCURVE",
"464 70 OFFCURVE",
"459 61 CURVE",
"397 46 LINE",
"400 0 LINE"
);
},
{
closed = 1;
nodes = (
"292 0 LINE",
"295 46 LINE",
"233 61 LINE",
"228 70 OFFCURVE",
"226 129 OFFCURVE",
"226 213 CURVE SMOOTH",
"226 373 LINE SMOOTH",
"226 460 OFFCURVE",
"228 518 OFFCURVE",
"233 526 CURVE",
"295 541 LINE",
"292 587 LINE",
"41 587 LINE",
"38 541 LINE",
"101 526 LINE",
"105 519 OFFCURVE",
"108 459 OFFCURVE",
"108 373 CURVE SMOOTH",
"108 213 LINE SMOOTH",
"108 130 OFFCURVE",
"105 70 OFFCURVE",
"101 61 CURVE",
"38 46 LINE",
"41 0 LINE"
);
},
{
closed = 1;
nodes = (
"236 267 OFFCURVE",
"276 269 OFFCURVE",
"347 269 CURVE SMOOTH",
"416 269 OFFCURVE",
"456 267 OFFCURVE",
"484 265 CURVE",
"484 336 LINE",
"455 332 OFFCURVE",
"413 331 OFFCURVE",
"347 331 CURVE SMOOTH",
"280 331 OFFCURVE",
"237 332 OFFCURVE",
"208 336 CURVE",
"208 265 LINE"
);
}
);
width = 692;
}
);
leftKerningGroup = H;
note = H;
rightKerningGroup = H;
unicode = 0048;
},
{
glyphname = I;
lastChange = "2018-10-16 09:45:43 +0000";
layers = (
{
anchors = (
{
name = bottom;
position = "{148, 0}";
},
{
name = ogonek;
position = "{197, 0}";
},
{
name = top;
position = "{148, 587}";
},
{
name = topleft;
position = "{25, 587}";
}
);
background = {
anchors = (
{
name = bottom;
position = "{148.107, 0}";
},
{
name = ogonek;
position = "{197.214, 0}";
},
{
name = top;
position = "{148.107, 587}";
},
{
name = topleft;
position = "{25.071, 587}";
}
);
paths = (
{
closed = 1;
nodes = (
"243.107 0 LINE",
"244.643 32.429 LINE",
"185.036 45.036 LINE",
"179.571 52.107 OFFCURVE",
"178.036 83.964 OFFCURVE",
"178.036 188.786 CURVE SMOOTH",
"178.036 396.75 LINE SMOOTH",
"178.036 503.571 OFFCURVE",
"179.571 535.429 OFFCURVE",
"185.036 541.5 CURVE",
"244.643 554.571 LINE",
"243.107 587 LINE",
"53.571 587 LINE",
"52.036 554.571 LINE",
"111.643 541.5 LINE",
"115.643 533.036 OFFCURVE",
"117.179 490.464 OFFCURVE",
"117.179 396.75 CURVE SMOOTH",
"117.179 188.786 LINE SMOOTH",
"117.179 97.071 OFFCURVE",
"115.643 54.5 OFFCURVE",
"111.643 45.036 CURVE",
"52.036 32.429 LINE",
"53.571 0 LINE"
);
}
);
};
color = -1;
layerId = "1F9E295B-DEDB-4635-AE01-A776835412CD";
paths = (
{
closed = 1;
nodes = (
"241 0 LINE",
"243 32 LINE",
"183 45 LINE",
"180 52 OFFCURVE",
"178 84 OFFCURVE",
"178 189 CURVE SMOOTH",
"178 397 LINE SMOOTH",
"178 504 OFFCURVE",
"180 535 OFFCURVE",
"183 542 CURVE",
"243 555 LINE",
"241 587 LINE",
"56 587 LINE",
"54 555 LINE",
"114 542 LINE",
"116 533 OFFCURVE",
"117 490 OFFCURVE",
"117 397 CURVE SMOOTH",
"117 189 LINE SMOOTH",
"117 97 OFFCURVE",
"116 55 OFFCURVE",
"114 45 CURVE",
"54 32 LINE",
"56 0 LINE"
);
}
);
width = 295;
},
{
anchors = (
{
name = bottom;
position = "{188, 0}";
},
{
name = ogonek;
position = "{271, 0}";
},
{
name = top;
position = "{188, 587}";
},
{
name = topleft;
position = "{34, 587}";
}
);
background = {
anchors = (
{
name = bottom;
position = "{188, 0}";
},
{
name = ogonek;
position = "{271, 0}";
},
{
name = top;
position = "{188, 587}";
},
{
name = topleft;
position = "{34, 587}";
}
);
paths = (
{
closed = 1;
nodes = (
"340 0 LINE",
"343 57 LINE",
"278 76 LINE",
"274 87 OFFCURVE",
"271 167 OFFCURVE",
"271 234 CURVE SMOOTH",
"271 354 LINE SMOOTH",
"271 422 OFFCURVE",
"274 503 OFFCURVE",
"278 513 CURVE",
"343 530 LINE",
"340 587 LINE",
"34 587 LINE",
"31 530 LINE",
"96 513 LINE",
"100 507 OFFCURVE",
"104 431 OFFCURVE",
"104 354 CURVE SMOOTH",
"104 234 LINE SMOOTH",
"104 158 OFFCURVE",
"100 83 OFFCURVE",
"96 76 CURVE",
"31 57 LINE",
"34 0 LINE"
);
}
);
};
color = -1;
layerId = "722FC537-28B1-4F35-B842-D78FAAB5B143";
paths = (
{
closed = 1;
nodes = (
"340 0 LINE",
"343 57 LINE",
"278 76 LINE",
"274 87 OFFCURVE",
"271 167 OFFCURVE",
"271 234 CURVE SMOOTH",
"271 354 LINE SMOOTH",
"271 422 OFFCURVE",
"274 503 OFFCURVE",
"278 513 CURVE",
"343 530 LINE",
"340 587 LINE",
"34 587 LINE",
"31 530 LINE",
"96 513 LINE",
"100 507 OFFCURVE",
"104 431 OFFCURVE",
"104 354 CURVE SMOOTH",
"104 234 LINE SMOOTH",
"104 158 OFFCURVE",
"100 83 OFFCURVE",
"96 76 CURVE",
"31 57 LINE",
"34 0 LINE"
);
}
);
width = 375;
},
{
anchors = (
{
name = bottom;
position = "{167, 0}";
},
{
name = ogonek;
position = "{235, 0}";
},
{
name = top;
position = "{167, 587}";
},
{
name = topleft;
position = "{28, 587}";
}
);
color = -1;
layerId = "76B56D5A-2442-4808-93A9-707A1715678A";
paths = (
{
closed = 1;
nodes = (
"292 0 LINE",
"295 46 LINE",
"233 61 LINE",
"228 70 OFFCURVE",
"226 129 OFFCURVE",
"226 213 CURVE SMOOTH",
"226 373 LINE SMOOTH",
"226 460 OFFCURVE",
"228 518 OFFCURVE",
"233 526 CURVE",
"295 541 LINE",
"292 587 LINE",
"41 587 LINE",
"38 541 LINE",
"101 526 LINE",
"105 519 OFFCURVE",
"108 459 OFFCURVE",
"108 373 CURVE SMOOTH",
"108 213 LINE SMOOTH",
"108 130 OFFCURVE",
"105 70 OFFCURVE",
"101 61 CURVE",
"38 46 LINE",
"41 0 LINE"
);
}
);
width = 334;
}
);
leftKerningGroup = H;
note = I;
rightKerningGroup = H;
unicode = 0049;
},
{
glyphname = Iogonek;
lastChange = "2018-10-16 09:45:43 +0000";
layers = (
{
anchors = (
{
name = top;
position = "{148, 587}";
},
{
name = topleft;
position = "{25, 587}";
}
);
background = {
anchors = (
{
name = top;
position = "{148, 587}";
},
{
name = topleft;
position = "{25, 587}";
}
);
paths = (
{
closed = 1;
nodes = (
"578 397 LINE SMOOTH",
"578 502 OFFCURVE",
"579 534 OFFCURVE",
"585 541 CURVE",
"644 555 LINE",
"643 587 LINE",
"453 587 LINE",
"452 555 LINE",
"511 541 LINE",
"515 532 OFFCURVE",
"517 489 OFFCURVE",
"517 397 CURVE SMOOTH",
"517 189 LINE SMOOTH",
"517 98 OFFCURVE",
"515 55 OFFCURVE",
"511 45 CURVE",
"452 32 LINE",
"453 0 LINE",
"586 0 LINE",
"577 10 LINE",
"497 -5 OFFCURVE",
"443 -59 OFFCURVE",
"443 -126 CURVE SMOOTH",
"443 -181 OFFCURVE",
"489 -223 OFFCURVE",
"551 -223 CURVE SMOOTH",
"585 -223 OFFCURVE",
"620 -205 OFFCURVE",
"644 -173 CURVE",
"622 -153 LINE",
"600 -177 OFFCURVE",
"581 -187 OFFCURVE",
"559 -187 CURVE SMOOTH",
"520 -187 OFFCURVE",
"501 -163 OFFCURVE",
"501 -118 CURVE SMOOTH",
"501 -51 OFFCURVE",
"562 0 OFFCURVE",
"643 0 CURVE",
"644 32 LINE",
"585 45 LINE",
"579 52 OFFCURVE",
"578 86 OFFCURVE",
"578 189 CURVE SMOOTH"
);
},
{
closed = 1;
nodes = (
"241 0 LINE",
"243 32 LINE",
"183 45 LINE",
"180 52 OFFCURVE",
"178 84 OFFCURVE",
"178 189 CURVE SMOOTH",
"178 397 LINE SMOOTH",
"178 504 OFFCURVE",
"180 535 OFFCURVE",
"183 542 CURVE",
"243 555 LINE",
"241 587 LINE",
"56 587 LINE",
"54 555 LINE",
"114 542 LINE",
"116 533 OFFCURVE",
"117 490 OFFCURVE",
"117 397 CURVE SMOOTH",
"117 189 LINE SMOOTH",
"117 97 OFFCURVE",
"116 55 OFFCURVE",
"114 45 CURVE",
"54 32 LINE",
"56 0 LINE"
);
}
);
};
color = -1;
layerId = "1F9E295B-DEDB-4635-AE01-A776835412CD";
paths = (
{
closed = 1;
nodes = (
"178 397 LINE SMOOTH",
"178 502 OFFCURVE",
"180 535 OFFCURVE",
"183 542 CURVE",
"243 555 LINE",
"241 587 LINE",
"56 587 LINE",
"54 555 LINE",
"114 542 LINE",
"116 533 OFFCURVE",
"117 489 OFFCURVE",
"117 397 CURVE SMOOTH",
"117 189 LINE SMOOTH",
"117 98 OFFCURVE",
"116 55 OFFCURVE",
"114 45 CURVE",
"54 32 LINE",
"56 0 LINE",
"186 0 LINE",
"177 10 LINE",
"97 -5 OFFCURVE",
"43 -59 OFFCURVE",
"43 -126 CURVE SMOOTH",
"43 -181 OFFCURVE",
"89 -223 OFFCURVE",
"151 -223 CURVE SMOOTH",
"185 -223 OFFCURVE",
"220 -205 OFFCURVE",
"244 -173 CURVE",
"222 -153 LINE",
"200 -177 OFFCURVE",
"181 -187 OFFCURVE",
"159 -187 CURVE SMOOTH",
"120 -187 OFFCURVE",
"101 -163 OFFCURVE",
"101 -118 CURVE SMOOTH",
"101 -51 OFFCURVE",
"162 0 OFFCURVE",
"241 0 CURVE",
"243 32 LINE",
"185 45 LINE",
"179 52 OFFCURVE",
"178 86 OFFCURVE",
"178 189 CURVE SMOOTH"
);
}
);
width = 295;
},
{
anchors = (
{
name = top;
position = "{188, 587}";
},
{
name = topleft;
position = "{35, 587}";
}
);
background = {
anchors = (
{
name = top;
position = "{788, 587}";
},
{
name = topleft;
position = "{635, 587}";
}
);
paths = (
{
closed = 1;
nodes = (
"871 354 LINE SMOOTH",
"871 419 OFFCURVE",
"875 502 OFFCURVE",
"878 512 CURVE",
"944 530 LINE",
"940 587 LINE",
"635 587 LINE",
"631 530 LINE",
"697 512 LINE",
"701 506 OFFCURVE",
"704 432 OFFCURVE",
"704 354 CURVE SMOOTH",
"704 234 LINE SMOOTH",
"704 157 OFFCURVE",
"701 83 OFFCURVE",
"697 76 CURVE",
"631 57 LINE",
"635 0 LINE",
"826 0 LINE",
"838 16 LINE",
"718 -11 OFFCURVE",
"651 -59 OFFCURVE",
"651 -120 CURVE SMOOTH",
"651 -181 OFFCURVE",
"710 -223 OFFCURVE",
"790 -223 CURVE SMOOTH",
"840 -223 OFFCURVE",
"881 -207 OFFCURVE",
"913 -173 CURVE",
"883 -127 LINE",
"863 -148 OFFCURVE",
"838 -161 OFFCURVE",
"816 -161 CURVE SMOOTH",
"785 -161 OFFCURVE",
"764 -138 OFFCURVE",
"764 -106 CURVE SMOOTH",
"764 -51 OFFCURVE",
"848 0 OFFCURVE",
"940 0 CURVE",
"944 57 LINE",
"878 76 LINE",
"875 87 OFFCURVE",
"871 171 OFFCURVE",
"871 234 CURVE SMOOTH"
);
},
{
closed = 1;
nodes = (
"340 0 LINE",
"343 57 LINE",
"278 76 LINE",
"274 87 OFFCURVE",
"271 167 OFFCURVE",
"271 234 CURVE SMOOTH",
"271 354 LINE SMOOTH",
"271 422 OFFCURVE",
"274 503 OFFCURVE",
"278 513 CURVE",
"343 530 LINE",
"340 587 LINE",
"34 587 LINE",
"31 530 LINE",
"96 513 LINE",
"100 507 OFFCURVE",
"104 431 OFFCURVE",
"104 354 CURVE SMOOTH",
"104 234 LINE SMOOTH",
"104 158 OFFCURVE",
"100 83 OFFCURVE",
"96 76 CURVE",
"31 57 LINE",
"34 0 LINE"
);
}
);
};
color = -1;
layerId = "722FC537-28B1-4F35-B842-D78FAAB5B143";
paths = (
{
closed = 1;
nodes = (
"271 354 LINE SMOOTH",
"271 419 OFFCURVE",
"275 503 OFFCURVE",
"278 513 CURVE",
"343 530 LINE",
"340 587 LINE",
"34 587 LINE",
"31 530 LINE",
"96 513 LINE",
"100 507 OFFCURVE",
"104 432 OFFCURVE",
"104 354 CURVE SMOOTH",
"104 234 LINE SMOOTH",
"104 157 OFFCURVE",
"100 83 OFFCURVE",
"96 76 CURVE",
"31 57 LINE",
"34 0 LINE",
"226 0 LINE",
"238 16 LINE",
"118 -11 OFFCURVE",
"51 -59 OFFCURVE",
"51 -120 CURVE SMOOTH",
"51 -181 OFFCURVE",
"110 -223 OFFCURVE",
"190 -223 CURVE SMOOTH",
"240 -223 OFFCURVE",
"281 -207 OFFCURVE",
"313 -173 CURVE",
"283 -127 LINE",
"263 -148 OFFCURVE",
"238 -161 OFFCURVE",
"216 -161 CURVE SMOOTH",
"185 -161 OFFCURVE",
"164 -138 OFFCURVE",
"164 -106 CURVE SMOOTH",
"164 -51 OFFCURVE",
"248 0 OFFCURVE",
"340 0 CURVE",
"343 57 LINE",
"278 76 LINE",
"275 87 OFFCURVE",
"271 171 OFFCURVE",
"271 234 CURVE SMOOTH"
);
}
);
width = 375;
},
{
anchors = (
{
name = top;
position = "{168, 587}";
},
{
name = topleft;
position = "{29, 587}";
}
);
color = -1;
layerId = "76B56D5A-2442-4808-93A9-707A1715678A";
paths = (
{
closed = 1;
nodes = (
"226 373 LINE SMOOTH",
"226 457 OFFCURVE",
"228 518 OFFCURVE",
"233 526 CURVE",
"295 541 LINE",
"292 587 LINE",
"41 587 LINE",
"38 541 LINE",
"101 526 LINE",
"105 519 OFFCURVE",
"108 459 OFFCURVE",
"108 373 CURVE SMOOTH",
"108 213 LINE SMOOTH",
"108 129 OFFCURVE",
"105 70 OFFCURVE",
"101 61 CURVE",
"38 46 LINE",
"41 0 LINE",
"206 0 LINE",
"209 13 LINE",
"106 -8 OFFCURVE",
"45 -59 OFFCURVE",
"45 -123 CURVE SMOOTH",
"45 -181 OFFCURVE",
"98 -223 OFFCURVE",
"170 -223 CURVE SMOOTH",
"213 -223 OFFCURVE",
"252 -206 OFFCURVE",
"280 -173 CURVE",
"254 -139 LINE",
"232 -161 OFFCURVE",
"209 -173 OFFCURVE",
"187 -173 CURVE SMOOTH",
"154 -173 OFFCURVE",
"133 -149 OFFCURVE",
"133 -112 CURVE SMOOTH",
"133 -51 OFFCURVE",
"206 0 OFFCURVE",
"292 0 CURVE",
"295 46 LINE",
"233 61 LINE",
"228 70 OFFCURVE",
"226 131 OFFCURVE",
"226 213 CURVE SMOOTH"
);
}
);
width = 334;
}
);
leftKerningGroup = H;
widthMetricsKey = I;
note = Iogonek;
rightKerningGroup = H;
unicode = 012E;
},
{
glyphname = J;
lastChange = "2018-10-16 09:45:43 +0000";
layers = (
{
anchors = (
{
name = top;
position = "{148, 587}";
}
);
background = {
anchors = (
{
name = top;
position = "{148.107, 587}";
}
);
paths = (
{
closed = 1;
nodes = (
"244.643 554.571 LINE",
"243.107 587 LINE",
"46.571 587 LINE",
"45.036 554.571 LINE",
"111.643 541.036 LINE",
"115.643 530.036 OFFCURVE",
"117.179 488.393 OFFCURVE",
"117.179 394.893 CURVE",
"115.25 -29.786 LINE",
"115.25 -130.071 OFFCURVE",
"84.75 -178.429 OFFCURVE",
"25.036 -167.5 CURVE",
"49.821 -175.786 LINE",
"7.107 -130.75 LINE SMOOTH",
"-7.643 -115.536 OFFCURVE",
"-21.786 -108.464 OFFCURVE",
"-36.536 -108.464 CURVE SMOOTH",
"-57.75 -108.464 OFFCURVE",
"-70.429 -120.679 OFFCURVE",
"-70.429 -138.036 CURVE SMOOTH",
"-70.429 -170.929 OFFCURVE",
"-21.679 -203 OFFCURVE",
"29.107 -203 CURVE SMOOTH",
"122.607 -203 OFFCURVE",
"178.571 -117.607 OFFCURVE",
"178.571 22.036 CURVE",
"178.036 395.821 LINE",
"178.036 498.786 OFFCURVE",
"179.571 534.964 OFFCURVE",
"185.036 541.5 CURVE"
);
}
);
};
color = -1;
layerId = "1F9E295B-DEDB-4635-AE01-A776835412CD";
paths = (
{
closed = 1;
nodes = (
"243 555 LINE",
"241 587 LINE",
"49 587 LINE",
"47 555 LINE",
"114 541 LINE",
"116 530 OFFCURVE",
"117 488 OFFCURVE",
"117 395 CURVE",
"116 -30 LINE",
"116 -130 OFFCURVE",
"85 -178 OFFCURVE",
"25 -168 CURVE",
"50 -176 LINE",
"7 -131 LINE SMOOTH",
"-8 -116 OFFCURVE",
"-22 -108 OFFCURVE",
"-37 -108 CURVE SMOOTH",
"-58 -108 OFFCURVE",
"-70 -121 OFFCURVE",
"-70 -138 CURVE SMOOTH",
"-70 -171 OFFCURVE",
"-22 -203 OFFCURVE",
"31 -203 CURVE SMOOTH",
"123 -203 OFFCURVE",
"179 -128 OFFCURVE",
"179 22 CURVE",
"178 396 LINE",
"178 499 OFFCURVE",
"180 535 OFFCURVE",
"183 542 CURVE"
);
}
);
width = 295;
},
{
anchors = (
{
name = top;
position = "{188, 587}";
}
);
background = {
anchors = (
{
name = top;
position = "{188, 587}";
}
);
paths = (
{
closed = 1;
nodes = (
"343 530 LINE",
"340 587 LINE",
"27 587 LINE",
"24 530 LINE",
"96 515 LINE",
"100 504 OFFCURVE",
"104 425 OFFCURVE",
"104 360 CURVE",
"106 -18 LINE",
"106 -134 OFFCURVE",
"104 -146 OFFCURVE",
"61 -139 CURVE",
"130 -164 LINE",
"47 -88 LINE SMOOTH",
"18 -61 OFFCURVE",
"-5 -49 OFFCURVE",
"-34 -49 CURVE SMOOTH",
"-67 -49 OFFCURVE",
"-90 -74 OFFCURVE",
"-90 -112 CURVE SMOOTH",
"-90 -167 OFFCURVE",
"-27 -203 OFFCURVE",
"69 -203 CURVE SMOOTH",
"191 -203 OFFCURVE",
"273 -124 OFFCURVE",
"273 -4 CURVE",
"271 357 LINE",
"271 430 OFFCURVE",
"274 504 OFFCURVE",
"278 513 CURVE"
);
}
);
};
color = -1;
layerId = "722FC537-28B1-4F35-B842-D78FAAB5B143";
paths = (
{
closed = 1;
nodes = (
"343 530 LINE",
"340 587 LINE",
"27 587 LINE",
"24 530 LINE",
"96 515 LINE",
"100 504 OFFCURVE",
"104 425 OFFCURVE",
"104 360 CURVE",
"106 -18 LINE",
"106 -134 OFFCURVE",
"104 -146 OFFCURVE",
"61 -139 CURVE",
"130 -164 LINE",
"47 -88 LINE SMOOTH",
"18 -61 OFFCURVE",
"-5 -49 OFFCURVE",
"-34 -49 CURVE SMOOTH",
"-65 -49 OFFCURVE",
"-92 -74 OFFCURVE",
"-92 -111 CURVE SMOOTH",
"-92 -167 OFFCURVE",
"-27 -203 OFFCURVE",
"69 -203 CURVE SMOOTH",
"191 -203 OFFCURVE",
"273 -124 OFFCURVE",
"273 -4 CURVE",
"271 357 LINE",
"271 430 OFFCURVE",
"274 504 OFFCURVE",
"278 513 CURVE"
);
}
);
width = 375;
},
{
anchors = (
{
name = top;
position = "{167, 587}";
}
);
color = -1;
layerId = "76B56D5A-2442-4808-93A9-707A1715678A";
paths = (
{
closed = 1;
nodes = (
"295 541 LINE",
"293 587 LINE",
"33 587 LINE",
"31 541 LINE",
"101 527 LINE",
"105 516 OFFCURVE",
"108 454 OFFCURVE",
"108 377 CURVE",
"108 -24 LINE",
"108 -132 OFFCURVE",
"93 -161 OFFCURVE",
"42 -152 CURVE",
"90 -170 LINE",
"26 -107 LINE SMOOTH",
"4 -86 OFFCURVE",
"-15 -77 OFFCURVE",
"-38 -77 CURVE SMOOTH",
"-65 -77 OFFCURVE",
"-84 -95 OFFCURVE",
"-84 -124 CURVE SMOOTH",
"-84 -169 OFFCURVE",
"-27 -203 OFFCURVE",
"48 -203 CURVE SMOOTH",
"157 -203 OFFCURVE",
"227 -121 OFFCURVE",
"227 8 CURVE",
"226 374 LINE",
"226 461 OFFCURVE",
"228 519 OFFCURVE",
"233 526 CURVE"
);
}
);
width = 334;
}
);
leftKerningGroup = J;
note = J;
rightKerningGroup = J;
unicode = 004A;
},
{
glyphname = K;
lastChange = "2018-10-16 09:45:43 +0000";
layers = (
{
anchors = (
{
name = bottom;
position = "{309, 0}";
},
{
name = top;
position = "{309, 587}";
}
);
background = {
anchors = (
{
name = bottom;
position = "{308.571, 0}";
},
{
name = top;
position = "{308.571, 587}";
}
);
paths = (
{
closed = 1;
nodes = (
"562.643 0 LINE",
"562.643 33.429 LINE",
"513.571 47.286 LINE",
"496.25 61.679 OFFCURVE",
"472.929 90.857 OFFCURVE",
"446.429 118.571 CURVE SMOOTH",
"256.357 323.214 LINE",
"250.107 299.714 LINE",
"501.786 543.036 LINE",
"555.143 552.571 LINE",
"553.607 587 LINE",
"377.321 587 LINE",
"375.786 554.571 LINE",
"435.393 541.107 LINE",
"229.393 327.179 LINE",
"170.821 310.857 LINE",
"170.821 278.5 LINE",
"213.214 278.5 LINE",
"380.607 92.893 LINE SMOOTH",
"396.679 76.214 OFFCURVE",
"412.464 55.964 OFFCURVE",
"423.393 42.429 CURVE",
"358.214 32.429 LINE",
"359.75 0 LINE"
);
},
{
closed = 1;
nodes = (
"247.679 0 LINE",
"249.214 32.429 LINE",
"184.036 45.036 LINE",
"181.036 54.5 OFFCURVE",
"179.036 98.929 OFFCURVE",
"179.036 188.786 CURVE SMOOTH",
"179.036 396.75 LINE SMOOTH",
"179.036 500.643 OFFCURVE",
"180.571 535.893 OFFCURVE",
"186.036 541.964 CURVE",
"245.643 554.571 LINE",
"244.107 587 LINE",
"54.571 587 LINE",
"53.036 554.571 LINE",
"112.643 541.964 LINE",
"116.643 533.5 OFFCURVE",
"118.179 490.464 OFFCURVE",
"118.179 396.75 CURVE SMOOTH",
"118.179 188.786 LINE SMOOTH",
"118.179 98.929 OFFCURVE",
"116.179 54.5 OFFCURVE",
"111.714 45.036 CURVE",
"52.107 32.429 LINE",
"53.643 0 LINE"
);
}
);
};
color = -1;
layerId = "1F9E295B-DEDB-4635-AE01-A776835412CD";
paths = (
{
closed = 1;
nodes = (
"563 0 LINE",
"563 33 LINE",
"514 47 LINE",
"496 63 OFFCURVE",
"473 90 OFFCURVE",
"446 119 CURVE SMOOTH",
"256 323 LINE",
"251 300 LINE",
"502 543 LINE",
"555 553 LINE",
"554 587 LINE",
"376 587 LINE",
"375 555 LINE",
"435 541 LINE",
"229 327 LINE",
"171 311 LINE",
"171 279 LINE",
"214 279 LINE",
"382 93 LINE SMOOTH",
"398 76 OFFCURVE",
"413 56 OFFCURVE",
"424 42 CURVE",
"359 32 LINE",
"361 0 LINE"
);
},
{
closed = 1;
nodes = (
"245 0 LINE",
"247 32 LINE",
"182 45 LINE",
"181 55 OFFCURVE",
"179 99 OFFCURVE",
"179 189 CURVE SMOOTH",
"179 397 LINE SMOOTH",
"179 501 OFFCURVE",
"181 536 OFFCURVE",
"184 542 CURVE",
"244 555 LINE",
"242 587 LINE",
"56 587 LINE",
"54 555 LINE",
"114 542 LINE",
"117 534 OFFCURVE",
"118 490 OFFCURVE",
"118 397 CURVE SMOOTH",
"118 189 LINE SMOOTH",
"118 99 OFFCURVE",
"116 55 OFFCURVE",
"114 45 CURVE",
"54 32 LINE",
"56 0 LINE"
);
}
);
width = 559;
},
{
anchors = (
{
name = bottom;
position = "{346, 0}";
},
{
name = top;
position = "{346, 587}";
}
);
background = {
anchors = (
{
name = bottom;
position = "{346, 0}";
},
{
name = top;
position = "{346, 587}";
}
);
paths = (
{
closed = 1;
nodes = (
"718 0 LINE",
"718 58 LINE",
"665 64 LINE",
"658 72 OFFCURVE",
"645 83 OFFCURVE",
"590 151 CURVE SMOOTH",
"396 392 LINE",
"404 340 LINE",
"609 517 LINE",
"682 528 LINE",
"679 587 LINE",
"429 587 LINE",
"426 530 LINE",
"491 519 LINE",
"285 309 LINE",
"251 303 LINE",
"251 250 LINE",
"287 250 LINE",
"392 115 LINE SMOOTH",
"412 88 OFFCURVE",
"415 82 OFFCURVE",
"422 67 CURVE",
"375 57 LINE",
"379 0 LINE"
);
},
{
closed = 1;
nodes = (
"320 0 LINE",
"323 57 LINE",
"277 76 LINE",
"274 83 OFFCURVE",
"272 152 OFFCURVE",
"272 234 CURVE SMOOTH",
"272 354 LINE SMOOTH",
"272 423 OFFCURVE",
"275 501 OFFCURVE",
"279 511 CURVE",
"344 530 LINE",
"341 587 LINE",
"35 587 LINE",
"32 530 LINE",
"97 511 LINE",
"101 505 OFFCURVE",
"105 431 OFFCURVE",
"105 354 CURVE SMOOTH",
"105 234 LINE SMOOTH",
"105 152 OFFCURVE",
"103 83 OFFCURVE",
"100 76 CURVE",
"35 57 LINE",
"38 0 LINE"
);
}
);
};
color = -1;
layerId = "722FC537-28B1-4F35-B842-D78FAAB5B143";
paths = (
{
closed = 1;
nodes = (
"718 0 LINE",
"718 58 LINE",
"665 64 LINE",
"658 72 OFFCURVE",
"645 83 OFFCURVE",
"590 151 CURVE SMOOTH",
"396 392 LINE",
"404 340 LINE",
"609 517 LINE",
"682 528 LINE",
"679 587 LINE",
"429 587 LINE",
"426 530 LINE",
"491 519 LINE",
"285 309 LINE",
"251 303 LINE",
"251 250 LINE",
"287 250 LINE",
"392 115 LINE SMOOTH",
"412 88 OFFCURVE",
"415 82 OFFCURVE",
"422 67 CURVE",
"375 57 LINE",
"380 0 LINE"
);
},
{
closed = 1;
nodes = (
"320 0 LINE",
"323 57 LINE",
"277 76 LINE",
"274 83 OFFCURVE",
"272 152 OFFCURVE",
"272 234 CURVE SMOOTH",
"272 354 LINE SMOOTH",
"272 423 OFFCURVE",
"275 501 OFFCURVE",
"279 511 CURVE",
"344 530 LINE",
"341 587 LINE",
"35 587 LINE",
"32 530 LINE",
"97 511 LINE",
"101 505 OFFCURVE",
"105 431 OFFCURVE",
"105 354 CURVE SMOOTH",
"105 234 LINE SMOOTH",
"105 152 OFFCURVE",
"103 83 OFFCURVE",
"100 76 CURVE",
"35 57 LINE",
"38 0 LINE"
);
}
);
width = 705;
},
{
anchors = (
{
name = bottom;
position = "{327, 0}";
},
{
name = top;
position = "{327, 587}";
}
);
color = -1;
layerId = "76B56D5A-2442-4808-93A9-707A1715678A";
paths = (
{
closed = 1;
nodes = (
"644 0 LINE",
"644 47 LINE",
"593 56 LINE",
"582 67 OFFCURVE",
"563 87 OFFCURVE",
"522 136 CURVE SMOOTH",
"330 361 LINE",
"330 322 LINE",
"557 529 LINE",
"620 539 LINE",
"617 587 LINE",
"404 587 LINE",
"401 541 LINE",
"463 529 LINE",
"257 317 LINE",
"211 307 LINE",
"211 263 LINE",
"251 263 LINE",
"385 105 LINE SMOOTH",
"403 82 OFFCURVE",
"411 70 OFFCURVE",
"420 56 CURVE",
"365 46 LINE",
"368 0 LINE"
);
},
{
closed = 1;
nodes = (
"284 0 LINE",
"287 46 LINE",
"232 61 LINE",
"229 70 OFFCURVE",
"227 127 OFFCURVE",
"227 213 CURVE SMOOTH",
"227 373 LINE SMOOTH",
"227 459 OFFCURVE",
"229 518 OFFCURVE",
"234 526 CURVE",
"296 541 LINE",
"293 587 LINE",
"42 587 LINE",
"39 541 LINE",
"102 526 LINE",
"106 518 OFFCURVE",
"109 459 OFFCURVE",
"109 373 CURVE SMOOTH",
"109 213 LINE SMOOTH",
"109 127 OFFCURVE",
"107 70 OFFCURVE",
"104 61 CURVE",
"41 46 LINE",
"44 0 LINE"
);
}
);
width = 634;
}
);
leftKerningGroup = H;
note = K;
rightKerningGroup = K;
unicode = 004B;
},
{
glyphname = L;
lastChange = "2018-10-16 09:45:43 +0000";
layers = (
{
anchors = (
{
name = bottom;
position = "{271, 0}";
},
{
name = center;
position = "{188, 303}";
},
{
name = dotacc;
position = "{327, 320}";
},
{
name = top;
position = "{149, 587}";
},
{
name = topright;
position = "{358, 587}";
}
);
background = {
anchors = (
{
name = bottom;
position = "{271, 0}";
},
{
name = center;
position = "{188, 303}";
},
{
name = dotacc;
position = "{327, 320}";
},
{
name = top;
position = "{149, 587}";
},
{
name = topright;
position = "{358, 587}";
}
);
paths = (
{
closed = 1;
nodes = (
"490 136 LINE",
"453 144 LINE",
"403 51 LINE",
"379 48 OFFCURVE",
"360 48 OFFCURVE",
"331 48 CURVE SMOOTH",
"235 48 LINE SMOOTH",
"215 48 OFFCURVE",
"198 49 OFFCURVE",
"182 50 CURVE",
"181 62 OFFCURVE",
"180 124 OFFCURVE",
"180 189 CURVE SMOOTH",
"180 397 LINE SMOOTH",
"180 499 OFFCURVE",
"181 534 OFFCURVE",
"187 541 CURVE",
"270 553 LINE",
"268 587 LINE",
"54 587 LINE",
"53 555 LINE",
"112 541 LINE",
"116 533 OFFCURVE",
"118 492 OFFCURVE",
"118 397 CURVE SMOOTH",
"118 189 LINE SMOOTH",
"118 94 OFFCURVE",
"116 54 OFFCURVE",
"112 45 CURVE",
"53 32 LINE",
"54 0 LINE",
"385 0 LINE",
"409 0 OFFCURVE",
"419 -2 OFFCURVE",
"453 -4 CURVE"
);
}
);
};
color = -1;
layerId = "1F9E295B-DEDB-4635-AE01-A776835412CD";
paths = (
{
closed = 1;
nodes = (
"490 136 LINE",
"453 144 LINE",
"403 51 LINE",
"379 48 OFFCURVE",
"360 48 OFFCURVE",
"331 48 CURVE SMOOTH",
"235 48 LINE SMOOTH",
"215 48 OFFCURVE",
"198 49 OFFCURVE",
"182 50 CURVE",
"181 62 OFFCURVE",
"180 124 OFFCURVE",
"180 189 CURVE SMOOTH",
"180 397 LINE SMOOTH",
"180 499 OFFCURVE",
"181 534 OFFCURVE",
"185 541 CURVE",
"268 553 LINE",
"266 587 LINE",
"56 587 LINE",
"54 555 LINE",
"114 541 LINE",
"118 533 OFFCURVE",
"118 492 OFFCURVE",
"118 397 CURVE SMOOTH",
"118 189 LINE SMOOTH",
"118 94 OFFCURVE",
"116 54 OFFCURVE",
"114 45 CURVE",
"54 32 LINE",
"56 0 LINE",
"385 0 LINE",
"409 0 OFFCURVE",
"437 -2 OFFCURVE",
"453 -4 CURVE"
);
}
);
width = 493;
},
{
anchors = (
{
name = bottom;
position = "{313, 0}";
},
{
name = center;
position = "{212, 303}";
},
{
name = dotacc;
position = "{416, 320}";
},
{
name = top;
position = "{187, 587}";
},
{
name = topright;
position = "{396, 587}";
}
);
background = {
anchors = (
{
name = bottom;
position = "{313, 0}";
},
{
name = center;
position = "{212, 303}";
},
{
name = dotacc;
position = "{416, 320}";
},
{
name = top;
position = "{187, 587}";
},
{
name = topright;
position = "{396, 587}";
}
);
paths = (
{
closed = 1;
nodes = (
"575 189 LINE",
"503 207 LINE",
"445 91 LINE",
"435 88 OFFCURVE",
"432 84 OFFCURVE",
"374 84 CURVE SMOOTH",
"374 84 LINE SMOOTH",
"326 84 OFFCURVE",
"302 85 OFFCURVE",
"277 89 CURVE",
"273 109 OFFCURVE",
"272 149 OFFCURVE",
"272 234 CURVE SMOOTH",
"272 354 LINE SMOOTH",
"272 428 OFFCURVE",
"276 503 OFFCURVE",
"279 510 CURVE",
"362 528 LINE",
"358 587 LINE",
"35 587 LINE",
"31 530 LINE",
"97 512 LINE",
"101 502 OFFCURVE",
"104 423 OFFCURVE",
"104 354 CURVE SMOOTH",
"104 234 LINE SMOOTH",
"104 168 OFFCURVE",
"101 86 OFFCURVE",
"97 76 CURVE",
"31 57 LINE",
"35 0 LINE",
"327 0 LINE",
"363 0 OFFCURVE",
"469 -4 OFFCURVE",
"521 -8 CURVE"
);
}
);
};
color = -1;
layerId = "722FC537-28B1-4F35-B842-D78FAAB5B143";
paths = (
{
closed = 1;
nodes = (
"575 189 LINE",
"503 207 LINE",
"445 91 LINE",
"435 88 OFFCURVE",
"407 84 OFFCURVE",
"384 84 CURVE SMOOTH",
"364 84 LINE SMOOTH",
"326 84 OFFCURVE",
"302 85 OFFCURVE",
"277 89 CURVE",
"273 109 OFFCURVE",
"272 149 OFFCURVE",
"272 234 CURVE SMOOTH",
"272 354 LINE SMOOTH",
"272 428 OFFCURVE",
"276 503 OFFCURVE",
"279 510 CURVE",
"362 528 LINE",
"359 587 LINE",
"35 587 LINE",
"32 530 LINE",
"97 512 LINE",
"101 502 OFFCURVE",
"104 423 OFFCURVE",
"104 354 CURVE SMOOTH",
"104 234 LINE SMOOTH",
"104 168 OFFCURVE",
"101 86 OFFCURVE",
"97 76 CURVE",
"32 57 LINE",
"35 0 LINE",
"327 0 LINE",
"363 0 OFFCURVE",
"459 -2 OFFCURVE",
"521 -8 CURVE"
);
}
);
width = 582;
},
{
anchors = (
{
name = bottom;
position = "{292, 0}";
},
{
name = center;
position = "{199, 303}";
},
{
name = dotacc;
position = "{374, 320}";
},
{
name = top;
position = "{168, 587}";
},
{
name = topright;
position = "{377, 587}";
}
);
color = -1;
layerId = "76B56D5A-2442-4808-93A9-707A1715678A";
paths = (
{
closed = 1;
nodes = (
"535 164 LINE",
"479 178 LINE",
"424 73 LINE",
"407 70 OFFCURVE",
"396 67 OFFCURVE",
"354 67 CURVE SMOOTH",
"308 67 LINE SMOOTH",
"274 67 OFFCURVE",
"253 68 OFFCURVE",
"232 72 CURVE",
"229 88 OFFCURVE",
"228 138 OFFCURVE",
"228 213 CURVE SMOOTH",
"228 373 LINE SMOOTH",
"228 461 OFFCURVE",
"231 518 OFFCURVE",
"235 525 CURVE",
"318 539 LINE",
"315 587 LINE",
"43 587 LINE",
"40 541 LINE",
"103 525 LINE",
"107 517 OFFCURVE",
"109 454 OFFCURVE",
"109 373 CURVE SMOOTH",
"109 213 LINE SMOOTH",
"109 134 OFFCURVE",
"107 71 OFFCURVE",
"103 61 CURVE",
"40 46 LINE",
"43 0 LINE",
"352 0 LINE",
"383 0 OFFCURVE",
"444 -3 OFFCURVE",
"489 -6 CURVE"
);
}
);
width = 539;
}
);
leftKerningGroup = H;
note = L;
rightKerningGroup = L;
unicode = 004C;
},
{
glyphname = M;
lastChange = "2018-10-16 09:45:43 +0000";
layers = (
{
anchors = (
{
name = bottom;
position = "{412, 0}";
},
{
name = top;
position = "{412, 587}";
}
);
background = {
anchors = (
{
name = bottom;
position = "{411.607, 0}";
},
{
name = top;
position = "{411.607, 587}";
}
);
paths = (
{
closed = 1;
nodes = (
"59.571 554.571 LINE",
"119.179 541.964 LINE",
"120.643 504.214 OFFCURVE",
"121.643 442.071 OFFCURVE",
"120.643 404.25 CURVE SMOOTH",
"117.179 203 LINE SMOOTH",
"116.179 103 OFFCURVE",
"114.643 60.429 OFFCURVE",
"112.643 45.036 CURVE",
"45.571 32.429 LINE",
"47.107 0 LINE",
"235.893 0 LINE",
"237.429 32.429 LINE",
"170.357 45.036 LINE",
"168.357 59.357 OFFCURVE",
"167.357 106.143 OFFCURVE",
"167.357 221.786 CURVE SMOOTH",
"166.357 558 LINE",
"160.929 558 LINE",
"396.714 -3 LINE",
"418.25 -3 LINE",
"662.107 558 LINE",
"645.857 558 LINE",
"648.393 194.643 LINE SMOOTH",
"649.393 71.964 OFFCURVE",
"649.857 57.429 OFFCURVE",
"648.321 43.571 CURVE",
"588.714 32.429 LINE",
"590.25 0 LINE",
"775.464 0 LINE",
"777 32.429 LINE",
"717.393 43.571 LINE",
"713.929 69.143 OFFCURVE",
"717.25 108.714 OFFCURVE",
"714.714 216.607 CURVE SMOOTH",
"709.179 403.321 LINE SMOOTH",
"707.643 454.107 OFFCURVE",
"707.643 527.107 OFFCURVE",
"709.643 542.964 CURVE",
"769.25 554.571 LINE",
"767.25 587 LINE",
"629.393 587 LINE",
"414.036 92.286 LINE",
"426.464 92.286 LINE",
"217.464 587 LINE",
"61.107 587 LINE"
);
}
);
};
color = -1;
layerId = "1F9E295B-DEDB-4635-AE01-A776835412CD";
paths = (
{
closed = 1;
nodes = (
"59 555 LINE",
"119 542 LINE",
"120 514 OFFCURVE",
"121 452 OFFCURVE",
"120 404 CURVE SMOOTH",
"117 203 LINE SMOOTH",
"116 103 OFFCURVE",
"115 60 OFFCURVE",
"113 45 CURVE",
"46 32 LINE",
"48 0 LINE",
"234 0 LINE",
"236 32 LINE",
"169 45 LINE",
"168 59 OFFCURVE",
"167 106 OFFCURVE",
"167 222 CURVE SMOOTH",
"167 558 LINE",
"158 558 LINE",
"397 -3 LINE",
"418 -3 LINE",
"662 558 LINE",
"646 558 LINE",
"648 195 LINE SMOOTH",
"649 92 OFFCURVE",
"649 77 OFFCURVE",
"648 44 CURVE",
"589 32 LINE",
"591 0 LINE",
"774 0 LINE",
"776 32 LINE",
"716 44 LINE",
"715 69 OFFCURVE",
"714 109 OFFCURVE",
"712 217 CURVE",
"710 403 LINE SMOOTH",
"709 454 OFFCURVE",
"708 519 OFFCURVE",
"710 543 CURVE",
"770 555 LINE",
"768 587 LINE",
"629 587 LINE",
"414 92 LINE",
"426 92 LINE",
"216 587 LINE",
"61 587 LINE"
);
}
);
width = 832;
},
{
anchors = (
{
name = bottom;
position = "{425, 0}";
},
{
name = top;
position = "{425, 587}";
}
);
background = {
anchors = (
{
name = bottom;
position = "{425, 0}";
},
{
name = top;
position = "{425, 587}";
}
);
paths = (
{
closed = 1;
nodes = (
"42 530 LINE",
"108 511 LINE",
"107 516 OFFCURVE",
"108 503 OFFCURVE",
"107 390 CURVE SMOOTH",
"106 203 LINE SMOOTH",
"105 160 OFFCURVE",
"101 85 OFFCURVE",
"99 76 CURVE",
"28 57 LINE",
"32 0 LINE",
"265 0 LINE",
"269 57 LINE",
"198 76 LINE",
"196 80 OFFCURVE",
"195 114 OFFCURVE",
"195 210 CURVE SMOOTH",
"194 558 LINE",
"107 558 LINE",
"387 -3 LINE",
"468 -3 LINE",
"704 558 LINE",
"645 558 LINE",
"649 231 LINE SMOOTH",
"650 155 OFFCURVE",
"649 82 OFFCURVE",
"645 76 CURVE",
"579 57 LINE",
"583 0 LINE",
"894 0 LINE",
"898 57 LINE",
"832 76 LINE",
"831 77 OFFCURVE",
"824 149 OFFCURVE",
"819 223 CURVE SMOOTH",
"812 393 LINE SMOOTH",
"808 489 OFFCURVE",
"808 505 OFFCURVE",
"810 512 CURVE",
"876 530 LINE",
"874 587 LINE",
"630 587 LINE",
"452 166 LINE",
"488 166 LINE",
"279 587 LINE",
"46 587 LINE"
);
}
);
};
color = -1;
layerId = "722FC537-28B1-4F35-B842-D78FAAB5B143";
paths = (
{
closed = 1;
nodes = (
"43 530 LINE",
"108 511 LINE",
"108 496 OFFCURVE",
"108 453 OFFCURVE",
"107 390 CURVE SMOOTH",
"105 213 LINE SMOOTH",
"104 160 OFFCURVE",
"103 85 OFFCURVE",
"101 76 CURVE",
"30 57 LINE",
"33 0 LINE",
"266 0 LINE",
"269 57 LINE",
"198 76 LINE",
"196 80 OFFCURVE",
"195 114 OFFCURVE",
"195 210 CURVE SMOOTH",
"194 558 LINE",
"107 558 LINE",
"387 -3 LINE",
"468 -3 LINE",
"704 558 LINE",
"645 558 LINE",
"649 231 LINE SMOOTH",
"650 155 OFFCURVE",
"649 82 OFFCURVE",
"646 76 CURVE",
"581 57 LINE",
"584 0 LINE",
"893 0 LINE",
"896 57 LINE",
"831 76 LINE",
"829 80 OFFCURVE",
"822 149 OFFCURVE",
"819 223 CURVE SMOOTH",
"812 393 LINE SMOOTH",
"810 449 OFFCURVE",
"809 485 OFFCURVE",
"810 512 CURVE",
"875 530 LINE",
"872 587 LINE",
"630 587 LINE",
"452 166 LINE",
"488 166 LINE",
"279 587 LINE",
"46 587 LINE"
);
}
);
width = 923;
},
{
anchors = (
{
name = bottom;
position = "{417, 0}";
},
{
name = top;
position = "{417, 587}";
}
);
color = -1;
layerId = "76B56D5A-2442-4808-93A9-707A1715678A";
paths = (
{
closed = 1;
nodes = (
"49 541 LINE",
"111 526 LINE",
"111 509 OFFCURVE",
"112 471 OFFCURVE",
"111 396 CURVE SMOOTH",
"109 204 LINE SMOOTH",
"108 134 OFFCURVE",
"105 74 OFFCURVE",
"103 61 CURVE",
"34 46 LINE",
"37 0 LINE",
"249 0 LINE",
"252 46 LINE",
"183 61 LINE",
"181 71 OFFCURVE",
"180 110 OFFCURVE",
"180 216 CURVE SMOOTH",
"179 558 LINE",
"130 558 LINE",
"390 -3 LINE",
"443 -3 LINE",
"682 558 LINE",
"643 558 LINE",
"646 214 LINE SMOOTH",
"647 117 OFFCURVE",
"647 71 OFFCURVE",
"644 61 CURVE",
"582 46 LINE",
"585 0 LINE",
"836 0 LINE",
"839 46 LINE",
"777 61 LINE",
"775 74 OFFCURVE",
"771 131 OFFCURVE",
"768 220 CURVE SMOOTH",
"762 398 LINE SMOOTH",
"760 469 OFFCURVE",
"759 514 OFFCURVE",
"761 527 CURVE",
"823 541 LINE",
"820 587 LINE",
"627 587 LINE",
"432 132 LINE",
"458 132 LINE",
"249 587 LINE",
"52 587 LINE"
);
}
);
width = 879;
}
);
leftKerningGroup = H;
note = M;
rightKerningGroup = H;
unicode = 004D;
},
{
glyphname = N;
lastChange = "2018-10-16 09:45:43 +0000";
layers = (
{
anchors = (
{
name = bottom;
position = "{333, 0}";
},
{
name = top;
position = "{333, 587}";
}
);
background = {
anchors = (
{
name = bottom;
position = "{333.357, 0}";
},
{
name = top;
position = "{333.357, 587}";
}
);
paths = (
{
closed = 1;
nodes = (
"507.286 126.964 LINE",
"182.357 587 LINE",
"53.107 587 LINE",
"51.571 554.571 LINE",
"111.179 541.964 LINE",
"115.643 525.786 OFFCURVE",
"118.179 519.214 OFFCURVE",
"118.179 394 CURVE SMOOTH",
"118.179 204.429 LINE SMOOTH",
"118.179 75.607 OFFCURVE",
"113.714 50.179 OFFCURVE",
"111.179 45.036 CURVE",
"51.571 32.429 LINE",
"53.107 0 LINE",
"239.429 0 LINE",
"240.964 32.429 LINE",
"173.893 45.036 LINE",
"170.821 49.714 OFFCURVE",
"165.893 78.857 OFFCURVE",
"165.893 204.429 CURVE SMOOTH",
"165.893 501.464 LINE",
"159.214 501.464 LINE",
"511.964 -3.536 LINE",
"548.071 -3.536 LINE",
"548.071 43.464 OFFCURVE",
"546.607 87.464 OFFCURVE",
"546.607 120.179 CURVE SMOOTH",
"546.607 380.929 LINE SMOOTH",
"546.607 507.214 OFFCURVE",
"551.071 537.357 OFFCURVE",
"553.607 541.964 CURVE",
"613.214 554.571 LINE",
"611.679 587 LINE",
"427.429 587 LINE",
"425.893 554.571 LINE",
"492.964 541.964 LINE",
"495.5 537.357 OFFCURVE",
"499.964 507.679 OFFCURVE",
"499.964 380.929 CURVE SMOOTH",
"499.964 126.964 LINE"
);
}
);
};
color = -1;
layerId = "1F9E295B-DEDB-4635-AE01-A776835412CD";
paths = (
{
closed = 1;
nodes = (
"507 127 LINE",
"182 587 LINE",
"55 587 LINE",
"53 555 LINE",
"113 542 LINE",
"116 526 OFFCURVE",
"118 499 OFFCURVE",
"118 394 CURVE SMOOTH",
"118 204 LINE SMOOTH",
"118 76 OFFCURVE",
"114 50 OFFCURVE",
"113 45 CURVE",
"53 32 LINE",
"55 0 LINE",
"237 0 LINE",
"239 32 LINE",
"172 45 LINE",
"171 50 OFFCURVE",
"166 79 OFFCURVE",
"166 204 CURVE SMOOTH",
"166 501 LINE",
"159 501 LINE",
"512 -4 LINE",
"548 -4 LINE",
"547 43 OFFCURVE",
"547 87 OFFCURVE",
"547 120 CURVE SMOOTH",
"547 381 LINE SMOOTH",
"547 507 OFFCURVE",
"551 537 OFFCURVE",
"552 542 CURVE",
"612 555 LINE",
"610 587 LINE",
"430 587 LINE",
"428 555 LINE",
"495 542 LINE",
"496 537 OFFCURVE",
"500 508 OFFCURVE",
"500 381 CURVE SMOOTH",
"500 127 LINE"
);
}
);
width = 665;
},
{
anchors = (
{
name = bottom;
position = "{359, 0}";
},
{
name = top;
position = "{359, 587}";
}
);
background = {
anchors = (
{
name = bottom;
position = "{359, 0}";
},
{
name = top;
position = "{359, 587}";
}
);
paths = (
{
closed = 1;
nodes = (
"586 210 LINE",
"208 587 LINE",
"36 587 LINE",
"32 530 LINE",
"98 511 LINE",
"100 514 OFFCURVE",
"105 417 OFFCURVE",
"105 394 CURVE SMOOTH",
"105 286 LINE SMOOTH",
"105 196 OFFCURVE",
"102 89 OFFCURVE",
"98 76 CURVE",
"32 57 LINE",
"36 0 LINE",
"269 0 LINE",
"272 57 LINE",
"201 76 LINE",
"194 90 OFFCURVE",
"193 185 OFFCURVE",
"193 286 CURVE SMOOTH",
"193 442 LINE",
"119 442 LINE",
"543 -6 LINE",
"614 -6 LINE",
"614 41 OFFCURVE",
"615 85 OFFCURVE",
"615 159 CURVE SMOOTH",
"615 320 LINE SMOOTH",
"615 405 OFFCURVE",
"617 501 OFFCURVE",
"622 511 CURVE",
"687 530 LINE",
"684 587 LINE",
"457 587 LINE",
"453 530 LINE",
"524 511 LINE",
"529 501 OFFCURVE",
"531 404 OFFCURVE",
"531 320 CURVE SMOOTH",
"531 210 LINE"
);
}
);
};
color = -1;
layerId = "722FC537-28B1-4F35-B842-D78FAAB5B143";
paths = (
{
closed = 1;
nodes = (
"586 210 LINE",
"208 587 LINE",
"36 587 LINE",
"33 530 LINE",
"98 511 LINE",
"100 494 OFFCURVE",
"105 417 OFFCURVE",
"105 394 CURVE SMOOTH",
"105 286 LINE SMOOTH",
"105 196 OFFCURVE",
"102 89 OFFCURVE",
"98 76 CURVE",
"33 57 LINE",
"36 0 LINE",
"269 0 LINE",
"272 57 LINE",
"201 76 LINE",
"194 90 OFFCURVE",
"193 185 OFFCURVE",
"193 286 CURVE SMOOTH",
"193 442 LINE",
"119 442 LINE",
"543 -6 LINE",
"614 -6 LINE",
"614 41 OFFCURVE",
"615 85 OFFCURVE",
"615 159 CURVE SMOOTH",
"615 320 LINE SMOOTH",
"615 405 OFFCURVE",
"617 501 OFFCURVE",
"622 511 CURVE",
"687 530 LINE",
"684 587 LINE",
"456 587 LINE",
"453 530 LINE",
"524 511 LINE",
"529 501 OFFCURVE",
"531 404 OFFCURVE",
"531 320 CURVE SMOOTH",
"531 210 LINE"
);
}
);
width = 720;
},
{
anchors = (
{
name = bottom;
position = "{345, 0}";
},
{
name = top;
position = "{345, 587}";
}
);
color = -1;
layerId = "76B56D5A-2442-4808-93A9-707A1715678A";
paths = (
{
closed = 1;
nodes = (
"547 172 LINE",
"194 587 LINE",
"42 587 LINE",
"39 541 LINE",
"102 526 LINE",
"105 518 OFFCURVE",
"109 464 OFFCURVE",
"109 394 CURVE SMOOTH",
"109 248 LINE SMOOTH",
"109 141 OFFCURVE",
"106 72 OFFCURVE",
"102 61 CURVE",
"39 46 LINE",
"42 0 LINE",
"252 0 LINE",
"255 46 LINE",
"186 61 LINE",
"181 72 OFFCURVE",
"178 136 OFFCURVE",
"178 248 CURVE SMOOTH",
"178 470 LINE",
"136 469 LINE",
"526 -5 LINE",
"582 -5 LINE",
"582 42 OFFCURVE",
"581 86 OFFCURVE",
"581 142 CURVE SMOOTH",
"581 348 LINE SMOOTH",
"581 452 OFFCURVE",
"585 518 OFFCURVE",
"588 526 CURVE",
"650 541 LINE",
"647 587 LINE",
"441 587 LINE",
"438 541 LINE",
"507 526 LINE",
"512 518 OFFCURVE",
"514 452 OFFCURVE",
"514 348 CURVE SMOOTH",
"514 172 LINE"
);
}
);
width = 690;
}
);
leftKerningGroup = H;
note = N;
rightKerningGroup = N;
unicode = 004E;
},
{
glyphname = Eng;
lastChange = "2018-10-16 09:45:43 +0000";
layers = (
{
background = {
paths = (
{
closed = 1;
nodes = (
"1286 -203 OFFCURVE",
"1347 -115 OFFCURVE",
"1347 2 CURVE SMOOTH",
"1347 381 LINE SMOOTH",
"1347 463 OFFCURVE",
"1350 534 OFFCURVE",
"1354 542 CURVE",
"1413 555 LINE",
"1412 587 LINE",
"1227 587 LINE",
"1226 555 LINE",
"1293 542 LINE",
"1297 534 OFFCURVE",
"1300 467 OFFCURVE",
"1300 381 CURVE SMOOTH",
"1300 127 LINE",
"1307 127 LINE",
"982 587 LINE",
"853 587 LINE",
"852 555 LINE",
"911 542 LINE",
"916 523 OFFCURVE",
"918 475 OFFCURVE",
"918 394 CURVE SMOOTH",
"918 204 LINE SMOOTH",
"918 123 OFFCURVE",
"915 55 OFFCURVE",
"911 45 CURVE",
"852 32 LINE",
"853 0 LINE",
"1039 0 LINE",
"1041 32 LINE",
"974 45 LINE",
"969 53 OFFCURVE",
"966 109 OFFCURVE",
"966 204 CURVE SMOOTH",
"965 501 LINE",
"959 501 LINE",
"1312 -4 LINE",
"1298 77 LINE",
"1298 7 LINE SMOOTH",
"1298 -104 OFFCURVE",
"1249 -176 OFFCURVE",
"1184 -165 CURVE",
"1222 -174 LINE",
"1177 -128 LINE SMOOTH",
"1161 -111 OFFCURVE",
"1145 -104 OFFCURVE",
"1130 -104 CURVE SMOOTH",
"1108 -104 OFFCURVE",
"1094 -116 OFFCURVE",
"1094 -135 CURVE SMOOTH",
"1094 -168 OFFCURVE",
"1148 -203 OFFCURVE",
"1198 -203 CURVE SMOOTH"
);
},
{
closed = 1;
nodes = (
"507 127 LINE",
"182 587 LINE",
"56 587 LINE",
"54 555 LINE",
"113 542 LINE",
"116 526 OFFCURVE",
"118 499 OFFCURVE",
"118 394 CURVE SMOOTH",
"118 204 LINE SMOOTH",
"118 76 OFFCURVE",
"114 50 OFFCURVE",
"113 45 CURVE",
"54 32 LINE",
"56 0 LINE",
"237 0 LINE",
"239 32 LINE",
"172 45 LINE",
"171 50 OFFCURVE",
"166 79 OFFCURVE",
"166 204 CURVE SMOOTH",
"166 501 LINE",
"159 501 LINE",
"512 -4 LINE",
"548 -4 LINE",
"547 43 OFFCURVE",
"547 87 OFFCURVE",
"547 120 CURVE SMOOTH",
"547 381 LINE SMOOTH",
"547 507 OFFCURVE",
"551 537 OFFCURVE",
"552 542 CURVE",
"611 555 LINE",
"609 587 LINE",
"430 587 LINE",
"428 555 LINE",
"495 542 LINE",
"496 537 OFFCURVE",
"500 508 OFFCURVE",
"500 381 CURVE SMOOTH",
"500 127 LINE"
);
}
);
};
color = -1;
layerId = "1F9E295B-DEDB-4635-AE01-A776835412CD";
paths = (
{
closed = 1;
nodes = (
"486 -203 OFFCURVE",
"547 -120 OFFCURVE",
"547 2 CURVE SMOOTH",
"547 381 LINE SMOOTH",
"547 507 OFFCURVE",
"551 537 OFFCURVE",
"552 542 CURVE",
"612 555 LINE",
"610 587 LINE",
"430 587 LINE",
"428 555 LINE",
"495 542 LINE",
"496 537 OFFCURVE",
"500 508 OFFCURVE",
"500 381 CURVE SMOOTH",
"500 127 LINE",
"507 127 LINE",
"182 587 LINE",
"55 587 LINE",
"53 555 LINE",
"113 542 LINE",
"116 526 OFFCURVE",
"118 499 OFFCURVE",
"118 394 CURVE SMOOTH",
"118 204 LINE SMOOTH",
"118 76 OFFCURVE",
"114 50 OFFCURVE",
"113 45 CURVE",
"53 32 LINE",
"55 0 LINE",
"237 0 LINE",
"239 32 LINE",
"172 45 LINE",
"171 50 OFFCURVE",
"166 79 OFFCURVE",
"166 204 CURVE SMOOTH",
"166 501 LINE",
"159 501 LINE",
"512 -4 LINE",
"498 77 LINE",
"498 -3 LINE SMOOTH",
"498 -104 OFFCURVE",
"449 -176 OFFCURVE",
"384 -165 CURVE",
"422 -174 LINE",
"377 -128 LINE SMOOTH",
"361 -111 OFFCURVE",
"345 -104 OFFCURVE",
"330 -104 CURVE SMOOTH",
"308 -104 OFFCURVE",
"294 -116 OFFCURVE",
"294 -135 CURVE SMOOTH",
"294 -168 OFFCURVE",
"339 -203 OFFCURVE",
"397 -203 CURVE SMOOTH"
);
}
);
width = 665;
},
{
background = {
paths = (
{
closed = 1;
nodes = (
"586 210 LINE",
"208 587 LINE",
"36 587 LINE",
"33 530 LINE",
"98 511 LINE",
"100 494 OFFCURVE",
"105 417 OFFCURVE",
"105 394 CURVE SMOOTH",
"105 286 LINE SMOOTH",
"105 196 OFFCURVE",
"102 89 OFFCURVE",
"98 76 CURVE",
"33 57 LINE",
"36 0 LINE",
"269 0 LINE",
"272 57 LINE",
"201 76 LINE",
"194 90 OFFCURVE",
"193 185 OFFCURVE",
"193 286 CURVE SMOOTH",
"193 442 LINE",
"119 442 LINE",
"543 -6 LINE",
"614 -6 LINE",
"614 41 OFFCURVE",
"615 85 OFFCURVE",
"615 159 CURVE SMOOTH",
"615 320 LINE SMOOTH",
"615 405 OFFCURVE",
"617 501 OFFCURVE",
"622 511 CURVE",
"687 530 LINE",
"684 587 LINE",
"456 587 LINE",
"453 530 LINE",
"524 511 LINE",
"529 501 OFFCURVE",
"531 404 OFFCURVE",
"531 320 CURVE SMOOTH",
"531 210 LINE"
);
}
);
};
color = -1;
layerId = "722FC537-28B1-4F35-B842-D78FAAB5B143";
paths = (
{
closed = 1;
nodes = (
"558 -203 OFFCURVE",
"615 -121 OFFCURVE",
"615 65 CURVE SMOOTH",
"615 320 LINE SMOOTH",
"615 431 OFFCURVE",
"618 502 OFFCURVE",
"622 511 CURVE",
"687 530 LINE",
"684 587 LINE",
"457 587 LINE",
"453 530 LINE",
"524 511 LINE",
"528 502 OFFCURVE",
"531 420 OFFCURVE",
"531 320 CURVE SMOOTH",
"531 210 LINE",
"586 210 LINE",
"208 587 LINE",
"36 587 LINE",
"33 530 LINE",
"98 511 LINE",
"100 495 OFFCURVE",
"105 436 OFFCURVE",
"105 394 CURVE SMOOTH",
"105 286 LINE SMOOTH",
"105 174 OFFCURVE",
"102 87 OFFCURVE",
"98 76 CURVE",
"33 57 LINE",
"36 0 LINE",
"269 0 LINE",
"272 57 LINE",
"201 76 LINE",
"194 90 OFFCURVE",
"193 178 OFFCURVE",
"193 286 CURVE SMOOTH",
"193 442 LINE",
"119 442 LINE",
"543 -6 LINE",
"531 89 LINE",
"531 -10 LINE SMOOTH",
"531 -96 OFFCURVE",
"493 -144 OFFCURVE",
"432 -134 CURVE",
"496 -162 LINE",
"410 -85 LINE SMOOTH",
"378 -56 OFFCURVE",
"356 -45 OFFCURVE",
"327 -45 CURVE SMOOTH",
"292 -45 OFFCURVE",
"268 -69 OFFCURVE",
"268 -104 CURVE SMOOTH",
"268 -162 OFFCURVE",
"336 -203 OFFCURVE",
"417 -203 CURVE SMOOTH"
);
}
);
width = 720;
},
{
color = -1;
layerId = "76B56D5A-2442-4808-93A9-707A1715678A";
paths = (
{
closed = 1;
nodes = (
"522 -203 OFFCURVE",
"581 -118 OFFCURVE",
"581 36 CURVE SMOOTH",
"581 348 LINE SMOOTH",
"581 454 OFFCURVE",
"585 518 OFFCURVE",
"588 526 CURVE",
"650 541 LINE",
"647 587 LINE",
"441 587 LINE",
"438 541 LINE",
"507 526 LINE",
"511 518 OFFCURVE",
"514 453 OFFCURVE",
"514 348 CURVE SMOOTH",
"514 172 LINE",
"547 172 LINE",
"194 587 LINE",
"42 587 LINE",
"39 541 LINE",
"102 526 LINE",
"105 518 OFFCURVE",
"109 465 OFFCURVE",
"109 394 CURVE SMOOTH",
"109 248 LINE SMOOTH",
"109 151 OFFCURVE",
"106 72 OFFCURVE",
"102 61 CURVE",
"39 46 LINE",
"42 0 LINE",
"252 0 LINE",
"255 46 LINE",
"186 61 LINE",
"181 73 OFFCURVE",
"178 147 OFFCURVE",
"178 248 CURVE SMOOTH",
"178 470 LINE",
"136 470 LINE",
"526 -5 LINE",
"514 83 LINE",
"514 -2 LINE SMOOTH",
"514 -100 OFFCURVE",
"471 -159 OFFCURVE",
"408 -149 CURVE",
"460 -168 LINE",
"393 -104 LINE SMOOTH",
"367 -82 OFFCURVE",
"349 -73 OFFCURVE",
"326 -73 CURVE SMOOTH",
"297 -73 OFFCURVE",
"278 -90 OFFCURVE",
"278 -119 CURVE SMOOTH",
"278 -165 OFFCURVE",
"340 -203 OFFCURVE",
"406 -203 CURVE SMOOTH"
);
}
);
width = 690;
}
);
leftKerningGroup = H;
leftMetricsKey = N;
widthMetricsKey = N;
note = Eng;
rightKerningGroup = J;
unicode = 014A;
},
{
glyphname = O;
lastChange = "2018-10-16 09:45:46 +0000";
layers = (
{
anchors = (
{
name = bottom;
position = "{338, 0}";
},
{
name = center;
position = "{338, 294}";
},
{
name = ogonek;
position = "{412, 0}";
},
{
name = top;
position = "{338, 587}";
},
{
name = topleft;
position = "{19, 587}";
},
{
name = topright;
position = "{659, 587}";
}
);
background = {
anchors = (
{
name = bottom;
position = "{338, 0}";
},
{
name = center;
position = "{338, 294}";
},
{
name = ogonek;
position = "{412, 0}";
},
{
name = top;
position = "{338, 587}";
},
{
name = topleft;
position = "{19, 587}";
},
{
name = topright;
position = "{659, 587}";
}
);
paths = (
{
closed = 1;
nodes = (
"508 -9 OFFCURVE",
"623 131 OFFCURVE",
"623 296 CURVE SMOOTH",
"623 474 OFFCURVE",
"510 596 OFFCURVE",
"348 596 CURVE SMOOTH",
"180 596 OFFCURVE",
"55 466 OFFCURVE",
"55 293 CURVE SMOOTH",
"55 114 OFFCURVE",
"174 -9 OFFCURVE",
"344 -9 CURVE SMOOTH"
);
},
{
closed = 1;
nodes = (
"226 35 OFFCURVE",
"133 149 OFFCURVE",
"133 307 CURVE SMOOTH",
"133 459 OFFCURVE",
"210 554 OFFCURVE",
"336 554 CURVE SMOOTH",
"462 554 OFFCURVE",
"549 438 OFFCURVE",
"549 273 CURVE SMOOTH",
"549 130 OFFCURVE",
"470 35 OFFCURVE",
"355 35 CURVE SMOOTH"
);
}
);
};
color = -1;
layerId = "1F9E295B-DEDB-4635-AE01-A776835412CD";
paths = (
{
closed = 1;
nodes = (
"508 -9 OFFCURVE",
"623 131 OFFCURVE",
"623 296 CURVE SMOOTH",
"623 474 OFFCURVE",
"510 596 OFFCURVE",
"348 596 CURVE SMOOTH",
"180 596 OFFCURVE",
"55 467 OFFCURVE",
"55 293 CURVE SMOOTH",
"55 114 OFFCURVE",
"174 -9 OFFCURVE",
"344 -9 CURVE SMOOTH"
);
},
{
closed = 1;
nodes = (
"226 35 OFFCURVE",
"133 149 OFFCURVE",
"133 307 CURVE SMOOTH",
"133 459 OFFCURVE",
"210 554 OFFCURVE",
"336 554 CURVE SMOOTH",
"462 554 OFFCURVE",
"549 438 OFFCURVE",
"549 273 CURVE SMOOTH",
"549 130 OFFCURVE",
"470 35 OFFCURVE",
"355 35 CURVE SMOOTH"
);
}
);
width = 678;
},
{
anchors = (
{
name = bottom;
position = "{364, 0}";
},
{
name = center;
position = "{364, 294}";
},
{
name = ogonek;
position = "{439, 0}";
},
{
name = top;
position = "{364, 587}";
},
{
name = topleft;
position = "{18, 587}";
},
{
name = topright;
position = "{709, 587}";
}
);
background = {
anchors = (
{
name = bottom;
position = "{364, 0}";
},
{
name = center;
position = "{364, 294}";
},
{
name = ogonek;
position = "{439, 0}";
},
{
name = top;
position = "{364, 587}";
},
{
name = topleft;
position = "{18, 587}";
},
{
name = topright;
position = "{709, 587}";
}
);
paths = (
{
closed = 1;
nodes = (
"491 -9 OFFCURVE",
"685 80 OFFCURVE",
"685 304 CURVE SMOOTH",
"685 476 OFFCURVE",
"555 596 OFFCURVE",
"370 596 CURVE SMOOTH",
"179 596 OFFCURVE",
"42 464 OFFCURVE",
"42 283 CURVE SMOOTH",
"42 114 OFFCURVE",
"181 -9 OFFCURVE",
"371 -9 CURVE SMOOTH"
);
},
{
closed = 1;
nodes = (
"292 78 OFFCURVE",
"235 177 OFFCURVE",
"235 319 CURVE SMOOTH",
"235 445 OFFCURVE",
"282 519 OFFCURVE",
"358 519 CURVE SMOOTH",
"441 519 OFFCURVE",
"493 426 OFFCURVE",
"493 277 CURVE SMOOTH",
"493 147 OFFCURVE",
"458 78 OFFCURVE",
"377 78 CURVE SMOOTH"
);
}
);
};
color = -1;
layerId = "722FC537-28B1-4F35-B842-D78FAAB5B143";
paths = (
{
closed = 1;
nodes = (
"491 -9 OFFCURVE",
"685 80 OFFCURVE",
"685 304 CURVE SMOOTH",
"685 476 OFFCURVE",
"555 596 OFFCURVE",
"370 596 CURVE SMOOTH",
"179 596 OFFCURVE",
"42 464 OFFCURVE",
"42 283 CURVE SMOOTH",
"42 114 OFFCURVE",
"181 -9 OFFCURVE",
"371 -9 CURVE SMOOTH"
);
},
{
closed = 1;
nodes = (
"292 78 OFFCURVE",
"235 177 OFFCURVE",
"235 319 CURVE SMOOTH",
"235 445 OFFCURVE",
"282 519 OFFCURVE",
"358 519 CURVE SMOOTH",
"441 519 OFFCURVE",
"493 426 OFFCURVE",
"493 277 CURVE SMOOTH",
"493 147 OFFCURVE",
"458 78 OFFCURVE",
"377 78 CURVE SMOOTH"
);
}
);
width = 727;
},
{
anchors = (
{
name = bottom;
position = "{350, 0}";
},
{
name = center;
position = "{350, 294}";
},
{
name = ogonek;
position = "{424, 0}";
},
{
name = top;
position = "{350, 587}";
},
{
name = topleft;
position = "{16, 587}";
},
{
name = topright;
position = "{683, 587}";
}
);
color = -1;
layerId = "76B56D5A-2442-4808-93A9-707A1715678A";
paths = (
{
closed = 1;
nodes = (
"497 -9 OFFCURVE",
"655 103 OFFCURVE",
"655 300 CURVE SMOOTH",
"655 475 OFFCURVE",
"532 596 OFFCURVE",
"357 596 CURVE SMOOTH",
"177 596 OFFCURVE",
"46 465 OFFCURVE",
"46 288 CURVE SMOOTH",
"46 114 OFFCURVE",
"175 -9 OFFCURVE",
"356 -9 CURVE SMOOTH"
);
},
{
closed = 1;
nodes = (
"260 59 OFFCURVE",
"186 164 OFFCURVE",
"186 313 CURVE SMOOTH",
"186 451 OFFCURVE",
"246 536 OFFCURVE",
"345 536 CURVE SMOOTH",
"448 536 OFFCURVE",
"516 432 OFFCURVE",
"516 275 CURVE SMOOTH",
"516 139 OFFCURVE",
"462 59 OFFCURVE",
"364 59 CURVE SMOOTH"
);
}
);
width = 701;
}
);
leftKerningGroup = O;
note = O;
rightKerningGroup = O;
rightMetricsKey = "=|";
unicode = 004F;
},
{
glyphname = Ohorn;
lastChange = "2018-10-16 09:45:46 +0000";
layers = (
{
anchors = (
{
name = bottom;
position = "{338, 0}";
},
{
name = center;
position = "{338, 294}";
},
{
name = top;
position = "{338, 587}";
},
{
name = topleft;
position = "{19, 587}";
}
);
background = {
anchors = (
{
name = bottom;
position = "{338.357, 0}";
},
{
name = center;
position = "{338.357, 294}";
},
{
name = top;
position = "{338.357, 587}";
},
{
name = topleft;
position = "{19.393, 587}";
}
);
paths = (
{
closed = 1;
nodes = (
"1451 697 OFFCURVE",
"1417 716 OFFCURVE",
"1372 706 CURVE",
"1370 659 LINE SMOOTH",
"1367 594 OFFCURVE",
"1342 579 OFFCURVE",
"1298 579 CURVE SMOOTH",
"1257 579 OFFCURVE",
"1211 596 OFFCURVE",
"1149 596 CURVE SMOOTH",
"980 596 OFFCURVE",
"855 466 OFFCURVE",
"855 293 CURVE SMOOTH",
"855 114 OFFCURVE",
"974 -9 OFFCURVE",
"1144 -9 CURVE SMOOTH",
"1308 -9 OFFCURVE",
"1423 131 OFFCURVE",
"1423 296 CURVE SMOOTH",
"1423 413 OFFCURVE",
"1373 507 OFFCURVE",
"1291 559 CURVE",
"1277 535 LINE",
"1399 520 OFFCURVE",
"1451 601 OFFCURVE",
"1451 650 CURVE SMOOTH"
);
},
{
closed = 1;
nodes = (
"1026 35 OFFCURVE",
"933 149 OFFCURVE",
"933 307 CURVE SMOOTH",
"933 459 OFFCURVE",
"1010 554 OFFCURVE",
"1136 554 CURVE SMOOTH",
"1262 554 OFFCURVE",
"1349 438 OFFCURVE",
"1349 273 CURVE SMOOTH",
"1349 131 OFFCURVE",
"1270 35 OFFCURVE",
"1155 35 CURVE SMOOTH"
);
},
{
closed = 1;
nodes = (
"508 -9 OFFCURVE",
"623 131 OFFCURVE",
"623 296 CURVE SMOOTH",
"623 474 OFFCURVE",
"510 596 OFFCURVE",
"348 596 CURVE SMOOTH",
"180 596 OFFCURVE",
"55 467 OFFCURVE",
"55 293 CURVE SMOOTH",
"55 114 OFFCURVE",
"174 -9 OFFCURVE",
"344 -9 CURVE SMOOTH"
);
},
{
closed = 1;
nodes = (
"226 35 OFFCURVE",
"133 149 OFFCURVE",
"133 307 CURVE SMOOTH",
"133 459 OFFCURVE",
"210 554 OFFCURVE",
"336 554 CURVE SMOOTH",
"462 554 OFFCURVE",
"549 438 OFFCURVE",
"549 273 CURVE SMOOTH",
"549 130 OFFCURVE",
"470 35 OFFCURVE",
"355 35 CURVE SMOOTH"
);
}
);
};
color = -1;
layerId = "1F9E295B-DEDB-4635-AE01-A776835412CD";
paths = (
{
closed = 1;
nodes = (
"651 697 OFFCURVE",
"617 716 OFFCURVE",
"572 706 CURVE",
"570 659 LINE SMOOTH",
"567 594 OFFCURVE",
"542 579 OFFCURVE",
"498 579 CURVE SMOOTH",
"457 579 OFFCURVE",
"411 596 OFFCURVE",
"349 596 CURVE SMOOTH",
"180 596 OFFCURVE",
"55 466 OFFCURVE",
"55 293 CURVE SMOOTH",
"55 114 OFFCURVE",
"174 -9 OFFCURVE",
"344 -9 CURVE SMOOTH",
"508 -9 OFFCURVE",
"623 131 OFFCURVE",
"623 296 CURVE SMOOTH",
"623 413 OFFCURVE",
"573 507 OFFCURVE",
"491 559 CURVE",
"477 535 LINE",
"599 520 OFFCURVE",
"651 601 OFFCURVE",
"651 650 CURVE SMOOTH"
);
},
{
closed = 1;
nodes = (
"226 35 OFFCURVE",
"133 149 OFFCURVE",
"133 307 CURVE SMOOTH",
"133 459 OFFCURVE",
"210 554 OFFCURVE",
"336 554 CURVE SMOOTH",
"462 554 OFFCURVE",
"549 438 OFFCURVE",
"549 273 CURVE SMOOTH",
"549 131 OFFCURVE",
"470 35 OFFCURVE",
"355 35 CURVE SMOOTH"
);
}
);
width = 678;
},
{
anchors = (
{
name = bottom;
position = "{364, 0}";
},
{
name = center;
position = "{364, 294}";
},
{
name = top;
position = "{364, 587}";
},
{
name = topleft;
position = "{18, 587}";
}
);
background = {
anchors = (
{
name = bottom;
position = "{364, 0}";
},
{
name = center;
position = "{364, 294}";
},
{
name = top;
position = "{364, 587}";
},
{
name = topleft;
position = "{18, 587}";
}
);
paths = (
{
closed = 1;
nodes = (
"723 725 OFFCURVE",
"662 730 OFFCURVE",
"594 723 CURVE",
"592 657 LINE SMOOTH",
"590 619 OFFCURVE",
"561 581 OFFCURVE",
"515 581 CURVE SMOOTH",
"487 581 OFFCURVE",
"438 596 OFFCURVE",
"380 596 CURVE SMOOTH",
"179 596 OFFCURVE",
"42 464 OFFCURVE",
"42 283 CURVE SMOOTH",
"42 114 OFFCURVE",
"181 -9 OFFCURVE",
"371 -9 CURVE SMOOTH",
"491 -9 OFFCURVE",
"685 80 OFFCURVE",
"685 304 CURVE SMOOTH",
"685 409 OFFCURVE",
"635 493 OFFCURVE",
"559 542 CURVE",
"470 529 LINE",
"614 489 OFFCURVE",
"723 566 OFFCURVE",
"723 656 CURVE SMOOTH"
);
},
{
closed = 1;
nodes = (
"292 78 OFFCURVE",
"235 177 OFFCURVE",
"235 319 CURVE SMOOTH",
"235 445 OFFCURVE",
"282 519 OFFCURVE",
"358 519 CURVE SMOOTH",
"441 519 OFFCURVE",
"493 426 OFFCURVE",
"493 277 CURVE SMOOTH",
"493 143 OFFCURVE",
"457 78 OFFCURVE",
"377 78 CURVE SMOOTH"
);
}
);
};
color = -1;
layerId = "722FC537-28B1-4F35-B842-D78FAAB5B143";
paths = (
{
closed = 1;
nodes = (
"723 725 OFFCURVE",
"662 730 OFFCURVE",
"594 723 CURVE",
"592 657 LINE SMOOTH",
"591 619 OFFCURVE",
"561 581 OFFCURVE",
"515 581 CURVE SMOOTH",
"487 581 OFFCURVE",
"438 596 OFFCURVE",
"380 596 CURVE SMOOTH",
"179 596 OFFCURVE",
"42 464 OFFCURVE",
"42 283 CURVE SMOOTH",
"42 114 OFFCURVE",
"181 -9 OFFCURVE",
"371 -9 CURVE SMOOTH",
"491 -9 OFFCURVE",
"685 80 OFFCURVE",
"685 304 CURVE SMOOTH",
"685 409 OFFCURVE",
"635 493 OFFCURVE",
"559 542 CURVE",
"470 529 LINE",
"614 489 OFFCURVE",
"723 566 OFFCURVE",
"723 656 CURVE SMOOTH"
);
},
{
closed = 1;
nodes = (
"292 78 OFFCURVE",
"235 177 OFFCURVE",
"235 319 CURVE SMOOTH",
"235 445 OFFCURVE",
"282 519 OFFCURVE",
"358 519 CURVE SMOOTH",
"441 519 OFFCURVE",
"493 426 OFFCURVE",
"493 277 CURVE SMOOTH",
"493 143 OFFCURVE",
"457 78 OFFCURVE",
"377 78 CURVE SMOOTH"
);
}
);
width = 727;
},
{
anchors = (
{
name = bottom;
position = "{350, 0}";
},
{
name = center;
position = "{350, 294}";
},
{
name = top;
position = "{350, 587}";
},
{
name = topleft;
position = "{16, 587}";
}
);
color = -1;
layerId = "76B56D5A-2442-4808-93A9-707A1715678A";
paths = (
{
closed = 1;
nodes = (
"687 712 OFFCURVE",
"639 724 OFFCURVE",
"581 715 CURVE",
"579 658 LINE SMOOTH",
"577 608 OFFCURVE",
"550 580 OFFCURVE",
"505 580 CURVE SMOOTH",
"471 580 OFFCURVE",
"423 596 OFFCURVE",
"363 596 CURVE SMOOTH",
"177 596 OFFCURVE",
"46 465 OFFCURVE",
"46 288 CURVE SMOOTH",
"46 114 OFFCURVE",
"175 -9 OFFCURVE",
"356 -9 CURVE SMOOTH",
"497 -9 OFFCURVE",
"655 103 OFFCURVE",
"655 300 CURVE SMOOTH",
"655 411 OFFCURVE",
"605 499 OFFCURVE",
"525 550 CURVE",
"471 532 LINE",
"605 504 OFFCURVE",
"687 583 OFFCURVE",
"687 653 CURVE SMOOTH"
);
},
{
closed = 1;
nodes = (
"260 59 OFFCURVE",
"186 164 OFFCURVE",
"186 313 CURVE SMOOTH",
"186 451 OFFCURVE",
"246 536 OFFCURVE",
"345 536 CURVE SMOOTH",
"448 536 OFFCURVE",
"516 432 OFFCURVE",
"516 275 CURVE SMOOTH",
"516 137 OFFCURVE",
"461 59 OFFCURVE",
"364 59 CURVE SMOOTH"
);
}
);
width = 701;
}
);
leftKerningGroup = O;
leftMetricsKey = O;
widthMetricsKey = O;
note = Ohorn;
rightKerningGroup = O;
unicode = 01A0;
},
{
glyphname = Oogonek;
lastChange = "2018-10-16 09:45:46 +0000";
layers = (
{
anchors = (
{
name = center;
position = "{338, 294}";
},
{
name = top;
position = "{338, 587}";
},
{
name = topleft;
position = "{19, 587}";
},
{
name = topright;
position = "{659, 587}";
}
);
background = {
anchors = (
{
name = center;
position = "{338, 294}";
},
{
name = top;
position = "{338, 587}";
},
{
name = topleft;
position = "{19, 587}";
},
{
name = topright;
position = "{659, 587}";
}
);
paths = (
{
closed = 1;
nodes = (
"1114 -223 OFFCURVE",
"1148 -201 OFFCURVE",
"1173 -173 CURVE",
"1153 -152 LINE",
"1134 -172 OFFCURVE",
"1112 -187 OFFCURVE",
"1084 -187 CURVE SMOOTH",
"1047 -187 OFFCURVE",
"1023 -163 OFFCURVE",
"1023 -126 CURVE SMOOTH",
"1023 -75 OFFCURVE",
"1066 -21 OFFCURVE",
"1143 10 CURVE SMOOTH",
"1248 52 OFFCURVE",
"1323 163 OFFCURVE",
"1323 296 CURVE SMOOTH",
"1323 474 OFFCURVE",
"1210 596 OFFCURVE",
"1048 596 CURVE SMOOTH",
"880 596 OFFCURVE",
"755 466 OFFCURVE",
"755 293 CURVE SMOOTH",
"755 114 OFFCURVE",
"874 -9 OFFCURVE",
"1044 -9 CURVE SMOOTH",
"1076 -9 LINE",
"1111 17 LINE",
"1021 -19 OFFCURVE",
"966 -74 OFFCURVE",
"966 -137 CURVE SMOOTH",
"966 -184 OFFCURVE",
"1003 -223 OFFCURVE",
"1072 -223 CURVE SMOOTH"
);
},
{
closed = 1;
nodes = (
"926 35 OFFCURVE",
"833 149 OFFCURVE",
"833 307 CURVE SMOOTH",
"833 459 OFFCURVE",
"910 554 OFFCURVE",
"1036 554 CURVE SMOOTH",
"1162 554 OFFCURVE",
"1249 438 OFFCURVE",
"1249 273 CURVE SMOOTH",
"1249 131 OFFCURVE",
"1170 35 OFFCURVE",
"1055 35 CURVE SMOOTH"
);
},
{
closed = 1;
nodes = (
"508 -9 OFFCURVE",
"623 131 OFFCURVE",
"623 296 CURVE SMOOTH",
"623 474 OFFCURVE",
"510 596 OFFCURVE",
"348 596 CURVE SMOOTH",
"180 596 OFFCURVE",
"55 467 OFFCURVE",
"55 293 CURVE SMOOTH",
"55 114 OFFCURVE",
"174 -9 OFFCURVE",
"344 -9 CURVE SMOOTH"
);
},
{
closed = 1;
nodes = (
"226 35 OFFCURVE",
"133 149 OFFCURVE",
"133 307 CURVE SMOOTH",
"133 459 OFFCURVE",
"210 554 OFFCURVE",
"336 554 CURVE SMOOTH",
"462 554 OFFCURVE",
"549 438 OFFCURVE",
"549 273 CURVE SMOOTH",
"549 130 OFFCURVE",
"470 35 OFFCURVE",
"355 35 CURVE SMOOTH"
);
}
);
};
color = -1;
layerId = "1F9E295B-DEDB-4635-AE01-A776835412CD";
paths = (
{
closed = 1;
nodes = (
"414 -223 OFFCURVE",
"448 -201 OFFCURVE",
"473 -173 CURVE",
"453 -152 LINE",
"434 -172 OFFCURVE",
"412 -187 OFFCURVE",
"384 -187 CURVE SMOOTH",
"347 -187 OFFCURVE",
"323 -163 OFFCURVE",
"323 -126 CURVE SMOOTH",
"323 -75 OFFCURVE",
"366 -20 OFFCURVE",
"443 10 CURVE SMOOTH",
"548 51 OFFCURVE",
"623 163 OFFCURVE",
"623 296 CURVE SMOOTH",
"623 474 OFFCURVE",
"510 596 OFFCURVE",
"348 596 CURVE SMOOTH",
"180 596 OFFCURVE",
"55 466 OFFCURVE",
"55 293 CURVE SMOOTH",
"55 114 OFFCURVE",
"174 -9 OFFCURVE",
"344 -9 CURVE SMOOTH",
"376 -9 LINE",
"411 17 LINE",
"321 -19 OFFCURVE",
"266 -74 OFFCURVE",
"266 -137 CURVE SMOOTH",
"266 -184 OFFCURVE",
"303 -223 OFFCURVE",
"372 -223 CURVE SMOOTH"
);
},
{
closed = 1;
nodes = (
"226 35 OFFCURVE",
"133 149 OFFCURVE",
"133 307 CURVE SMOOTH",
"133 459 OFFCURVE",
"210 554 OFFCURVE",
"336 554 CURVE SMOOTH",
"462 554 OFFCURVE",
"549 438 OFFCURVE",
"549 273 CURVE SMOOTH",
"549 131 OFFCURVE",
"470 35 OFFCURVE",
"355 35 CURVE SMOOTH"
);
}
);
width = 678;
},
{
anchors = (
{
name = center;
position = "{364, 294}";
},
{
name = top;
position = "{364, 587}";
},
{
name = topleft;
position = "{18, 587}";
},
{
name = topright;
position = "{709, 587}";
}
);
background = {
anchors = (
{
name = center;
position = "{364, 294}";
},
{
name = top;
position = "{364, 587}";
},
{
name = topleft;
position = "{18, 587}";
},
{
name = topright;
position = "{709, 587}";
}
);
paths = (
{
closed = 1;
nodes = (
"440 -223 OFFCURVE",
"484 -209 OFFCURVE",
"514 -173 CURVE",
"483 -127 LINE",
"457 -151 OFFCURVE",
"435 -161 OFFCURVE",
"415 -161 CURVE SMOOTH",
"388 -161 OFFCURVE",
"367 -142 OFFCURVE",
"367 -108 CURVE SMOOTH",
"367 -69 OFFCURVE",
"393 -21 OFFCURVE",
"487 16 CURVE SMOOTH",
"584 54 OFFCURVE",
"685 141 OFFCURVE",
"685 304 CURVE SMOOTH",
"685 476 OFFCURVE",
"555 596 OFFCURVE",
"370 596 CURVE SMOOTH",
"179 596 OFFCURVE",
"42 464 OFFCURVE",
"42 283 CURVE SMOOTH",
"42 114 OFFCURVE",
"181 -9 OFFCURVE",
"371 -9 CURVE SMOOTH",
"389 -9 LINE",
"420 27 LINE",
"314 -9 OFFCURVE",
"254 -62 OFFCURVE",
"254 -116 CURVE SMOOTH",
"254 -180 OFFCURVE",
"320 -223 OFFCURVE",
"394 -223 CURVE SMOOTH"
);
},
{
closed = 1;
nodes = (
"292 78 OFFCURVE",
"235 177 OFFCURVE",
"235 319 CURVE SMOOTH",
"235 445 OFFCURVE",
"282 519 OFFCURVE",
"358 519 CURVE SMOOTH",
"441 519 OFFCURVE",
"493 426 OFFCURVE",
"493 277 CURVE SMOOTH",
"493 143 OFFCURVE",
"457 78 OFFCURVE",
"377 78 CURVE SMOOTH"
);
}
);
};
color = -1;
layerId = "722FC537-28B1-4F35-B842-D78FAAB5B143";
paths = (
{
closed = 1;
nodes = (
"440 -223 OFFCURVE",
"484 -209 OFFCURVE",
"514 -173 CURVE",
"483 -127 LINE",
"457 -151 OFFCURVE",
"435 -161 OFFCURVE",
"415 -161 CURVE SMOOTH",
"388 -161 OFFCURVE",
"367 -142 OFFCURVE",
"367 -108 CURVE SMOOTH",
"367 -69 OFFCURVE",
"393 -21 OFFCURVE",
"487 16 CURVE SMOOTH",
"584 54 OFFCURVE",
"685 141 OFFCURVE",
"685 304 CURVE SMOOTH",
"685 476 OFFCURVE",
"555 596 OFFCURVE",
"370 596 CURVE SMOOTH",
"179 596 OFFCURVE",
"42 464 OFFCURVE",
"42 283 CURVE SMOOTH",
"42 114 OFFCURVE",
"181 -9 OFFCURVE",
"371 -9 CURVE SMOOTH",
"389 -9 LINE",
"420 27 LINE",
"314 -9 OFFCURVE",
"254 -62 OFFCURVE",
"254 -116 CURVE SMOOTH",
"254 -180 OFFCURVE",
"320 -223 OFFCURVE",
"394 -223 CURVE SMOOTH"
);
},
{
closed = 1;
nodes = (
"292 78 OFFCURVE",
"235 177 OFFCURVE",
"235 319 CURVE SMOOTH",
"235 445 OFFCURVE",
"282 519 OFFCURVE",
"358 519 CURVE SMOOTH",
"441 519 OFFCURVE",
"493 426 OFFCURVE",
"493 277 CURVE SMOOTH",
"493 143 OFFCURVE",
"457 78 OFFCURVE",
"377 78 CURVE SMOOTH"
);
}
);
width = 727;
},
{
anchors = (
{
name = center;
position = "{350, 294}";
},
{
name = top;
position = "{350, 587}";
},
{
name = topleft;
position = "{16, 587}";
},
{
name = topright;
position = "{683, 587}";
}
);
color = -1;
layerId = "76B56D5A-2442-4808-93A9-707A1715678A";
paths = (
{
closed = 1;
nodes = (
"426 -223 OFFCURVE",
"465 -205 OFFCURVE",
"493 -173 CURVE",
"467 -138 LINE",
"444 -160 OFFCURVE",
"422 -173 OFFCURVE",
"398 -173 CURVE SMOOTH",
"367 -173 OFFCURVE",
"345 -151 OFFCURVE",
"345 -116 CURVE SMOOTH",
"345 -72 OFFCURVE",
"378 -21 OFFCURVE",
"465 13 CURVE SMOOTH",
"565 53 OFFCURVE",
"655 151 OFFCURVE",
"655 300 CURVE SMOOTH",
"655 475 OFFCURVE",
"532 596 OFFCURVE",
"357 596 CURVE SMOOTH",
"177 596 OFFCURVE",
"46 465 OFFCURVE",
"46 288 CURVE SMOOTH",
"46 114 OFFCURVE",
"175 -9 OFFCURVE",
"356 -9 CURVE SMOOTH",
"381 -9 LINE",
"414 22 LINE",
"315 -14 OFFCURVE",
"258 -68 OFFCURVE",
"258 -125 CURVE SMOOTH",
"258 -182 OFFCURVE",
"310 -223 OFFCURVE",
"381 -223 CURVE SMOOTH"
);
},
{
closed = 1;
nodes = (
"260 59 OFFCURVE",
"186 164 OFFCURVE",
"186 313 CURVE SMOOTH",
"186 451 OFFCURVE",
"246 536 OFFCURVE",
"345 536 CURVE SMOOTH",
"448 536 OFFCURVE",
"516 432 OFFCURVE",
"516 275 CURVE SMOOTH",
"516 137 OFFCURVE",
"461 59 OFFCURVE",
"364 59 CURVE SMOOTH"
);
}
);
width = 701;
}
);
leftKerningGroup = O;
leftMetricsKey = O;
widthMetricsKey = O;
rightKerningGroup = O;
unicode = 01EA;
},
{
glyphname = OE;
lastChange = "2018-10-16 09:45:46 +0000";
layers = (
{
anchors = (
{
name = bottom;
position = "{521, 0}";
},
{
name = top;
position = "{521, 587}";
}
);
background = {
anchors = (
{
name = bottom;
position = "{521.143, 0}";
},
{
name = top;
position = "{521.143, 587}";
}
);
paths = (
{
closed = 1;
nodes = (
"447.429 -9 OFFCURVE",
"500.143 0 OFFCURVE",
"530.714 0 CURVE SMOOTH",
"767.393 0 LINE SMOOTH",
"785.964 0 OFFCURVE",
"797.25 0.393 OFFCURVE",
"839.571 -4.536 CURVE",
"877.25 133.571 LINE",
"837.821 141.643 LINE",
"787.214 48.964 LINE",
"779 46.429 OFFCURVE",
"755.964 44.964 OFFCURVE",
"716.214 44.964 CURVE SMOOTH",
"605.464 44.964 LINE SMOOTH",
"590.893 44.964 OFFCURVE",
"575.214 45.964 OFFCURVE",
"552.607 48.5 CURVE",
"552.071 58.179 OFFCURVE",
"551.071 106.5 OFFCURVE",
"551.071 133.964 CURVE SMOOTH",
"551.071 432.75 LINE SMOOTH",
"551.071 470.464 OFFCURVE",
"552.071 533.893 OFFCURVE",
"552.607 540.107 CURVE",
"578.786 543.107 OFFCURVE",
"593.464 544.107 OFFCURVE",
"611.75 544.107 CURVE SMOOTH",
"738.643 544.107 LINE SMOOTH",
"753.179 544.107 OFFCURVE",
"766.643 543.107 OFFCURVE",
"772.929 541.571 CURVE",
"805.071 459.893 LINE",
"844.036 466.429 LINE",
"827.286 590.536 LINE",
"784.964 586.607 OFFCURVE",
"773.857 587 OFFCURVE",
"752.357 587 CURVE SMOOTH",
"510.75 587 LINE SMOOTH",
"469.071 587 OFFCURVE",
"431 594.464 OFFCURVE",
"378.893 594.464 CURVE SMOOTH",
"194.857 594.464 OFFCURVE",
"56.179 473.75 OFFCURVE",
"56.179 288.464 CURVE SMOOTH",
"56.179 99.214 OFFCURVE",
"179.393 -9 OFFCURVE",
"394.571 -9 CURVE SMOOTH"
);
},
{
closed = 1;
nodes = (
"235 35.714 OFFCURVE",
"134.714 133.571 OFFCURVE",
"134.714 298.679 CURVE SMOOTH",
"134.714 450.25 OFFCURVE",
"221.821 549.429 OFFCURVE",
"374.821 549.429 CURVE SMOOTH",
"416.393 549.429 OFFCURVE",
"448.714 545.429 OFFCURVE",
"486.679 535.036 CURVE",
"489.679 506.321 OFFCURVE",
"491.214 462.214 OFFCURVE",
"491.214 399.357 CURVE SMOOTH",
"491.214 192.786 LINE SMOOTH",
"491.214 97.786 OFFCURVE",
"490.679 68.714 OFFCURVE",
"488.679 49.107 CURVE",
"465.214 41.179 OFFCURVE",
"431.893 35.714 OFFCURVE",
"400.786 35.714 CURVE SMOOTH"
);
},
{
closed = 1;
nodes = (
"771.964 207.786 LINE",
"771.964 397.607 LINE",
"736.464 397.607 LINE",
"723.536 327.214 LINE",
"716 324.286 OFFCURVE",
"702.786 323.75 OFFCURVE",
"682.643 323.75 CURVE SMOOTH",
"601.179 323.75 LINE SMOOTH",
"585.964 323.75 OFFCURVE",
"566.429 324.286 OFFCURVE",
"539.321 325.286 CURVE",
"539.321 279.179 LINE",
"566.429 280.179 OFFCURVE",
"585.964 280.714 OFFCURVE",
"601.179 280.714 CURVE SMOOTH",
"682.643 280.714 LINE SMOOTH",
"702.786 280.714 OFFCURVE",
"716 280.179 OFFCURVE",
"723.536 277.25 CURVE",
"736.464 207.786 LINE"
);
}
);
};
color = -1;
layerId = "1F9E295B-DEDB-4635-AE01-A776835412CD";
paths = (
{
closed = 1;
nodes = (
"447 -9 OFFCURVE",
"500 0 OFFCURVE",
"531 0 CURVE SMOOTH",
"767 0 LINE SMOOTH",
"786 0 OFFCURVE",
"797 0 OFFCURVE",
"840 -5 CURVE",
"877 134 LINE",
"838 142 LINE",
"787 49 LINE",
"779 46 OFFCURVE",
"756 45 OFFCURVE",
"716 45 CURVE SMOOTH",
"605 45 LINE SMOOTH",
"591 45 OFFCURVE",
"575 46 OFFCURVE",
"553 49 CURVE",
"552 58 OFFCURVE",
"551 107 OFFCURVE",
"551 134 CURVE SMOOTH",
"551 433 LINE SMOOTH",
"551 470 OFFCURVE",
"552 534 OFFCURVE",
"553 540 CURVE",
"569 543 OFFCURVE",
"593 544 OFFCURVE",
"612 544 CURVE SMOOTH",
"739 544 LINE SMOOTH",
"753 544 OFFCURVE",
"767 543 OFFCURVE",
"773 542 CURVE",
"805 460 LINE",
"844 466 LINE",
"827 591 LINE",
"785 587 OFFCURVE",
"774 587 OFFCURVE",
"752 587 CURVE SMOOTH",
"511 587 LINE SMOOTH",
"469 587 OFFCURVE",
"431 594 OFFCURVE",
"379 594 CURVE SMOOTH",
"195 594 OFFCURVE",
"56 474 OFFCURVE",
"56 288 CURVE SMOOTH",
"56 99 OFFCURVE",
"179 -9 OFFCURVE",
"395 -9 CURVE SMOOTH"
);
},
{
closed = 1;
nodes = (
"235 36 OFFCURVE",
"135 134 OFFCURVE",
"135 299 CURVE SMOOTH",
"135 450 OFFCURVE",
"222 549 OFFCURVE",
"375 549 CURVE SMOOTH",
"416 549 OFFCURVE",
"449 545 OFFCURVE",
"487 535 CURVE",
"490 506 OFFCURVE",
"491 462 OFFCURVE",
"491 399 CURVE SMOOTH",
"491 193 LINE SMOOTH",
"491 98 OFFCURVE",
"491 69 OFFCURVE",
"489 49 CURVE",
"465 41 OFFCURVE",
"432 36 OFFCURVE",
"401 36 CURVE SMOOTH"
);
},
{
closed = 1;
nodes = (
"772 207 LINE",
"772 398 LINE",
"736 398 LINE",
"724 327 LINE",
"716 324 OFFCURVE",
"703 324 OFFCURVE",
"683 324 CURVE SMOOTH",
"601 324 LINE SMOOTH",
"586 324 OFFCURVE",
"566 324 OFFCURVE",
"539 325 CURVE",
"539 278 LINE",
"566 279 OFFCURVE",
"586 280 OFFCURVE",
"601 280 CURVE SMOOTH",
"683 280 LINE SMOOTH",
"703 280 OFFCURVE",
"716 279 OFFCURVE",
"724 276 CURVE",
"736 207 LINE"
);
}
);
width = 914;
},
{
anchors = (
{
name = bottom;
position = "{534, 0}";
},
{
name = top;
position = "{534, 587}";
}
);
background = {
anchors = (
{
name = bottom;
position = "{534, 0}";
},
{
name = top;
position = "{534, 587}";
}
);
paths = (
{
closed = 1;
nodes = (
"420 -9 OFFCURVE",
"456 0 OFFCURVE",
"519 0 CURVE SMOOTH",
"709 0 LINE SMOOTH",
"760 0 OFFCURVE",
"845 -6 OFFCURVE",
"877 -7 CURVE",
"925 166 LINE",
"861 178 LINE",
"804 75 LINE",
"784 71 OFFCURVE",
"787 71 OFFCURVE",
"733 71 CURVE SMOOTH",
"722 71 LINE SMOOTH",
"675 71 OFFCURVE",
"649 72 OFFCURVE",
"621 77 CURVE",
"618 97 OFFCURVE",
"617 135 OFFCURVE",
"617 217 CURVE SMOOTH",
"617 390 LINE SMOOTH",
"617 468 OFFCURVE",
"618 499 OFFCURVE",
"621 518 CURVE",
"629 521 OFFCURVE",
"653 522 OFFCURVE",
"688 522 CURVE SMOOTH",
"723 522 LINE SMOOTH",
"740 522 OFFCURVE",
"751 521 OFFCURVE",
"774 517 CURVE",
"814 425 LINE",
"880 434 LINE",
"849 593 LINE",
"816 593 OFFCURVE",
"714 587 OFFCURVE",
"664 587 CURVE SMOOTH",
"530 587 LINE SMOOTH",
"478 587 OFFCURVE",
"436 592 OFFCURVE",
"406 592 CURVE SMOOTH",
"135 592 OFFCURVE",
"43 431 OFFCURVE",
"43 286 CURVE SMOOTH",
"43 111 OFFCURVE",
"178 -9 OFFCURVE",
"375 -9 CURVE SMOOTH"
);
},
{
closed = 1;
nodes = (
"297 76 OFFCURVE",
"237 166 OFFCURVE",
"237 309 CURVE SMOOTH",
"237 436 OFFCURVE",
"302 517 OFFCURVE",
"398 517 CURVE SMOOTH",
"415 517 OFFCURVE",
"437 513 OFFCURVE",
"445 509 CURVE",
"448 496 OFFCURVE",
"451 417 OFFCURVE",
"451 363 CURVE SMOOTH",
"451 238 LINE SMOOTH",
"451 200 OFFCURVE",
"449 109 OFFCURVE",
"447 84 CURVE",
"425 80 OFFCURVE",
"402 76 OFFCURVE",
"394 76 CURVE SMOOTH"
);
},
{
closed = 1;
nodes = (
"803 196 LINE",
"803 404 LINE",
"739 404 LINE",
"731 339 LINE",
"721 341 OFFCURVE",
"696 338 OFFCURVE",
"667 338 CURVE SMOOTH",
"645 338 LINE SMOOTH",
"617 338 OFFCURVE",
"596 341 OFFCURVE",
"591 342 CURVE",
"591 261 LINE",
"596 262 OFFCURVE",
"617 264 OFFCURVE",
"645 264 CURVE SMOOTH",
"667 264 LINE SMOOTH",
"696 264 OFFCURVE",
"721 262 OFFCURVE",
"731 263 CURVE",
"739 196 LINE"
);
}
);
};
color = -1;
layerId = "722FC537-28B1-4F35-B842-D78FAAB5B143";
paths = (
{
closed = 1;
nodes = (
"420 -9 OFFCURVE",
"456 0 OFFCURVE",
"519 0 CURVE SMOOTH",
"709 0 LINE SMOOTH",
"760 0 OFFCURVE",
"845 -4 OFFCURVE",
"877 -7 CURVE",
"925 166 LINE",
"861 178 LINE",
"804 75 LINE",
"784 71 OFFCURVE",
"787 71 OFFCURVE",
"733 71 CURVE SMOOTH",
"722 71 LINE SMOOTH",
"675 71 OFFCURVE",
"649 72 OFFCURVE",
"621 77 CURVE",
"618 97 OFFCURVE",
"617 135 OFFCURVE",
"617 217 CURVE SMOOTH",
"617 390 LINE SMOOTH",
"617 468 OFFCURVE",
"618 499 OFFCURVE",
"621 518 CURVE",
"629 521 OFFCURVE",
"653 522 OFFCURVE",
"688 522 CURVE SMOOTH",
"723 522 LINE SMOOTH",
"740 522 OFFCURVE",
"751 521 OFFCURVE",
"774 517 CURVE",
"814 425 LINE",
"880 434 LINE",
"849 593 LINE",
"816 591 OFFCURVE",
"714 587 OFFCURVE",
"664 587 CURVE SMOOTH",
"530 587 LINE SMOOTH",
"478 587 OFFCURVE",
"436 592 OFFCURVE",
"406 592 CURVE SMOOTH",
"135 592 OFFCURVE",
"43 431 OFFCURVE",
"43 286 CURVE SMOOTH",
"43 111 OFFCURVE",
"178 -9 OFFCURVE",
"375 -9 CURVE SMOOTH"
);
},
{
closed = 1;
nodes = (
"297 76 OFFCURVE",
"237 166 OFFCURVE",
"237 309 CURVE SMOOTH",
"237 436 OFFCURVE",
"302 517 OFFCURVE",
"398 517 CURVE SMOOTH",
"415 517 OFFCURVE",
"437 515 OFFCURVE",
"445 512 CURVE",
"448 498 OFFCURVE",
"451 417 OFFCURVE",
"451 363 CURVE SMOOTH",
"451 238 LINE SMOOTH",
"451 200 OFFCURVE",
"449 109 OFFCURVE",
"447 84 CURVE",
"428 78 OFFCURVE",
"409 76 OFFCURVE",
"394 76 CURVE SMOOTH"
);
},
{
closed = 1;
nodes = (
"803 196 LINE",
"803 404 LINE",
"739 404 LINE",
"731 339 LINE",
"721 341 OFFCURVE",
"696 338 OFFCURVE",
"667 338 CURVE SMOOTH",
"645 338 LINE SMOOTH",
"617 338 OFFCURVE",
"596 341 OFFCURVE",
"591 342 CURVE",
"591 261 LINE",
"596 262 OFFCURVE",
"617 264 OFFCURVE",
"645 264 CURVE SMOOTH",
"667 264 LINE SMOOTH",
"696 264 OFFCURVE",
"721 262 OFFCURVE",
"731 263 CURVE",
"739 196 LINE"
);
}
);
width = 935;
},
{
anchors = (
{
name = bottom;
position = "{526, 0}";
},
{
name = top;
position = "{526, 587}";
}
);
color = -1;
layerId = "76B56D5A-2442-4808-93A9-707A1715678A";
paths = (
{
closed = 1;
nodes = (
"430 -9 OFFCURVE",
"474 0 OFFCURVE",
"523 0 CURVE SMOOTH",
"734 0 LINE SMOOTH",
"770 0 OFFCURVE",
"821 -3 OFFCURVE",
"858 -6 CURVE",
"901 151 LINE",
"848 161 LINE",
"794 63 LINE",
"779 60 OFFCURVE",
"770 59 OFFCURVE",
"723 59 CURVE SMOOTH",
"666 59 LINE SMOOTH",
"635 59 OFFCURVE",
"613 60 OFFCURVE",
"587 64 CURVE",
"586 80 OFFCURVE",
"585 122 OFFCURVE",
"585 179 CURVE SMOOTH",
"585 409 LINE SMOOTH",
"585 469 OFFCURVE",
"586 516 OFFCURVE",
"587 528 CURVE",
"603 531 OFFCURVE",
"624 532 OFFCURVE",
"650 532 CURVE SMOOTH",
"728 532 LINE SMOOTH",
"744 532 OFFCURVE",
"756 531 OFFCURVE",
"771 528 CURVE",
"808 442 LINE",
"861 449 LINE",
"836 592 LINE",
"799 590 OFFCURVE",
"739 587 OFFCURVE",
"703 587 CURVE SMOOTH",
"519 587 LINE SMOOTH",
"472 587 OFFCURVE",
"431 593 OFFCURVE",
"391 593 CURVE SMOOTH",
"160 593 OFFCURVE",
"47 450 OFFCURVE",
"47 287 CURVE SMOOTH",
"47 105 OFFCURVE",
"176 -9 OFFCURVE",
"381 -9 CURVE SMOOTH"
);
},
{
closed = 1;
nodes = (
"267 58 OFFCURVE",
"188 151 OFFCURVE",
"188 304 CURVE SMOOTH",
"188 442 OFFCURVE",
"262 532 OFFCURVE",
"385 532 CURVE SMOOTH",
"413 532 OFFCURVE",
"441 528 OFFCURVE",
"462 521 CURVE",
"465 501 OFFCURVE",
"468 438 OFFCURVE",
"468 380 CURVE SMOOTH",
"468 217 LINE SMOOTH",
"468 153 OFFCURVE",
"466 91 OFFCURVE",
"464 67 CURVE",
"442 62 OFFCURVE",
"415 58 OFFCURVE",
"395 58 CURVE SMOOTH"
);
},
{
closed = 1;
nodes = (
"786 202 LINE",
"786 401 LINE",
"735 401 LINE",
"725 333 LINE",
"716 333 OFFCURVE",
"697 332 OFFCURVE",
"672 332 CURVE SMOOTH",
"623 332 LINE SMOOTH",
"600 332 OFFCURVE",
"580 333 OFFCURVE",
"565 334 CURVE",
"565 269 LINE",
"580 270 OFFCURVE",
"600 272 OFFCURVE",
"623 272 CURVE SMOOTH",
"672 272 LINE SMOOTH",
"697 272 OFFCURVE",
"716 270 OFFCURVE",
"725 269 CURVE",
"735 202 LINE"
);
}
);
width = 923;
}
);
leftKerningGroup = O;
leftMetricsKey = "=O+1";
note = OE;
rightKerningGroup = E;
rightMetricsKey = "=E+1";
unicode = 0152;
},
{
glyphname = P;
lastChange = "2018-10-16 09:45:43 +0000";
layers = (
{
anchors = (
{
name = bottom;
position = "{149, 0}";
},
{
name = top;
position = "{239, 587}";
}
);
background = {
anchors = (
{
name = bottom;
position = "{149.107, 0}";
},
{
name = top;
position = "{239.214, 587}";
}
);
paths = (
{
closed = 1;
nodes = (
"265.036 0 LINE",
"266.571 34.429 LINE",
"185.571 46.5 LINE",
"181.107 51.571 OFFCURVE",
"178.571 69.643 OFFCURVE",
"178.571 183.786 CURVE",
"177.571 407.214 LINE",
"177.571 465.536 OFFCURVE",
"179.036 536.964 OFFCURVE",
"180.036 548.571 CURVE",
"243.643 548.571 LINE SMOOTH",
"316.25 548.571 OFFCURVE",
"378.357 504.179 OFFCURVE",
"378.357 406.857 CURVE SMOOTH",
"378.357 321.607 OFFCURVE",
"326.25 283.536 OFFCURVE",
"241.286 283.536 CURVE SMOOTH",
"219.607 283.536 OFFCURVE",
"197.607 288.071 OFFCURVE",
"162.107 296.071 CURVE",
"162.107 250.429 LINE",
"185.036 246.429 OFFCURVE",
"210.5 241.964 OFFCURVE",
"244.214 241.964 CURVE SMOOTH",
"345.036 241.964 OFFCURVE",
"442.357 306.929 OFFCURVE",
"442.357 419.393 CURVE SMOOTH",
"442.357 527.464 OFFCURVE",
"365.75 587 OFFCURVE",
"249.071 587 CURVE SMOOTH",
"54.571 587 LINE",
"53.036 554.571 LINE",
"112.643 539.107 LINE",
"115.179 533.571 OFFCURVE",
"118.179 516.893 OFFCURVE",
"118.179 407.214 CURVE",
"117.179 183.786 LINE",
"117.179 69.643 OFFCURVE",
"114.179 51.571 OFFCURVE",
"111.643 45.036 CURVE",
"56.036 32.429 LINE",
"57.571 0 LINE"
);
}
);
};
color = -1;
layerId = "1F9E295B-DEDB-4635-AE01-A776835412CD";
paths = (
{
closed = 1;
nodes = (
"263 0 LINE",
"265 34 LINE",
"181 47 LINE",
"180 56 OFFCURVE",
"178 70 OFFCURVE",
"178 184 CURVE",
"177 407 LINE",
"177 466 OFFCURVE",
"178 537 OFFCURVE",
"179 549 CURVE",
"244 549 LINE SMOOTH",
"319 549 OFFCURVE",
"378 504 OFFCURVE",
"378 407 CURVE SMOOTH",
"378 320 OFFCURVE",
"326 284 OFFCURVE",
"241 284 CURVE SMOOTH",
"220 284 OFFCURVE",
"198 286 OFFCURVE",
"162 296 CURVE",
"162 250 LINE",
"185 246 OFFCURVE",
"211 242 OFFCURVE",
"245 242 CURVE SMOOTH",
"345 242 OFFCURVE",
"442 307 OFFCURVE",
"442 419 CURVE SMOOTH",
"442 527 OFFCURVE",
"366 587 OFFCURVE",
"249 587 CURVE SMOOTH",
"56 587 LINE",
"54 555 LINE",
"114 539 LINE",
"115 534 OFFCURVE",
"118 517 OFFCURVE",
"118 407 CURVE",
"117 184 LINE",
"117 70 OFFCURVE",
"115 52 OFFCURVE",
"114 45 CURVE",
"57 32 LINE",
"59 0 LINE"
);
}
);
width = 490;
},
{
anchors = (
{
name = bottom;
position = "{189, 0}";
},
{
name = top;
position = "{313, 587}";
}
);
background = {
anchors = (
{
name = bottom;
position = "{189, 0}";
},
{
name = top;
position = "{313, 587}";
}
);
paths = (
{
closed = 1;
nodes = (
"358 0 LINE",
"361 59 LINE",
"280 75 LINE",
"278 84 OFFCURVE",
"273 163 OFFCURVE",
"273 229 CURVE",
"272 362 LINE",
"272 468 OFFCURVE",
"272 506 OFFCURVE",
"273 524 CURVE",
"285 524 LINE SMOOTH",
"364 524 OFFCURVE",
"404 486 OFFCURVE",
"404 399 CURVE SMOOTH",
"404 328 OFFCURVE",
"374 286 OFFCURVE",
"320 286 CURVE SMOOTH",
"288 286 OFFCURVE",
"266 292 OFFCURVE",
"259 300 CURVE",
"259 218 LINE",
"278 214 OFFCURVE",
"301 211 OFFCURVE",
"318 211 CURVE SMOOTH",
"495 211 OFFCURVE",
"582 303 OFFCURVE",
"582 413 CURVE SMOOTH",
"582 525 OFFCURVE",
"499 587 OFFCURVE",
"315 587 CURVE SMOOTH",
"35 587 LINE",
"32 530 LINE",
"97 517 LINE",
"102 509 OFFCURVE",
"105 425 OFFCURVE",
"105 362 CURVE",
"104 229 LINE",
"104 163 OFFCURVE",
"101 84 OFFCURVE",
"96 76 CURVE",
"35 57 LINE",
"38 0 LINE"
);
}
);
};
color = -1;
layerId = "722FC537-28B1-4F35-B842-D78FAAB5B143";
paths = (
{
closed = 1;
nodes = (
"358 0 LINE",
"361 59 LINE",
"280 75 LINE",
"278 84 OFFCURVE",
"273 163 OFFCURVE",
"273 229 CURVE",
"272 362 LINE",
"272 468 OFFCURVE",
"272 506 OFFCURVE",
"273 524 CURVE",
"285 524 LINE SMOOTH",
"364 524 OFFCURVE",
"404 486 OFFCURVE",
"404 399 CURVE SMOOTH",
"404 328 OFFCURVE",
"374 286 OFFCURVE",
"320 286 CURVE SMOOTH",
"288 286 OFFCURVE",
"266 292 OFFCURVE",
"259 296 CURVE",
"259 218 LINE",
"278 214 OFFCURVE",
"301 211 OFFCURVE",
"318 211 CURVE SMOOTH",
"495 211 OFFCURVE",
"582 303 OFFCURVE",
"582 413 CURVE SMOOTH",
"582 525 OFFCURVE",
"499 587 OFFCURVE",
"315 587 CURVE SMOOTH",
"35 587 LINE",
"32 530 LINE",
"97 517 LINE",
"102 509 OFFCURVE",
"105 425 OFFCURVE",
"105 362 CURVE",
"104 229 LINE",
"104 163 OFFCURVE",
"101 84 OFFCURVE",
"96 76 CURVE",
"35 57 LINE",
"38 0 LINE"
);
}
);
width = 612;
},
{
anchors = (
{
name = bottom;
position = "{168, 0}";
},
{
name = top;
position = "{277, 587}";
}
);
color = -1;
layerId = "76B56D5A-2442-4808-93A9-707A1715678A";
paths = (
{
closed = 1;
nodes = (
"312 0 LINE",
"315 48 LINE",
"234 62 LINE",
"231 69 OFFCURVE",
"227 120 OFFCURVE",
"227 208 CURVE",
"226 383 LINE",
"226 467 OFFCURVE",
"227 521 OFFCURVE",
"228 535 CURVE",
"264 535 LINE SMOOTH",
"340 535 OFFCURVE",
"390 494 OFFCURVE",
"390 403 CURVE SMOOTH",
"390 325 OFFCURVE",
"350 285 OFFCURVE",
"281 285 CURVE SMOOTH",
"254 285 OFFCURVE",
"232 290 OFFCURVE",
"212 298 CURVE",
"212 233 LINE",
"233 229 OFFCURVE",
"257 226 OFFCURVE",
"282 226 CURVE SMOOTH",
"423 226 OFFCURVE",
"516 305 OFFCURVE",
"516 416 CURVE SMOOTH",
"516 526 OFFCURVE",
"436 587 OFFCURVE",
"283 587 CURVE SMOOTH",
"42 587 LINE",
"39 541 LINE",
"102 527 LINE",
"106 520 OFFCURVE",
"109 467 OFFCURVE",
"109 383 CURVE",
"108 208 LINE",
"108 120 OFFCURVE",
"105 69 OFFCURVE",
"101 61 CURVE",
"42 46 LINE",
"45 0 LINE"
);
}
);
width = 551;
}
);
leftKerningGroup = H;
note = P;
rightKerningGroup = P;
unicode = 0050;
},
{
glyphname = Thorn;
lastChange = "2018-10-16 09:45:43 +0000";
layers = (
{
background = {
paths = (
{
closed = 1;
nodes = (
"262.429 0 LINE",
"263.964 34.429 LINE",
"182.964 45.036 LINE",
"180.036 55.964 OFFCURVE",
"178.036 84.357 OFFCURVE",
"178.036 110.964 CURVE SMOOTH",
"178.036 438.393 LINE",
"242.643 438.393 LINE SMOOTH",
"315.25 438.393 OFFCURVE",
"377.357 394 OFFCURVE",
"377.357 296.679 CURVE SMOOTH",
"377.357 211.429 OFFCURVE",
"325.25 170.357 OFFCURVE",
"240.286 170.357 CURVE SMOOTH",
"218.607 170.357 OFFCURVE",
"196.607 174.893 OFFCURVE",
"161.107 182.893 CURVE",
"161.107 139.786 LINE",
"184.036 135.786 OFFCURVE",
"209.5 131.321 OFFCURVE",
"243.214 131.321 CURVE SMOOTH",
"344.036 131.321 OFFCURVE",
"441.357 196.75 OFFCURVE",
"441.357 309.214 CURVE SMOOTH",
"441.357 417.286 OFFCURVE",
"364.75 476.821 OFFCURVE",
"248.071 476.821 CURVE SMOOTH",
"170.393 476.821 LINE",
"179.5 449.607 LINE",
"179.5 495.714 LINE SMOOTH",
"179.5 519.5 OFFCURVE",
"180.5 532.571 OFFCURVE",
"181.5 540.036 CURVE",
"241.107 554.571 LINE",
"239.571 587 LINE",
"53.571 587 LINE",
"52.036 554.571 LINE",
"111.643 540.036 LINE",
"115.643 531.571 OFFCURVE",
"117.179 487.607 OFFCURVE",
"117.179 396.75 CURVE SMOOTH",
"117.179 188.786 LINE SMOOTH",
"117.179 98.929 OFFCURVE",
"115.643 54.5 OFFCURVE",
"114.571 45.036 CURVE",
"58.964 32.429 LINE",
"60.5 0 LINE"
);
}
);
};
color = -1;
layerId = "1F9E295B-DEDB-4635-AE01-A776835412CD";
paths = (
{
closed = 1;
nodes = (
"261 0 LINE",
"263 34 LINE",
"180 45 LINE",
"179 56 OFFCURVE",
"177 84 OFFCURVE",
"177 111 CURVE SMOOTH",
"177 438 LINE",
"243 438 LINE SMOOTH",
"315 438 OFFCURVE",
"377 394 OFFCURVE",
"377 297 CURVE SMOOTH",
"377 211 OFFCURVE",
"325 170 OFFCURVE",
"240 170 CURVE SMOOTH",
"219 170 OFFCURVE",
"195 173 OFFCURVE",
"161 183 CURVE",
"161 140 LINE",
"184 136 OFFCURVE",
"210 131 OFFCURVE",
"243 131 CURVE SMOOTH",
"344 131 OFFCURVE",
"441 197 OFFCURVE",
"441 309 CURVE SMOOTH",
"441 417 OFFCURVE",
"365 477 OFFCURVE",
"248 477 CURVE SMOOTH",
"170 477 LINE",
"177 450 LINE",
"177 496 LINE SMOOTH",
"177 520 OFFCURVE",
"178 533 OFFCURVE",
"178 540 CURVE",
"238 555 LINE",
"236 587 LINE",
"55 587 LINE",
"53 555 LINE",
"113 540 LINE",
"116 532 OFFCURVE",
"117 488 OFFCURVE",
"117 397 CURVE SMOOTH",
"117 189 LINE SMOOTH",
"117 99 OFFCURVE",
"116 55 OFFCURVE",
"115 45 CURVE",
"59 32 LINE",
"61 0 LINE"
);
}
);
width = 489;
},
{
background = {
paths = (
{
closed = 1;
nodes = (
"349 0 LINE",
"352 59 LINE",
"271 76 LINE",
"273 82 OFFCURVE",
"271 105 OFFCURVE",
"271 137 CURVE SMOOTH",
"271 432 LINE",
"284 432 LINE SMOOTH",
"363 432 OFFCURVE",
"403 394 OFFCURVE",
"403 307 CURVE SMOOTH",
"403 236 OFFCURVE",
"373 191 OFFCURVE",
"319 191 CURVE SMOOTH",
"287 191 OFFCURVE",
"265 197 OFFCURVE",
"258 205 CURVE",
"258 128 LINE",
"277 124 OFFCURVE",
"300 121 OFFCURVE",
"317 121 CURVE SMOOTH",
"494 121 OFFCURVE",
"581 211 OFFCURVE",
"581 321 CURVE SMOOTH",
"581 434 OFFCURVE",
"498 495 OFFCURVE",
"314 495 CURVE SMOOTH",
"226 495 LINE",
"270 456 LINE",
"270 479 LINE SMOOTH",
"270 491 OFFCURVE",
"271 508 OFFCURVE",
"272 514 CURVE",
"338 530 LINE",
"334 587 LINE",
"34 587 LINE",
"31 530 LINE",
"96 514 LINE",
"100 507 OFFCURVE",
"104 437 OFFCURVE",
"104 354 CURVE SMOOTH",
"104 234 LINE SMOOTH",
"104 152 OFFCURVE",
"100 83 OFFCURVE",
"95 76 CURVE",
"33 57 LINE",
"37 0 LINE"
);
}
);
};
color = -1;
layerId = "722FC537-28B1-4F35-B842-D78FAAB5B143";
paths = (
{
closed = 1;
nodes = (
"349 0 LINE",
"352 59 LINE",
"271 76 LINE",
"271 82 OFFCURVE",
"271 105 OFFCURVE",
"271 137 CURVE SMOOTH",
"271 432 LINE",
"284 432 LINE SMOOTH",
"363 432 OFFCURVE",
"403 394 OFFCURVE",
"403 307 CURVE SMOOTH",
"403 236 OFFCURVE",
"373 191 OFFCURVE",
"309 191 CURVE SMOOTH",
"287 191 OFFCURVE",
"265 197 OFFCURVE",
"258 205 CURVE",
"258 128 LINE",
"277 124 OFFCURVE",
"300 121 OFFCURVE",
"317 121 CURVE SMOOTH",
"494 121 OFFCURVE",
"581 211 OFFCURVE",
"581 321 CURVE SMOOTH",
"581 434 OFFCURVE",
"498 495 OFFCURVE",
"314 495 CURVE SMOOTH",
"226 495 LINE",
"270 456 LINE",
"270 479 LINE SMOOTH",
"270 491 OFFCURVE",
"271 508 OFFCURVE",
"272 514 CURVE",
"337 530 LINE",
"334 587 LINE",
"34 587 LINE",
"31 530 LINE",
"96 514 LINE",
"100 507 OFFCURVE",
"104 437 OFFCURVE",
"104 354 CURVE SMOOTH",
"104 234 LINE SMOOTH",
"104 152 OFFCURVE",
"100 83 OFFCURVE",
"95 76 CURVE",
"33 57 LINE",
"36 0 LINE"
);
}
);
width = 613;
},
{
color = -1;
layerId = "76B56D5A-2442-4808-93A9-707A1715678A";
paths = (
{
closed = 1;
nodes = (
"307 0 LINE",
"310 48 LINE",
"229 61 LINE",
"228 70 OFFCURVE",
"226 96 OFFCURVE",
"226 125 CURVE SMOOTH",
"226 435 LINE",
"263 435 LINE SMOOTH",
"339 435 OFFCURVE",
"389 394 OFFCURVE",
"389 302 CURVE SMOOTH",
"389 225 OFFCURVE",
"349 182 OFFCURVE",
"280 182 CURVE SMOOTH",
"253 182 OFFCURVE",
"231 187 OFFCURVE",
"211 195 CURVE",
"211 134 LINE",
"232 130 OFFCURVE",
"256 126 OFFCURVE",
"281 126 CURVE SMOOTH",
"422 126 OFFCURVE",
"515 205 OFFCURVE",
"515 315 CURVE SMOOTH",
"515 426 OFFCURVE",
"435 487 OFFCURVE",
"282 487 CURVE SMOOTH",
"198 487 LINE",
"226 453 LINE",
"226 487 LINE SMOOTH",
"226 504 OFFCURVE",
"227 519 OFFCURVE",
"228 526 CURVE",
"290 541 LINE",
"287 587 LINE",
"41 587 LINE",
"38 541 LINE",
"101 526 LINE",
"105 518 OFFCURVE",
"108 460 OFFCURVE",
"108 373 CURVE SMOOTH",
"108 213 LINE SMOOTH",
"108 127 OFFCURVE",
"105 70 OFFCURVE",
"101 61 CURVE",
"43 46 LINE",
"46 0 LINE"
);
}
);
width = 550;
}
);
leftKerningGroup = H;
note = Thorn;
rightKerningGroup = Thorn;
unicode = 00DE;
},
{
glyphname = Q;
lastChange = "2018-10-16 09:45:46 +0000";
layers = (
{
anchors = (
{
name = top;
position = "{338, 587}";
}
);
background = {
anchors = (
{
name = top;
position = "{338.357, 587}";
}
);
paths = (
{
closed = 1;
nodes = (
"352.5 -6.929 LINE",
"509.714 -6.929 OFFCURVE",
"623 130.143 OFFCURVE",
"623 296.143 CURVE SMOOTH",
"623 473.536 OFFCURVE",
"509.714 596 OFFCURVE",
"348.286 596 CURVE SMOOTH",
"180.393 596 OFFCURVE",
"55.179 466.464 OFFCURVE",
"55.179 293.321 CURVE SMOOTH",
"55.179 114 OFFCURVE",
"173.536 -8.464 OFFCURVE",
"343.893 -8.464 CURVE"
);
},
{
closed = 1;
nodes = (
"639.179 -128.964 OFFCURVE",
"682.857 -119.286 OFFCURVE",
"716.393 -100.679 CURVE",
"709.714 -67.179 LINE",
"690.571 -72.714 OFFCURVE",
"670.5 -76.179 OFFCURVE",
"649.107 -76.179 CURVE SMOOTH",
"606.179 -76.179 OFFCURVE",
"562.143 -64.25 OFFCURVE",
"513.607 -37.643 CURVE SMOOTH",
"474.143 -16.571 OFFCURVE",
"446.179 -2.643 OFFCURVE",
"401.571 3.75 CURVE",
"284.286 3.75 LINE",
"328.75 -5.464 OFFCURVE",
"418.714 -74.25 OFFCURVE",
"459.464 -90.893 CURVE SMOOTH",
"536.893 -128.571 OFFCURVE",
"567.286 -128.964 OFFCURVE",
"595.821 -128.964 CURVE SMOOTH"
);
},
{
closed = 1;
nodes = (
"226.071 35.25 OFFCURVE",
"132.714 148.5 OFFCURVE",
"132.714 307.214 CURVE SMOOTH",
"132.714 459.25 OFFCURVE",
"209.679 553.893 OFFCURVE",
"336.286 553.893 CURVE SMOOTH",
"462.036 553.893 OFFCURVE",
"548.929 437.786 OFFCURVE",
"548.929 273.071 CURVE SMOOTH",
"548.929 131.214 OFFCURVE",
"470.179 35.25 OFFCURVE",
"355.286 35.25 CURVE SMOOTH"
);
}
);
};
color = -1;
layerId = "1F9E295B-DEDB-4635-AE01-A776835412CD";
paths = (
{
closed = 1;
nodes = (
"353 -7 LINE",
"510 -7 OFFCURVE",
"623 130 OFFCURVE",
"623 296 CURVE SMOOTH",
"623 474 OFFCURVE",
"510 596 OFFCURVE",
"348 596 CURVE SMOOTH",
"180 596 OFFCURVE",
"55 466 OFFCURVE",
"55 293 CURVE SMOOTH",
"55 114 OFFCURVE",
"174 -8 OFFCURVE",
"344 -8 CURVE"
);
},
{
closed = 1;
nodes = (
"639 -129 OFFCURVE",
"683 -119 OFFCURVE",
"718 -98 CURVE",
"710 -67 LINE",
"691 -73 OFFCURVE",
"671 -76 OFFCURVE",
"649 -76 CURVE SMOOTH",
"606 -76 OFFCURVE",
"558 -64 OFFCURVE",
"510 -38 CURVE SMOOTH",
"470 -17 OFFCURVE",
"442 -3 OFFCURVE",
"378 4 CURVE",
"285 4 LINE",
"329 -5 OFFCURVE",
"420 -73 OFFCURVE",
"459 -91 CURVE SMOOTH",
"518 -119 OFFCURVE",
"553 -129 OFFCURVE",
"596 -129 CURVE SMOOTH"
);
},
{
closed = 1;
nodes = (
"226 35 OFFCURVE",
"133 149 OFFCURVE",
"133 307 CURVE SMOOTH",
"133 459 OFFCURVE",
"210 554 OFFCURVE",
"336 554 CURVE SMOOTH",
"462 554 OFFCURVE",
"549 438 OFFCURVE",
"549 273 CURVE SMOOTH",
"549 131 OFFCURVE",
"470 35 OFFCURVE",
"355 35 CURVE SMOOTH"
);
}
);
width = 678;
},
{
anchors = (
{
name = top;
position = "{364, 587}";
}
);
background = {
paths = (
{
closed = 1;
nodes = (
"386 -3 LINE",
"498 -3 OFFCURVE",
"685 81 OFFCURVE",
"685 304 CURVE SMOOTH",
"685 476 OFFCURVE",
"555 596 OFFCURVE",
"370 596 CURVE SMOOTH",
"179 596 OFFCURVE",
"42 464 OFFCURVE",
"42 283 CURVE SMOOTH",
"42 114 OFFCURVE",
"181 -6 OFFCURVE",
"371 -6 CURVE"
);
},
{
closed = 1;
nodes = (
"683 -155 OFFCURVE",
"737 -136 OFFCURVE",
"772 -111 CURVE",
"755 -49 LINE",
"728 -56 OFFCURVE",
"704 -58 OFFCURVE",
"689 -58 CURVE SMOOTH",
"650 -58 OFFCURVE",
"632 -50 OFFCURVE",
"582 -17 CURVE SMOOTH",
"544 8 OFFCURVE",
"490 18 OFFCURVE",
"439 18 CURVE",
"249 18 LINE",
"291 -3 OFFCURVE",
"293 -3 OFFCURVE",
"348 -56 CURVE SMOOTH",
"395 -102 OFFCURVE",
"475 -155 OFFCURVE",
"619 -155 CURVE SMOOTH"
);
},
{
closed = 1;
nodes = (
"292 78 OFFCURVE",
"235 177 OFFCURVE",
"235 319 CURVE SMOOTH",
"235 445 OFFCURVE",
"282 519 OFFCURVE",
"358 519 CURVE SMOOTH",
"441 519 OFFCURVE",
"493 426 OFFCURVE",
"493 277 CURVE SMOOTH",
"493 143 OFFCURVE",
"457 78 OFFCURVE",
"377 78 CURVE SMOOTH"
);
}
);
};
color = -1;
layerId = "722FC537-28B1-4F35-B842-D78FAAB5B143";
paths = (
{
closed = 1;
nodes = (
"386 -3 LINE",
"498 -3 OFFCURVE",
"685 81 OFFCURVE",
"685 304 CURVE SMOOTH",
"685 476 OFFCURVE",
"555 596 OFFCURVE",
"370 596 CURVE SMOOTH",
"179 596 OFFCURVE",
"42 464 OFFCURVE",
"42 283 CURVE SMOOTH",
"42 114 OFFCURVE",
"181 -6 OFFCURVE",
"371 -6 CURVE"
);
},
{
closed = 1;
nodes = (
"683 -155 OFFCURVE",
"737 -136 OFFCURVE",
"772 -111 CURVE",
"755 -49 LINE",
"728 -56 OFFCURVE",
"706 -58 OFFCURVE",
"692 -58 CURVE SMOOTH",
"660 -58 OFFCURVE",
"639 -50 OFFCURVE",
"580 -17 CURVE SMOOTH",
"546 2 OFFCURVE",
"490 15 OFFCURVE",
"439 15 CURVE",
"259 15 LINE",
"291 -3 OFFCURVE",
"303 -11 OFFCURVE",
"348 -56 CURVE SMOOTH",
"395 -103 OFFCURVE",
"475 -155 OFFCURVE",
"619 -155 CURVE SMOOTH"
);
},
{
closed = 1;
nodes = (
"292 78 OFFCURVE",
"235 177 OFFCURVE",
"235 319 CURVE SMOOTH",
"235 445 OFFCURVE",
"282 519 OFFCURVE",
"358 519 CURVE SMOOTH",
"441 519 OFFCURVE",
"493 426 OFFCURVE",
"493 277 CURVE SMOOTH",
"493 143 OFFCURVE",
"457 78 OFFCURVE",
"377 78 CURVE SMOOTH"
);
}
);
width = 727;
},
{
anchors = (
{
name = top;
position = "{350, 587}";
}
);
color = -1;
layerId = "76B56D5A-2442-4808-93A9-707A1715678A";
paths = (
{
closed = 1;
nodes = (
"369 -5 LINE",
"502 -5 OFFCURVE",
"655 104 OFFCURVE",
"655 300 CURVE SMOOTH",
"655 475 OFFCURVE",
"532 596 OFFCURVE",
"357 596 CURVE SMOOTH",
"177 596 OFFCURVE",
"46 465 OFFCURVE",
"46 288 CURVE SMOOTH",
"46 114 OFFCURVE",
"175 -7 OFFCURVE",
"356 -7 CURVE"
);
},
{
closed = 1;
nodes = (
"661 -143 OFFCURVE",
"709 -128 OFFCURVE",
"744 -106 CURVE",
"732 -57 LINE",
"709 -64 OFFCURVE",
"687 -66 OFFCURVE",
"668 -66 CURVE SMOOTH",
"629 -66 OFFCURVE",
"599 -56 OFFCURVE",
"561 -34 CURVE SMOOTH",
"510 -4 OFFCURVE",
"450 9 OFFCURVE",
"401 9 CURVE",
"267 9 LINE",
"306 -4 OFFCURVE",
"350 -37 OFFCURVE",
"397 -73 CURVE SMOOTH",
"456 -118 OFFCURVE",
"515 -143 OFFCURVE",
"606 -143 CURVE SMOOTH"
);
},
{
closed = 1;
nodes = (
"260 59 OFFCURVE",
"186 164 OFFCURVE",
"186 313 CURVE SMOOTH",
"186 451 OFFCURVE",
"246 536 OFFCURVE",
"345 536 CURVE SMOOTH",
"448 536 OFFCURVE",
"516 432 OFFCURVE",
"516 275 CURVE SMOOTH",
"516 137 OFFCURVE",
"461 59 OFFCURVE",
"364 59 CURVE SMOOTH"
);
}
);
width = 701;
}
);
leftKerningGroup = O;
leftMetricsKey = O;
widthMetricsKey = O;
note = Q;
rightKerningGroup = O;
unicode = 0051;
},
{
glyphname = R;
lastChange = "2018-10-16 09:45:43 +0000";
layers = (
{
anchors = (
{
name = bottom;
position = "{301, 0}";
},
{
name = top;
position = "{253, 587}";
}
);
background = {
anchors = (
{
name = bottom;
position = "{300.857, 0}";
},
{
name = top;
position = "{253.214, 587}";
}
);
paths = (
{
closed = 1;
nodes = (
"246.75 0 LINE",
"248.286 32.429 LINE",
"184.964 46.5 LINE",
"180.036 47.607 OFFCURVE",
"178.036 84.536 OFFCURVE",
"178.036 188.786 CURVE SMOOTH",
"178.036 415.464 LINE SMOOTH",
"178.036 557.357 OFFCURVE",
"177.571 542.5 OFFCURVE",
"180.036 548.571 CURVE",
"247.321 548.571 LINE SMOOTH",
"327.429 548.571 OFFCURVE",
"369.75 510.179 OFFCURVE",
"369.75 435 CURVE SMOOTH",
"369.75 359.214 OFFCURVE",
"319.893 315.679 OFFCURVE",
"230.464 315.679 CURVE SMOOTH",
"164.179 315.679 LINE",
"164.179 276.714 LINE",
"229.964 276.714 LINE SMOOTH",
"349.857 276.714 OFFCURVE",
"434.679 347.714 OFFCURVE",
"434.679 448.179 CURVE SMOOTH",
"434.679 537.536 OFFCURVE",
"371.464 587 OFFCURVE",
"256 587 CURVE SMOOTH",
"54.571 587 LINE",
"53.036 554.571 LINE",
"112.643 541.964 LINE",
"116.643 533.5 OFFCURVE",
"118.179 491.929 OFFCURVE",
"118.179 396.75 CURVE SMOOTH",
"118.179 188.786 LINE SMOOTH",
"118.179 120.679 OFFCURVE",
"116.179 65.429 OFFCURVE",
"113.714 46.5 CURVE",
"54.107 32.429 LINE",
"55.643 0 LINE"
);
},
{
closed = 1;
nodes = (
"520.107 -9.071 OFFCURVE",
"533.786 -8.536 OFFCURVE",
"542.607 -6 CURVE",
"543.607 24.893 LINE",
"492.143 32.036 OFFCURVE",
"464.857 56.179 OFFCURVE",
"396.036 151.25 CURVE SMOOTH",
"293.143 307 LINE",
"235.321 294.179 LINE",
"308.893 169.714 LINE SMOOTH",
"390.714 29.75 OFFCURVE",
"431.5 -9.071 OFFCURVE",
"509.357 -9.071 CURVE SMOOTH"
);
}
);
};
color = -1;
layerId = "1F9E295B-DEDB-4635-AE01-A776835412CD";
paths = (
{
closed = 1;
nodes = (
"240 0 LINE",
"242 32 LINE",
"182 47 LINE",
"180 65 OFFCURVE",
"178 85 OFFCURVE",
"178 189 CURVE SMOOTH",
"178 415 LINE SMOOTH",
"178 557 OFFCURVE",
"178 543 OFFCURVE",
"180 549 CURVE",
"247 549 LINE SMOOTH",
"327 549 OFFCURVE",
"370 510 OFFCURVE",
"370 435 CURVE SMOOTH",
"370 359 OFFCURVE",
"320 316 OFFCURVE",
"230 316 CURVE SMOOTH",
"164 316 LINE",
"164 277 LINE",
"230 277 LINE SMOOTH",
"350 277 OFFCURVE",
"435 347 OFFCURVE",
"435 446 CURVE SMOOTH",
"435 536 OFFCURVE",
"368 587 OFFCURVE",
"256 587 CURVE SMOOTH",
"57 587 LINE",
"55 555 LINE",
"115 542 LINE",
"117 534 OFFCURVE",
"118 492 OFFCURVE",
"118 397 CURVE SMOOTH",
"118 189 LINE SMOOTH",
"118 121 OFFCURVE",
"116 65 OFFCURVE",
"116 47 CURVE",
"56 32 LINE",
"58 0 LINE"
);
},
{
closed = 1;
nodes = (
"520 -9 OFFCURVE",
"534 -9 OFFCURVE",
"543 -6 CURVE",
"544 24 LINE",
"492 32 OFFCURVE",
"458 57 OFFCURVE",
"396 151 CURVE SMOOTH",
"293 307 LINE",
"235 294 LINE",
"309 170 LINE SMOOTH",
"392 31 OFFCURVE",
"432 -9 OFFCURVE",
"509 -9 CURVE SMOOTH"
);
}
);
width = 541;
},
{
anchors = (
{
name = bottom;
position = "{355, 0}";
},
{
name = top;
position = "{327, 587}";
}
);
background = {
anchors = (
{
name = bottom;
position = "{355, 0}";
},
{
name = top;
position = "{327, 587}";
}
);
paths = (
{
closed = 1;
nodes = (
"323 0 LINE",
"327 57 LINE",
"273 75 LINE",
"273 111 OFFCURVE",
"271 201 OFFCURVE",
"271 234 CURVE SMOOTH",
"271 356 LINE SMOOTH",
"271 407 OFFCURVE",
"272 514 OFFCURVE",
"273 524 CURVE",
"299 524 LINE SMOOTH",
"357 524 OFFCURVE",
"389 492 OFFCURVE",
"389 435 CURVE SMOOTH",
"389 371 OFFCURVE",
"347 326 OFFCURVE",
"290 326 CURVE SMOOTH",
"265 326 LINE",
"265 260 LINE",
"318 260 LINE SMOOTH",
"461 260 OFFCURVE",
"564 331 OFFCURVE",
"564 430 CURVE SMOOTH",
"564 540 OFFCURVE",
"488 587 OFFCURVE",
"318 587 CURVE SMOOTH",
"35 587 LINE",
"32 530 LINE",
"97 511 LINE",
"101 505 OFFCURVE",
"105 431 OFFCURVE",
"105 354 CURVE SMOOTH",
"105 234 LINE SMOOTH",
"105 188 OFFCURVE",
"103 90 OFFCURVE",
"102 75 CURVE",
"37 57 LINE",
"40 0 LINE"
);
},
{
closed = 1;
nodes = (
"617 -13 OFFCURVE",
"641 -11 OFFCURVE",
"668 -6 CURVE",
"669 47 LINE",
"619 63 OFFCURVE",
"576 95 OFFCURVE",
"546 137 CURVE SMOOTH",
"420 307 LINE",
"287 276 LINE",
"336 153 LINE SMOOTH",
"379 44 OFFCURVE",
"465 -13 OFFCURVE",
"592 -13 CURVE SMOOTH"
);
}
);
};
color = -1;
layerId = "722FC537-28B1-4F35-B842-D78FAAB5B143";
paths = (
{
closed = 1;
nodes = (
"324 0 LINE",
"327 57 LINE",
"273 75 LINE",
"273 111 OFFCURVE",
"271 201 OFFCURVE",
"271 234 CURVE SMOOTH",
"271 356 LINE SMOOTH",
"271 407 OFFCURVE",
"272 514 OFFCURVE",
"273 524 CURVE",
"299 524 LINE SMOOTH",
"357 524 OFFCURVE",
"389 492 OFFCURVE",
"389 435 CURVE SMOOTH",
"389 371 OFFCURVE",
"347 326 OFFCURVE",
"290 326 CURVE SMOOTH",
"245 326 LINE",
"245 260 LINE",
"318 260 LINE SMOOTH",
"461 260 OFFCURVE",
"564 331 OFFCURVE",
"564 430 CURVE SMOOTH",
"564 540 OFFCURVE",
"488 587 OFFCURVE",
"318 587 CURVE SMOOTH",
"35 587 LINE",
"32 530 LINE",
"97 511 LINE",
"101 505 OFFCURVE",
"105 431 OFFCURVE",
"105 354 CURVE SMOOTH",
"105 234 LINE SMOOTH",
"105 188 OFFCURVE",
"103 90 OFFCURVE",
"102 75 CURVE",
"37 57 LINE",
"40 0 LINE"
);
},
{
closed = 1;
nodes = (
"617 -13 OFFCURVE",
"641 -11 OFFCURVE",
"668 -6 CURVE",
"669 47 LINE",
"619 63 OFFCURVE",
"577 96 OFFCURVE",
"546 137 CURVE SMOOTH",
"420 307 LINE",
"287 276 LINE",
"336 153 LINE SMOOTH",
"379 44 OFFCURVE",
"465 -13 OFFCURVE",
"592 -13 CURVE SMOOTH"
);
}
);
width = 669;
},
{
anchors = (
{
name = bottom;
position = "{327, 0}";
},
{
name = top;
position = "{291, 587}";
}
);
color = -1;
layerId = "76B56D5A-2442-4808-93A9-707A1715678A";
paths = (
{
closed = 1;
nodes = (
"285 0 LINE",
"288 46 LINE",
"231 62 LINE",
"228 82 OFFCURVE",
"226 148 OFFCURVE",
"226 213 CURVE SMOOTH",
"226 384 LINE SMOOTH",
"226 476 OFFCURVE",
"226 527 OFFCURVE",
"228 535 CURVE",
"273 535 LINE SMOOTH",
"341 535 OFFCURVE",
"378 500 OFFCURVE",
"378 435 CURVE SMOOTH",
"378 365 OFFCURVE",
"332 321 OFFCURVE",
"261 321 CURVE SMOOTH",
"215 321 LINE",
"215 268 LINE",
"276 268 LINE SMOOTH",
"408 268 OFFCURVE",
"502 339 OFFCURVE",
"502 438 CURVE SMOOTH",
"502 539 OFFCURVE",
"432 587 OFFCURVE",
"288 587 CURVE SMOOTH",
"42 587 LINE",
"39 541 LINE",
"102 526 LINE",
"106 518 OFFCURVE",
"109 459 OFFCURVE",
"109 373 CURVE SMOOTH",
"109 213 LINE SMOOTH",
"109 157 OFFCURVE",
"107 79 OFFCURVE",
"106 62 CURVE",
"43 46 LINE",
"46 0 LINE"
);
},
{
closed = 1;
nodes = (
"570 -11 OFFCURVE",
"589 -10 OFFCURVE",
"608 -6 CURVE",
"609 37 LINE",
"558 48 OFFCURVE",
"521 77 OFFCURVE",
"474 143 CURVE SMOOTH",
"359 307 LINE",
"261 284 LINE",
"321 161 LINE SMOOTH",
"382 38 OFFCURVE",
"448 -11 OFFCURVE",
"552 -11 CURVE SMOOTH"
);
}
);
width = 607;
}
);
leftKerningGroup = H;
note = R;
rightKerningGroup = R;
unicode = 0052;
},
{
glyphname = S;
lastChange = "2018-10-16 09:45:43 +0000";
layers = (
{
anchors = (
{
name = bottom;
position = "{235, 0}";
},
{
name = top;
position = "{235, 587}";
}
);
background = {
anchors = (
{
name = bottom;
position = "{235, 0}";
},
{
name = top;
position = "{235, 587}";
}
);
paths = (
{
closed = 1;
nodes = (
"336 -9 OFFCURVE",
"421 59 OFFCURVE",
"421 151 CURVE SMOOTH",
"421 327 OFFCURVE",
"126 309 OFFCURVE",
"126 460 CURVE SMOOTH",
"126 516 OFFCURVE",
"172 556 OFFCURVE",
"246 556 CURVE SMOOTH",
"285 556 OFFCURVE",
"312 549 OFFCURVE",
"333 534 CURVE",
"359 457 LINE",
"392 461 LINE",
"386 575 LINE",
"353 590 OFFCURVE",
"312 597 OFFCURVE",
"256 597 CURVE SMOOTH",
"143 597 OFFCURVE",
"60 532 OFFCURVE",
"60 440 CURVE SMOOTH",
"60 256 OFFCURVE",
"355 276 OFFCURVE",
"355 132 CURVE SMOOTH",
"355 71 OFFCURVE",
"306 34 OFFCURVE",
"238 34 CURVE SMOOTH",
"188 34 OFFCURVE",
"149 47 OFFCURVE",
"115 69 CURVE",
"90 151 LINE",
"57 147 LINE",
"63 27 LINE",
"97 7 OFFCURVE",
"163 -9 OFFCURVE",
"223 -9 CURVE SMOOTH"
);
}
);
};
color = -1;
layerId = "1F9E295B-DEDB-4635-AE01-A776835412CD";
paths = (
{
closed = 1;
nodes = (
"336 -9 OFFCURVE",
"421 59 OFFCURVE",
"421 151 CURVE SMOOTH",
"421 327 OFFCURVE",
"125 310 OFFCURVE",
"125 460 CURVE SMOOTH",
"125 516 OFFCURVE",
"172 556 OFFCURVE",
"246 556 CURVE SMOOTH",
"285 556 OFFCURVE",
"312 549 OFFCURVE",
"333 534 CURVE",
"359 457 LINE",
"392 461 LINE",
"386 575 LINE",
"353 589 OFFCURVE",
"312 597 OFFCURVE",
"257 597 CURVE SMOOTH",
"143 597 OFFCURVE",
"60 532 OFFCURVE",
"60 440 CURVE SMOOTH",
"60 256 OFFCURVE",
"355 275 OFFCURVE",
"355 132 CURVE SMOOTH",
"355 71 OFFCURVE",
"306 34 OFFCURVE",
"238 34 CURVE SMOOTH",
"188 34 OFFCURVE",
"149 47 OFFCURVE",
"115 69 CURVE",
"90 151 LINE",
"57 147 LINE",
"63 27 LINE",
"98 7 OFFCURVE",
"163 -9 OFFCURVE",
"222 -9 CURVE SMOOTH"
);
}
);
width = 466;
},
{
anchors = (
{
name = bottom;
position = "{280, 0}";
},
{
name = top;
position = "{280, 587}";
}
);
background = {
anchors = (
{
name = bottom;
position = "{280, 0}";
},
{
name = top;
position = "{280, 587}";
}
);
paths = (
{
closed = 1;
nodes = (
"411 -9 OFFCURVE",
"519 69 OFFCURVE",
"519 177 CURVE SMOOTH",
"519 374 OFFCURVE",
"228 331 OFFCURVE",
"228 456 CURVE SMOOTH",
"228 502 OFFCURVE",
"267 525 OFFCURVE",
"311 525 CURVE SMOOTH",
"327 525 OFFCURVE",
"349 524 OFFCURVE",
"375 513 CURVE",
"410 406 LINE",
"486 410 LINE",
"471 569 LINE",
"433 586 OFFCURVE",
"363 599 OFFCURVE",
"321 599 CURVE SMOOTH",
"159 599 OFFCURVE",
"54 522 OFFCURVE",
"54 408 CURVE SMOOTH",
"54 197 OFFCURVE",
"340 258 OFFCURVE",
"340 122 CURVE SMOOTH",
"340 88 OFFCURVE",
"314 66 OFFCURVE",
"258 66 CURVE SMOOTH",
"237 66 OFFCURVE",
"195 72 OFFCURVE",
"168 90 CURVE",
"131 202 LINE",
"53 198 LINE",
"57 39 LINE",
"111 9 OFFCURVE",
"190 -9 OFFCURVE",
"246 -9 CURVE SMOOTH"
);
}
);
};
color = -1;
layerId = "722FC537-28B1-4F35-B842-D78FAAB5B143";
paths = (
{
closed = 1;
nodes = (
"411 -9 OFFCURVE",
"519 69 OFFCURVE",
"519 177 CURVE SMOOTH",
"519 374 OFFCURVE",
"228 331 OFFCURVE",
"228 454 CURVE SMOOTH",
"228 502 OFFCURVE",
"267 525 OFFCURVE",
"311 525 CURVE SMOOTH",
"335 525 OFFCURVE",
"356 521 OFFCURVE",
"375 513 CURVE",
"410 406 LINE",
"486 410 LINE",
"471 569 LINE",
"433 586 OFFCURVE",
"363 599 OFFCURVE",
"321 599 CURVE SMOOTH",
"159 599 OFFCURVE",
"54 522 OFFCURVE",
"54 408 CURVE SMOOTH",
"54 197 OFFCURVE",
"340 258 OFFCURVE",
"340 125 CURVE SMOOTH",
"340 88 OFFCURVE",
"313 66 OFFCURVE",
"258 66 CURVE SMOOTH",
"227 66 OFFCURVE",
"189 76 OFFCURVE",
"168 90 CURVE",
"131 202 LINE",
"53 198 LINE",
"57 39 LINE",
"111 9 OFFCURVE",
"190 -9 OFFCURVE",
"246 -9 CURVE SMOOTH"
);
}
);
width = 543;
},
{
anchors = (
{
name = bottom;
position = "{256, 0}";
},
{
name = top;
position = "{256, 587}";
}
);
color = -1;
layerId = "76B56D5A-2442-4808-93A9-707A1715678A";
paths = (
{
closed = 1;
nodes = (
"373 -9 OFFCURVE",
"470 64 OFFCURVE",
"470 165 CURVE SMOOTH",
"470 353 OFFCURVE",
"177 321 OFFCURVE",
"177 458 CURVE SMOOTH",
"177 508 OFFCURVE",
"219 540 OFFCURVE",
"277 540 CURVE SMOOTH",
"305 540 OFFCURVE",
"328 535 OFFCURVE",
"352 522 CURVE",
"382 429 LINE",
"439 433 LINE",
"429 572 LINE",
"393 588 OFFCURVE",
"335 598 OFFCURVE",
"287 598 CURVE SMOOTH",
"148 598 OFFCURVE",
"53 527 OFFCURVE",
"53 423 CURVE SMOOTH",
"53 225 OFFCURVE",
"343 266 OFFCURVE",
"343 127 CURVE SMOOTH",
"343 80 OFFCURVE",
"307 51 OFFCURVE",
"245 51 CURVE SMOOTH",
"210 51 OFFCURVE",
"170 61 OFFCURVE",
"140 81 CURVE",
"108 179 LINE",
"51 175 LINE",
"56 33 LINE",
"101 8 OFFCURVE",
"174 -9 OFFCURVE",
"231 -9 CURVE SMOOTH"
);
}
);
width = 501;
}
);
leftKerningGroup = S;
note = S;
rightKerningGroup = S;
unicode = 0053;
},
{
glyphname = Germandbls;
lastChange = "2018-10-16 09:45:43 +0000";
layers = (
{
background = {
paths = (
{
closed = 1;
nodes = (
"232.107 0 LINE",
"233.643 32.429 LINE",
"172.643 45.036 LINE",
"167.179 53.036 OFFCURVE",
"165.643 92 OFFCURVE",
"166.107 188.786 CURVE",
"165.571 384.036 LINE",
"166.036 493.5 OFFCURVE",
"220.429 556.429 OFFCURVE",
"311.893 556.429 CURVE SMOOTH",
"375.214 556.429 OFFCURVE",
"422.071 524.643 OFFCURVE",
"439.143 468.929 CURVE",
"489 468.929 LINE",
"458.393 553.929 OFFCURVE",
"397.571 596.536 OFFCURVE",
"314.143 596.536 CURVE SMOOTH",
"183.821 596.536 OFFCURVE",
"104.25 509.643 OFFCURVE",
"104.25 358.357 CURVE",
"105.25 188.786 LINE",
"105.25 112.179 OFFCURVE",
"102.25 57.429 OFFCURVE",
"98.25 45.036 CURVE",
"38.643 32.429 LINE",
"40.179 0 LINE"
);
},
{
closed = 1;
nodes = (
"557.75 -9 OFFCURVE",
"625.393 43.286 OFFCURVE",
"625.393 128.893 CURVE SMOOTH",
"625.393 281.571 OFFCURVE",
"369.214 252.25 OFFCURVE",
"369.214 374.536 CURVE SMOOTH",
"369.214 416 OFFCURVE",
"404.214 451.107 OFFCURVE",
"476.5 451.107 CURVE SMOOTH",
"504.143 451.107 OFFCURVE",
"524.536 448.643 OFFCURVE",
"544.857 440.25 CURVE",
"565.071 370.286 LINE",
"598.25 374.286 LINE",
"592.643 473.536 LINE",
"565.036 482.607 OFFCURVE",
"524.536 489.143 OFFCURVE",
"481.75 489.143 CURVE SMOOTH",
"364.893 489.143 OFFCURVE",
"303.179 430.857 OFFCURVE",
"303.179 356.964 CURVE SMOOTH",
"303.179 202.679 OFFCURVE",
"558.821 233.036 OFFCURVE",
"558.821 111.321 CURVE SMOOTH",
"558.821 65.536 OFFCURVE",
"525.214 32.5 OFFCURVE",
"464.179 32.5 CURVE SMOOTH",
"425.607 32.5 OFFCURVE",
"384.964 45.286 OFFCURVE",
"353.179 66.143 CURVE",
"335.429 153.071 LINE",
"298.786 149.071 LINE",
"300.321 27.393 LINE",
"335.464 7.857 OFFCURVE",
"391.75 -9 OFFCURVE",
"452.393 -9 CURVE SMOOTH"
);
}
);
};
color = -1;
layerId = "1F9E295B-DEDB-4635-AE01-A776835412CD";
paths = (
{
closed = 1;
nodes = (
"229 0 LINE",
"231 32 LINE",
"171 45 LINE",
"167 53 OFFCURVE",
"166 92 OFFCURVE",
"166 189 CURVE",
"165 384 LINE",
"165 500 OFFCURVE",
"220 556 OFFCURVE",
"312 556 CURVE SMOOTH",
"375 556 OFFCURVE",
"422 525 OFFCURVE",
"439 469 CURVE",
"489 469 LINE",
"460 554 OFFCURVE",
"398 597 OFFCURVE",
"312 597 CURVE SMOOTH",
"184 597 OFFCURVE",
"104 510 OFFCURVE",
"104 358 CURVE",
"105 189 LINE",
"105 112 OFFCURVE",
"102 57 OFFCURVE",
"100 45 CURVE",
"40 32 LINE",
"42 0 LINE"
);
},
{
closed = 1;
nodes = (
"558 -9 OFFCURVE",
"625 43 OFFCURVE",
"625 129 CURVE SMOOTH",
"625 282 OFFCURVE",
"368 252 OFFCURVE",
"368 375 CURVE SMOOTH",
"368 416 OFFCURVE",
"404 451 OFFCURVE",
"477 451 CURVE SMOOTH",
"504 451 OFFCURVE",
"525 449 OFFCURVE",
"545 440 CURVE",
"565 370 LINE",
"598 374 LINE",
"593 474 LINE",
"563 483 OFFCURVE",
"525 489 OFFCURVE",
"482 489 CURVE SMOOTH",
"365 489 OFFCURVE",
"303 431 OFFCURVE",
"303 357 CURVE SMOOTH",
"303 203 OFFCURVE",
"559 233 OFFCURVE",
"559 111 CURVE SMOOTH",
"559 66 OFFCURVE",
"525 33 OFFCURVE",
"464 33 CURVE SMOOTH",
"426 33 OFFCURVE",
"385 45 OFFCURVE",
"353 66 CURVE",
"335 153 LINE",
"299 149 LINE",
"300 27 LINE",
"336 7 OFFCURVE",
"392 -9 OFFCURVE",
"452 -9 CURVE SMOOTH"
);
}
);
width = 672;
},
{
background = {
paths = (
{
closed = 1;
nodes = (
"328 0 LINE",
"331 57 LINE",
"270 76 LINE",
"267 84 OFFCURVE",
"263 149 OFFCURVE",
"262 234 CURVE",
"259 358 LINE",
"258 465 OFFCURVE",
"306 524 OFFCURVE",
"395 524 CURVE SMOOTH",
"448 524 OFFCURVE",
"487 504 OFFCURVE",
"508 465 CURVE",
"607 465 LINE",
"570 550 OFFCURVE",
"491 599 OFFCURVE",
"383 599 CURVE SMOOTH",
"206 599 OFFCURVE",
"94 489 OFFCURVE",
"94 322 CURVE",
"95 234 LINE",
"95 151 OFFCURVE",
"92 82 OFFCURVE",
"88 76 CURVE",
"22 57 LINE",
"26 0 LINE"
);
},
{
closed = 1;
nodes = (
"633 -9 OFFCURVE",
"737 60 OFFCURVE",
"737 151 CURVE SMOOTH",
"737 314 OFFCURVE",
"499 295 OFFCURVE",
"499 377 CURVE SMOOTH",
"499 416 OFFCURVE",
"534 429 OFFCURVE",
"566 429 CURVE SMOOTH",
"573 429 OFFCURVE",
"588 428 OFFCURVE",
"598 426 CURVE",
"630 330 LINE",
"702 334 LINE",
"690 476 LINE",
"657 489 OFFCURVE",
"588 497 OFFCURVE",
"557 497 CURVE SMOOTH",
"448 497 OFFCURVE",
"346 423 OFFCURVE",
"346 326 CURVE SMOOTH",
"346 156 OFFCURVE",
"581 207 OFFCURVE",
"581 101 CURVE SMOOTH",
"581 68 OFFCURVE",
"541 61 OFFCURVE",
"507 61 CURVE SMOOTH",
"493 61 OFFCURVE",
"472 62 OFFCURVE",
"453 74 CURVE",
"421 157 LINE",
"348 153 LINE",
"351 21 LINE",
"394 0 OFFCURVE",
"467 -9 OFFCURVE",
"507 -9 CURVE SMOOTH"
);
}
);
};
color = -1;
layerId = "722FC537-28B1-4F35-B842-D78FAAB5B143";
paths = (
{
closed = 1;
nodes = (
"324 0 LINE",
"327 57 LINE",
"270 76 LINE",
"267 84 OFFCURVE",
"263 149 OFFCURVE",
"262 234 CURVE",
"259 358 LINE",
"258 465 OFFCURVE",
"306 524 OFFCURVE",
"395 524 CURVE SMOOTH",
"448 524 OFFCURVE",
"487 504 OFFCURVE",
"508 465 CURVE",
"607 465 LINE",
"570 550 OFFCURVE",
"491 599 OFFCURVE",
"383 599 CURVE SMOOTH",
"206 599 OFFCURVE",
"94 489 OFFCURVE",
"94 322 CURVE",
"95 234 LINE",
"95 151 OFFCURVE",
"92 82 OFFCURVE",
"88 76 CURVE",
"23 57 LINE",
"26 0 LINE"
);
},
{
closed = 1;
nodes = (
"633 -9 OFFCURVE",
"737 60 OFFCURVE",
"737 151 CURVE SMOOTH",
"737 314 OFFCURVE",
"499 295 OFFCURVE",
"499 377 CURVE SMOOTH",
"499 416 OFFCURVE",
"534 430 OFFCURVE",
"566 430 CURVE SMOOTH",
"573 430 OFFCURVE",
"588 429 OFFCURVE",
"598 427 CURVE",
"630 331 LINE",
"702 335 LINE",
"690 476 LINE",
"657 489 OFFCURVE",
"588 497 OFFCURVE",
"557 497 CURVE SMOOTH",
"448 497 OFFCURVE",
"346 423 OFFCURVE",
"346 326 CURVE SMOOTH",
"346 156 OFFCURVE",
"581 207 OFFCURVE",
"581 107 CURVE SMOOTH",
"581 68 OFFCURVE",
"541 61 OFFCURVE",
"511 61 CURVE SMOOTH",
"488 61 OFFCURVE",
"467 67 OFFCURVE",
"453 74 CURVE",
"421 157 LINE",
"348 153 LINE",
"351 21 LINE",
"394 0 OFFCURVE",
"467 -9 OFFCURVE",
"507 -9 CURVE SMOOTH"
);
}
);
width = 765;
},
{
color = -1;
layerId = "76B56D5A-2442-4808-93A9-707A1715678A";
paths = (
{
closed = 1;
nodes = (
"282 0 LINE",
"284 46 LINE",
"223 61 LINE",
"219 69 OFFCURVE",
"216 123 OFFCURVE",
"216 213 CURVE",
"214 370 LINE",
"214 478 OFFCURVE",
"265 539 OFFCURVE",
"355 539 CURVE SMOOTH",
"413 539 OFFCURVE",
"456 513 OFFCURVE",
"475 467 CURVE",
"551 467 LINE",
"517 552 OFFCURVE",
"446 598 OFFCURVE",
"350 598 CURVE SMOOTH",
"194 598 OFFCURVE",
"97 498 OFFCURVE",
"97 339 CURVE",
"98 213 LINE",
"98 134 OFFCURVE",
"95 71 OFFCURVE",
"91 61 CURVE",
"28 46 LINE",
"31 0 LINE"
);
},
{
closed = 1;
nodes = (
"596 -9 OFFCURVE",
"684 52 OFFCURVE",
"684 141 CURVE SMOOTH",
"684 299 OFFCURVE",
"437 276 OFFCURVE",
"437 376 CURVE SMOOTH",
"437 416 OFFCURVE",
"472 439 OFFCURVE",
"523 439 CURVE SMOOTH",
"540 439 OFFCURVE",
"557 437 OFFCURVE",
"571 433 CURVE",
"599 348 LINE",
"652 352 LINE",
"643 475 LINE",
"613 486 OFFCURVE",
"557 493 OFFCURVE",
"520 493 CURVE SMOOTH",
"408 493 OFFCURVE",
"325 427 OFFCURVE",
"325 341 CURVE SMOOTH",
"325 177 OFFCURVE",
"569 219 OFFCURVE",
"569 106 CURVE SMOOTH",
"569 67 OFFCURVE",
"532 48 OFFCURVE",
"486 48 CURVE SMOOTH",
"459 48 OFFCURVE",
"430 54 OFFCURVE",
"405 70 CURVE",
"380 155 LINE",
"323 151 LINE",
"326 24 LINE",
"365 4 OFFCURVE",
"430 -9 OFFCURVE",
"480 -9 CURVE SMOOTH"
);
}
);
width = 717;
}
);
leftKerningGroup = Germandbls;
rightKerningGroup = S;
unicode = 1E9E;
},
{
glyphname = Schwa;
lastChange = "2018-10-16 09:45:43 +0000";
layers = (
{
anchors = (
{
name = bottom;
position = "{324, 0}";
},
{
name = top;
position = "{324, 587}";
}
);
background = {
anchors = (
{
name = bottom;
position = "{324.143, 0}";
},
{
name = top;
position = "{324.143, 587}";
}
);
paths = (
{
closed = 1;
nodes = (
"208.25 596 OFFCURVE",
"111.107 540.786 OFFCURVE",
"63.107 451.893 CURVE",
"97.036 427.75 LINE",
"141.643 483.143 OFFCURVE",
"208.5 517 OFFCURVE",
"283.107 517 CURVE SMOOTH",
"424.536 517 OFFCURVE",
"515.107 420.429 OFFCURVE",
"515.107 263.286 CURVE SMOOTH",
"515.107 248.321 LINE SMOOTH",
"515.107 117.286 OFFCURVE",
"442.357 34.714 OFFCURVE",
"330.607 34.714 CURVE SMOOTH",
"213.143 34.714 OFFCURVE",
"146.5 105.357 OFFCURVE",
"146.5 214.321 CURVE SMOOTH",
"146.5 240.75 LINE",
"128.429 232.107 LINE",
"525.821 232.107 LINE",
"525.821 281.607 LINE",
"59.107 281.607 LINE",
"59.107 261.25 LINE SMOOTH",
"59.107 95.929 OFFCURVE",
"157.071 -7.536 OFFCURVE",
"318.893 -9 CURVE SMOOTH",
"478.821 -9.464 OFFCURVE",
"589.643 117.821 OFFCURVE",
"589.643 307.857 CURVE SMOOTH",
"589.643 480.25 OFFCURVE",
"478.75 596 OFFCURVE",
"313.143 596 CURVE SMOOTH"
);
}
);
};
color = -1;
layerId = "1F9E295B-DEDB-4635-AE01-A776835412CD";
paths = (
{
closed = 1;
nodes = (
"208 596 OFFCURVE",
"107 533 OFFCURVE",
"63 452 CURVE",
"95 429 LINE",
"143 489 OFFCURVE",
"209 523 OFFCURVE",
"291 523 CURVE SMOOTH",
"427 523 OFFCURVE",
"515 425 OFFCURVE",
"515 263 CURVE SMOOTH",
"515 248 LINE SMOOTH",
"515 117 OFFCURVE",
"442 35 OFFCURVE",
"325 35 CURVE SMOOTH",
"213 35 OFFCURVE",
"147 105 OFFCURVE",
"147 214 CURVE SMOOTH",
"147 241 LINE",
"128 232 LINE",
"526 232 LINE",
"526 282 LINE",
"59 282 LINE",
"59 261 LINE SMOOTH",
"59 96 OFFCURVE",
"157 -8 OFFCURVE",
"319 -9 CURVE SMOOTH",
"479 -9 OFFCURVE",
"590 118 OFFCURVE",
"590 308 CURVE SMOOTH",
"590 480 OFFCURVE",
"479 596 OFFCURVE",
"313 596 CURVE SMOOTH"
);
}
);
width = 645;
},
{
anchors = (
{
name = bottom;
position = "{337, 0}";
},
{
name = top;
position = "{337, 587}";
}
);
background = {
anchors = (
{
name = bottom;
position = "{337, 0}";
},
{
name = top;
position = "{337, 587}";
}
);
paths = (
{
closed = 1;
nodes = (
"199 596 OFFCURVE",
"94 529 OFFCURVE",
"46 417 CURVE",
"76 385 LINE",
"126 434 OFFCURVE",
"185 460 OFFCURVE",
"266 460 CURVE SMOOTH",
"375 460 OFFCURVE",
"441 388 OFFCURVE",
"441 280 CURVE SMOOTH",
"441 238 LINE SMOOTH",
"441 134 OFFCURVE",
"411 75 OFFCURVE",
"342 75 CURVE SMOOTH",
"283 75 OFFCURVE",
"237 126 OFFCURVE",
"237 204 CURVE SMOOTH",
"237 255 LINE",
"215 210 LINE",
"549 210 LINE",
"549 288 LINE",
"42 288 LINE",
"42 247 LINE SMOOTH",
"42 92 OFFCURVE",
"166 -10 OFFCURVE",
"346 -9 CURVE SMOOTH",
"502 -7 OFFCURVE",
"631 136 OFFCURVE",
"631 300 CURVE SMOOTH",
"631 466 OFFCURVE",
"498 596 OFFCURVE",
"326 596 CURVE SMOOTH"
);
}
);
};
color = -1;
layerId = "722FC537-28B1-4F35-B842-D78FAAB5B143";
paths = (
{
closed = 1;
nodes = (
"199 596 OFFCURVE",
"94 529 OFFCURVE",
"46 417 CURVE",
"76 385 LINE",
"126 434 OFFCURVE",
"185 460 OFFCURVE",
"266 460 CURVE SMOOTH",
"375 460 OFFCURVE",
"441 388 OFFCURVE",
"441 280 CURVE SMOOTH",
"441 238 LINE SMOOTH",
"441 134 OFFCURVE",
"411 75 OFFCURVE",
"339 75 CURVE SMOOTH",
"277 75 OFFCURVE",
"237 126 OFFCURVE",
"237 204 CURVE SMOOTH",
"237 255 LINE",
"215 210 LINE",
"549 210 LINE",
"549 288 LINE",
"42 288 LINE",
"42 247 LINE SMOOTH",
"42 92 OFFCURVE",
"166 -10 OFFCURVE",
"340 -8 CURVE SMOOTH",
"502 -7 OFFCURVE",
"631 136 OFFCURVE",
"631 300 CURVE SMOOTH",
"631 466 OFFCURVE",
"498 596 OFFCURVE",
"326 596 CURVE SMOOTH"
);
}
);
width = 673;
},
{
anchors = (
{
name = bottom;
position = "{329, 0}";
},
{
name = top;
position = "{329, 587}";
}
);
color = -1;
layerId = "76B56D5A-2442-4808-93A9-707A1715678A";
paths = (
{
closed = 1;
nodes = (
"201 596 OFFCURVE",
"100 535 OFFCURVE",
"52 434 CURVE",
"83 404 LINE",
"131 457 OFFCURVE",
"193 487 OFFCURVE",
"272 487 CURVE SMOOTH",
"395 487 OFFCURVE",
"472 403 OFFCURVE",
"472 272 CURVE SMOOTH",
"472 243 LINE SMOOTH",
"472 126 OFFCURVE",
"423 57 OFFCURVE",
"334 57 CURVE SMOOTH",
"248 57 OFFCURVE",
"193 117 OFFCURVE",
"193 209 CURVE SMOOTH",
"193 249 LINE",
"173 220 LINE",
"536 220 LINE",
"536 285 LINE",
"48 285 LINE",
"48 253 LINE SMOOTH",
"48 94 OFFCURVE",
"160 -9 OFFCURVE",
"331 -9 CURVE SMOOTH",
"489 -8 OFFCURVE",
"610 128 OFFCURVE",
"610 304 CURVE SMOOTH",
"610 472 OFFCURVE",
"487 596 OFFCURVE",
"318 596 CURVE SMOOTH"
);
}
);
width = 656;
}
);
leftKerningGroup = O;
rightKerningGroup = O;
unicode = 018F;
},
{
glyphname = T;
lastChange = "2018-10-16 09:45:43 +0000";
layers = (
{
anchors = (
{
name = bottom;
position = "{267, 0}";
},
{
name = stroke;
position = "{266, 303}";
},
{
name = top;
position = "{266, 587}";
}
);
background = {
anchors = (
{
name = bottom;
position = "{267.464, 0}";
},
{
name = stroke;
position = "{266, 303}";
},
{
name = top;
position = "{266, 587}";
}
);
paths = (
{
closed = 1;
nodes = (
"458.143 588.071 OFFCURVE",
"444.571 587 OFFCURVE",
"415.893 587 CURVE SMOOTH",
"114.571 587 LINE SMOOTH",
"86.357 587 OFFCURVE",
"72.321 588.071 OFFCURVE",
"38.929 590.536 CURVE",
"17.464 436.429 LINE",
"53.107 430.429 LINE",
"96.964 542.571 LINE",
"104.714 544.571 OFFCURVE",
"118.179 545.571 OFFCURVE",
"127.393 545.571 CURVE SMOOTH",
"167.25 545.571 LINE SMOOTH",
"182.179 545.571 OFFCURVE",
"212.357 546.036 OFFCURVE",
"233.536 543.571 CURVE",
"234.536 527.643 OFFCURVE",
"235.071 436.964 OFFCURVE",
"235.071 372.393 CURVE SMOOTH",
"235.071 217.429 LINE SMOOTH",
"235.071 127.321 OFFCURVE",
"233.071 58.929 OFFCURVE",
"232.536 45.036 CURVE",
"149.929 34.429 LINE",
"151.464 0 LINE",
"380.536 0 LINE",
"382.071 34.429 LINE",
"299.464 45.036 LINE",
"298.929 58.929 OFFCURVE",
"296.929 127.321 OFFCURVE",
"296.929 217.429 CURVE SMOOTH",
"296.929 372.393 LINE SMOOTH",
"296.929 436.964 OFFCURVE",
"297.464 527.643 OFFCURVE",
"298.464 543.571 CURVE",
"319.643 546.036 OFFCURVE",
"351.286 545.571 OFFCURVE",
"364.75 545.571 CURVE SMOOTH",
"402.143 545.571 LINE SMOOTH",
"411.357 545.571 OFFCURVE",
"427.214 544.571 OFFCURVE",
"434.964 542.571 CURVE",
"477.893 430.964 LINE",
"513.536 435.964 LINE",
"492 590.536 LINE"
);
}
);
};
color = -1;
layerId = "1F9E295B-DEDB-4635-AE01-A776835412CD";
paths = (
{
closed = 1;
nodes = (
"458 588 OFFCURVE",
"445 587 OFFCURVE",
"416 587 CURVE SMOOTH",
"115 587 LINE SMOOTH",
"86 587 OFFCURVE",
"72 588 OFFCURVE",
"39 591 CURVE",
"17 436 LINE",
"53 430 LINE",
"97 543 LINE",
"105 545 OFFCURVE",
"118 546 OFFCURVE",
"127 546 CURVE SMOOTH",
"167 546 LINE SMOOTH",
"182 546 OFFCURVE",
"212 546 OFFCURVE",
"234 545 CURVE",
"235 528 OFFCURVE",
"235 437 OFFCURVE",
"235 372 CURVE SMOOTH",
"235 217 LINE SMOOTH",
"235 127 OFFCURVE",
"233 59 OFFCURVE",
"233 45 CURVE",
"150 34 LINE",
"152 0 LINE",
"380 0 LINE",
"382 34 LINE",
"299 45 LINE",
"299 59 OFFCURVE",
"297 127 OFFCURVE",
"297 217 CURVE SMOOTH",
"297 372 LINE SMOOTH",
"297 437 OFFCURVE",
"297 528 OFFCURVE",
"298 545 CURVE",
"320 546 OFFCURVE",
"351 546 OFFCURVE",
"365 546 CURVE SMOOTH",
"402 546 LINE SMOOTH",
"411 546 OFFCURVE",
"427 545 OFFCURVE",
"435 543 CURVE",
"478 431 LINE",
"514 436 LINE",
"492 591 LINE"
);
}
);
width = 532;
},
{
anchors = (
{
name = bottom;
position = "{326, 0}";
},
{
name = stroke;
position = "{327, 303}";
},
{
name = top;
position = "{327, 587}";
}
);
background = {
anchors = (
{
name = bottom;
position = "{326, 0}";
},
{
name = stroke;
position = "{327, 303}";
},
{
name = top;
position = "{327, 587}";
}
);
paths = (
{
closed = 1;
nodes = (
"584 592 OFFCURVE",
"481 587 OFFCURVE",
"442 587 CURVE SMOOTH",
"208 587 LINE SMOOTH",
"168 587 OFFCURVE",
"66 592 OFFCURVE",
"39 593 CURVE",
"19 404 LINE",
"92 398 LINE",
"127 518 LINE",
"149 520 OFFCURVE",
"161 521 OFFCURVE",
"182 521 CURVE SMOOTH",
"214 521 LINE SMOOTH",
"225 521 OFFCURVE",
"237 520 OFFCURVE",
"240 519 CURVE",
"241 507 OFFCURVE",
"243 406 OFFCURVE",
"243 309 CURVE SMOOTH",
"243 242 LINE SMOOTH",
"243 174 OFFCURVE",
"241 112 OFFCURVE",
"239 76 CURVE",
"150 59 LINE",
"153 0 LINE",
"501 0 LINE",
"504 59 LINE",
"415 76 LINE",
"413 112 OFFCURVE",
"411 174 OFFCURVE",
"411 242 CURVE SMOOTH",
"411 309 LINE SMOOTH",
"411 406 OFFCURVE",
"413 507 OFFCURVE",
"414 519 CURVE",
"417 520 OFFCURVE",
"429 521 OFFCURVE",
"440 521 CURVE SMOOTH",
"471 521 LINE SMOOTH",
"493 521 OFFCURVE",
"500 520 OFFCURVE",
"522 518 CURVE",
"561 400 LINE",
"634 405 LINE",
"610 593 LINE"
);
}
);
};
color = -1;
layerId = "722FC537-28B1-4F35-B842-D78FAAB5B143";
paths = (
{
closed = 1;
nodes = (
"584 592 OFFCURVE",
"481 587 OFFCURVE",
"442 587 CURVE SMOOTH",
"208 587 LINE SMOOTH",
"168 587 OFFCURVE",
"66 592 OFFCURVE",
"39 593 CURVE",
"19 404 LINE",
"92 398 LINE",
"127 518 LINE",
"139 520 OFFCURVE",
"161 521 OFFCURVE",
"182 521 CURVE SMOOTH",
"214 521 LINE SMOOTH",
"224 521 OFFCURVE",
"237 520 OFFCURVE",
"240 519 CURVE",
"241 507 OFFCURVE",
"243 406 OFFCURVE",
"243 309 CURVE SMOOTH",
"243 242 LINE SMOOTH",
"243 174 OFFCURVE",
"241 112 OFFCURVE",
"239 76 CURVE",
"150 59 LINE",
"153 0 LINE",
"501 0 LINE",
"504 59 LINE",
"415 76 LINE",
"413 112 OFFCURVE",
"411 174 OFFCURVE",
"411 242 CURVE SMOOTH",
"411 309 LINE SMOOTH",
"411 406 OFFCURVE",
"413 507 OFFCURVE",
"414 519 CURVE",
"417 520 OFFCURVE",
"429 521 OFFCURVE",
"440 521 CURVE SMOOTH",
"471 521 LINE SMOOTH",
"493 521 OFFCURVE",
"510 520 OFFCURVE",
"522 518 CURVE",
"561 400 LINE",
"634 405 LINE",
"610 593 LINE"
);
}
);
width = 654;
},
{
anchors = (
{
name = bottom;
position = "{298, 0}";
},
{
name = stroke;
position = "{298, 303}";
},
{
name = top;
position = "{298, 587}";
}
);
color = -1;
layerId = "76B56D5A-2442-4808-93A9-707A1715678A";
paths = (
{
closed = 1;
nodes = (
"525 590 OFFCURVE",
"464 587 OFFCURVE",
"429 587 CURVE SMOOTH",
"164 587 LINE SMOOTH",
"129 587 OFFCURVE",
"68 590 OFFCURVE",
"38 592 CURVE",
"17 419 LINE",
"73 413 LINE",
"112 529 LINE",
"127 531 OFFCURVE",
"141 532 OFFCURVE",
"156 532 CURVE SMOOTH",
"192 532 LINE SMOOTH",
"205 532 OFFCURVE",
"225 532 OFFCURVE",
"236 530 CURVE",
"237 516 OFFCURVE",
"238 421 OFFCURVE",
"238 338 CURVE SMOOTH",
"238 231 LINE SMOOTH",
"238 153 OFFCURVE",
"236 87 OFFCURVE",
"235 61 CURVE",
"149 48 LINE",
"152 0 LINE",
"444 0 LINE",
"447 48 LINE",
"361 61 LINE",
"360 87 OFFCURVE",
"358 153 OFFCURVE",
"358 231 CURVE SMOOTH",
"358 338 LINE SMOOTH",
"358 421 OFFCURVE",
"359 516 OFFCURVE",
"360 530 CURVE",
"371 532 OFFCURVE",
"392 532 OFFCURVE",
"404 532 CURVE SMOOTH",
"439 532 LINE SMOOTH",
"454 532 OFFCURVE",
"467 531 OFFCURVE",
"482 529 CURVE",
"522 415 LINE",
"578 420 LINE",
"555 592 LINE"
);
}
);
width = 596;
}
);
leftKerningGroup = T;
note = T;
rightKerningGroup = T;
unicode = 0054;
},
{
glyphname = U;
lastChange = "2018-10-16 09:45:43 +0000";
layers = (
{
anchors = (
{
name = bottom;
position = "{332, 0}";
},
{
name = ogonek;
position = "{401, 0}";
},
{
name = top;
position = "{333, 587}";
},
{
name = topright;
position = "{629, 587}";
}
);
background = {
anchors = (
{
name = bottom;
position = "{332, 0}";
},
{
name = ogonek;
position = "{401, 0}";
},
{
name = top;
position = "{333, 587}";
},
{
name = topright;
position = "{629, 587}";
}
);
paths = (
{
closed = 1;
nodes = (
"49 555 LINE",
"108 541 LINE",
"111 535 OFFCURVE",
"114 518 OFFCURVE",
"114 397 CURVE SMOOTH",
"114 209 LINE SMOOTH",
"114 71 OFFCURVE",
"197 -9 OFFCURVE",
"332 -9 CURVE SMOOTH",
"444 -9 OFFCURVE",
"536 57 OFFCURVE",
"536 229 CURVE SMOOTH",
"536 379 LINE SMOOTH",
"536 515 OFFCURVE",
"539 535 OFFCURVE",
"540 541 CURVE",
"600 555 LINE",
"598 587 LINE",
"411 587 LINE",
"410 555 LINE",
"480 541 LINE",
"482 535 OFFCURVE",
"487 515 OFFCURVE",
"487 379 CURVE SMOOTH",
"487 228 LINE SMOOTH",
"487 91 OFFCURVE",
"423 44 OFFCURVE",
"338 44 CURVE SMOOTH",
"247 44 OFFCURVE",
"179 88 OFFCURVE",
"177 219 CURVE",
"177 397 LINE",
"176 520 OFFCURVE",
"179 538 OFFCURVE",
"182 541 CURVE",
"241 555 LINE",
"240 587 LINE",
"50 587 LINE"
);
}
);
};
color = -1;
layerId = "1F9E295B-DEDB-4635-AE01-A776835412CD";
paths = (
{
closed = 1;
nodes = (
"50 555 LINE",
"110 541 LINE",
"111 535 OFFCURVE",
"114 518 OFFCURVE",
"114 397 CURVE SMOOTH",
"114 209 LINE SMOOTH",
"114 71 OFFCURVE",
"197 -9 OFFCURVE",
"332 -9 CURVE SMOOTH",
"444 -9 OFFCURVE",
"536 57 OFFCURVE",
"536 229 CURVE SMOOTH",
"536 379 LINE SMOOTH",
"536 515 OFFCURVE",
"538 535 OFFCURVE",
"538 541 CURVE",
"598 555 LINE",
"595 587 LINE",
"414 587 LINE",
"412 555 LINE",
"482 541 LINE",
"485 523 OFFCURVE",
"487 460 OFFCURVE",
"487 379 CURVE SMOOTH",
"487 228 LINE SMOOTH",
"487 91 OFFCURVE",
"423 44 OFFCURVE",
"338 44 CURVE SMOOTH",
"247 44 OFFCURVE",
"179 88 OFFCURVE",
"177 219 CURVE",
"177 397 LINE",
"176 520 OFFCURVE",
"179 538 OFFCURVE",
"180 541 CURVE",
"240 555 LINE",
"238 587 LINE",
"52 587 LINE"
);
}
);
width = 649;
},
{
anchors = (
{
name = bottom;
position = "{404, 0}";
},
{
name = ogonek;
position = "{455, 0}";
},
{
name = top;
position = "{403, 587}";
},
{
name = topright;
position = "{691, 587}";
}
);
background = {
anchors = (
{
name = bottom;
position = "{404, 0}";
},
{
name = ogonek;
position = "{455, 0}";
},
{
name = top;
position = "{403, 587}";
},
{
name = topright;
position = "{691, 587}";
}
);
paths = (
{
closed = 1;
nodes = (
"29 530 LINE",
"95 512 LINE",
"99 504 OFFCURVE",
"102 421 OFFCURVE",
"102 354 CURVE SMOOTH",
"102 262 LINE SMOOTH",
"102 88 OFFCURVE",
"200 -9 OFFCURVE",
"380 -9 CURVE SMOOTH",
"542 -9 OFFCURVE",
"633 102 OFFCURVE",
"633 255 CURVE SMOOTH",
"633 336 LINE SMOOTH",
"633 405 OFFCURVE",
"636 506 OFFCURVE",
"641 512 CURVE",
"707 530 LINE",
"703 587 LINE",
"463 587 LINE",
"460 530 LINE",
"530 512 LINE",
"534 506 OFFCURVE",
"537 405 OFFCURVE",
"537 336 CURVE SMOOTH",
"537 279 LINE SMOOTH",
"537 166 OFFCURVE",
"499 103 OFFCURVE",
"404 103 CURVE SMOOTH",
"309 103 OFFCURVE",
"269 170 OFFCURVE",
"270 282 CURVE",
"270 354 LINE",
"270 414 OFFCURVE",
"273 483 OFFCURVE",
"276 512 CURVE",
"342 530 LINE",
"338 587 LINE",
"33 587 LINE"
);
}
);
};
color = -1;
layerId = "722FC537-28B1-4F35-B842-D78FAAB5B143";
paths = (
{
closed = 1;
nodes = (
"30 530 LINE",
"95 512 LINE",
"99 504 OFFCURVE",
"102 421 OFFCURVE",
"102 354 CURVE SMOOTH",
"102 262 LINE SMOOTH",
"102 88 OFFCURVE",
"200 -9 OFFCURVE",
"380 -9 CURVE SMOOTH",
"542 -9 OFFCURVE",
"633 102 OFFCURVE",
"633 255 CURVE SMOOTH",
"633 336 LINE SMOOTH",
"633 405 OFFCURVE",
"636 506 OFFCURVE",
"641 512 CURVE",
"706 530 LINE",
"703 587 LINE",
"463 587 LINE",
"460 530 LINE",
"530 512 LINE",
"534 506 OFFCURVE",
"537 405 OFFCURVE",
"537 336 CURVE SMOOTH",
"537 279 LINE SMOOTH",
"537 166 OFFCURVE",
"499 103 OFFCURVE",
"404 103 CURVE SMOOTH",
"309 103 OFFCURVE",
"269 170 OFFCURVE",
"270 282 CURVE",
"270 354 LINE",
"270 414 OFFCURVE",
"273 483 OFFCURVE",
"276 512 CURVE",
"341 530 LINE",
"338 587 LINE",
"33 587 LINE"
);
}
);
width = 734;
},
{
anchors = (
{
name = bottom;
position = "{367, 0}";
},
{
name = ogonek;
position = "{426, 0}";
},
{
name = top;
position = "{368, 587}";
},
{
name = topright;
position = "{660, 587}";
}
);
color = -1;
layerId = "76B56D5A-2442-4808-93A9-707A1715678A";
paths = (
{
closed = 1;
nodes = (
"36 541 LINE",
"98 525 LINE",
"102 519 OFFCURVE",
"105 465 OFFCURVE",
"105 373 CURVE SMOOTH",
"105 237 LINE SMOOTH",
"105 80 OFFCURVE",
"195 -9 OFFCURVE",
"355 -9 CURVE SMOOTH",
"493 -9 OFFCURVE",
"585 81 OFFCURVE",
"585 243 CURVE SMOOTH",
"585 355 LINE SMOOTH",
"585 456 OFFCURVE",
"588 519 OFFCURVE",
"591 525 CURVE",
"654 541 LINE",
"651 587 LINE",
"436 587 LINE",
"433 541 LINE",
"503 525 LINE",
"507 519 OFFCURVE",
"510 456 OFFCURVE",
"510 355 CURVE SMOOTH",
"510 256 LINE SMOOTH",
"510 131 OFFCURVE",
"460 75 OFFCURVE",
"371 75 CURVE SMOOTH",
"278 75 OFFCURVE",
"224 132 OFFCURVE",
"224 253 CURVE",
"224 373 LINE",
"223 463 OFFCURVE",
"226 508 OFFCURVE",
"229 525 CURVE",
"291 541 LINE",
"288 587 LINE",
"39 587 LINE"
);
}
);
width = 689;
}
);
leftKerningGroup = U;
note = U;
rightKerningGroup = U;
unicode = 0055;
},
